<svg width="183" height="42" viewBox="0 0 183 42" fill="none" xmlns="http://www.w3.org/2000/svg">
<path d="M51.4481 16.3513V22.9855H61.6999V26.4575H51.4481V34.3311H47.2516V12.8793H62.0264V16.3513H51.4481Z" fill="white"/>
<path d="M68.8706 34.6329C67.3865 34.6329 66.2251 34.1999 65.3866 33.3339C64.548 32.4679 64.1312 31.247 64.1362 29.6712C64.1362 27.9683 64.6556 26.6692 65.6945 25.7741C66.7334 24.8789 68.2374 24.422 70.2064 24.4035L73.5198 24.3439V23.5057C73.5198 22.4305 73.3454 21.6359 72.9966 21.1221C72.7932 20.8478 72.5295 20.6317 72.2291 20.4931C71.9287 20.3544 71.6009 20.2976 71.275 20.3276C70.6869 20.273 70.1023 20.467 69.6461 20.8679C69.2474 21.3679 69.0197 21.9984 69.0005 22.6556L64.8337 22.4411C64.9223 21.7146 65.1508 21.0158 65.5046 20.3888C65.8584 19.7617 66.3299 19.2201 66.8893 18.7982C68.0024 17.9666 69.5212 17.5521 71.4457 17.5548C73.3701 17.5574 74.8679 18.0699 75.939 19.0922C76.9927 20.1171 77.5183 21.5737 77.5159 23.462V29.4606C77.5159 30.3862 77.6123 31.0218 77.809 31.3714C77.9099 31.5466 78.0542 31.6883 78.2258 31.7809C78.3974 31.8734 78.5896 31.9132 78.7811 31.8958C79.0776 31.8979 79.3735 31.8673 79.6642 31.8044V34.1205L79.026 34.2873C78.8368 34.339 78.655 34.3787 78.4546 34.4105C78.2542 34.4423 78.065 34.4661 77.8498 34.4859C77.6346 34.5058 77.3897 34.5177 77.1077 34.5177C76.101 34.5177 75.3589 34.2529 74.8815 33.7232C74.3524 33.0721 74.0484 32.2459 74.0207 31.3834H73.9353C72.8148 33.5497 71.1266 34.6329 68.8706 34.6329ZM73.5198 26.6878L71.4753 26.7156C70.8037 26.7084 70.1355 26.8198 69.4977 27.0453C69.1284 27.2 68.8159 27.4788 68.6072 27.8398C68.3849 28.289 68.2798 28.794 68.3029 29.3017C68.2553 29.9297 68.4361 30.5531 68.8076 31.0417C68.9808 31.2335 69.1901 31.3837 69.4217 31.4823C69.6533 31.5809 69.9018 31.6257 70.1507 31.6138C70.7606 31.6193 71.3578 31.4283 71.8649 31.0655C72.3913 30.6885 72.812 30.1653 73.0819 29.552C73.3732 28.9139 73.5231 28.2124 73.5198 27.5021V26.6878Z" fill="white"/>
<path d="M83.2597 34.331V11.735H87.2558V34.331H83.2597Z" fill="white"/>
<path d="M97.7635 34.633C95.4334 34.633 93.6326 33.8901 92.3612 32.4044C91.0898 30.9187 90.454 28.845 90.454 26.1835C90.454 23.4663 91.0947 21.3476 92.376 19.8275C93.6574 18.3073 95.4717 17.5486 97.8192 17.5512C99.4278 17.4842 101.011 17.9992 102.312 19.0131C103.506 20.0075 104.302 21.4502 104.539 23.0491L100.517 23.2597C100.44 22.5081 100.141 21.8023 99.6633 21.2456C99.4065 20.9836 99.1019 20.7813 98.7686 20.6514C98.4353 20.5215 98.0804 20.4668 97.7264 20.4909C95.6709 20.4909 94.6431 22.3328 94.6431 26.0166C94.6431 29.8143 95.6907 31.7118 97.7858 31.7092C98.4897 31.7314 99.1735 31.456 99.6892 30.9425C100.249 30.3225 100.587 29.5108 100.643 28.6504L104.654 28.849C104.525 29.949 104.131 30.9942 103.51 31.8816C102.89 32.769 102.064 33.4681 101.114 33.91C100.058 34.4037 98.9157 34.6502 97.7635 34.633Z" fill="white"/>
<path d="M123.332 26.0761C123.332 28.7457 122.641 30.8393 121.258 32.3568C119.875 33.8744 117.961 34.6331 115.514 34.6331C113.112 34.6331 111.23 33.8717 109.867 32.3489C108.504 30.826 107.821 28.7351 107.819 26.0761C107.819 23.4276 108.502 21.3447 109.867 19.8271C111.232 18.3096 113.143 17.5508 115.6 17.5508C118.113 17.5508 120.03 18.2844 121.351 19.7516C122.672 21.2189 123.332 23.327 123.332 26.0761ZM119.154 26.0761C119.154 24.1189 118.855 22.698 118.256 21.8134C117.96 21.3788 117.568 21.0302 117.114 20.7992C116.661 20.5682 116.16 20.4621 115.659 20.4905C113.232 20.4905 112.019 22.3524 112.019 26.0761C112.019 27.9141 112.315 29.3125 112.906 30.2712C113.178 30.7316 113.558 31.1071 114.009 31.3596C114.46 31.6121 114.965 31.7327 115.473 31.7093C117.925 31.7093 119.15 29.8315 119.15 26.0761H119.154Z" fill="white"/>
<path d="M136.467 34.3312V25.0869C136.467 22.1949 135.553 20.7489 133.725 20.7489C133.262 20.7418 132.804 20.8601 132.395 21.0927C131.986 21.3254 131.638 21.6648 131.384 22.0797C130.76 23.0918 130.45 24.2885 130.497 25.5001V34.3312H126.501V21.5394C126.501 20.6575 126.501 19.9504 126.464 19.3704C126.427 18.7904 126.415 18.3017 126.386 17.8568H130.196C130.226 18.0515 130.263 18.5639 130.311 19.4021C130.36 20.2404 130.382 20.8164 130.382 21.1302H130.441C130.861 20.0278 131.567 19.0768 132.475 18.3891C133.345 17.8019 134.359 17.5046 135.387 17.535C137.02 17.535 138.271 18.074 139.142 19.1519C140.013 20.2298 140.448 21.8029 140.448 23.8713V34.3312H136.467Z" fill="white"/>
<path d="M162.065 23.4387C162.107 25.4481 161.689 27.4379 160.848 29.2346C160.08 30.8351 158.882 32.1524 157.408 33.0165C155.842 33.913 154.086 34.3643 152.31 34.3275H144.203V12.8757H151.457C154.828 12.8757 157.439 13.7867 159.29 15.6088C161.14 17.4309 162.065 20.0408 162.065 23.4387ZM157.839 23.4387C157.839 21.1346 157.28 19.3774 156.162 18.1671C155.044 16.9568 153.447 16.3503 151.372 16.3477H148.403V30.8594H151.958C152.767 30.8967 153.574 30.7374 154.317 30.3934C155.06 30.0494 155.722 29.5297 156.251 28.8731C157.309 27.5384 157.839 25.7269 157.839 23.4387Z" fill="white"/>
<path d="M182.995 28.2051C182.995 30.1543 182.313 31.6613 180.947 32.7259C179.582 33.7905 177.686 34.3202 175.259 34.3149H165.241V12.8632H174.413C176.86 12.8632 178.715 13.3174 179.979 14.2257C181.243 15.1341 181.864 16.4835 181.841 18.2738C181.874 19.3877 181.54 20.4784 180.899 21.3565C180.151 22.2593 179.133 22.8549 178.02 23.0408C179.637 23.2421 180.874 23.7877 181.73 24.6775C182.157 25.1402 182.49 25.6925 182.708 26.2996C182.925 26.9067 183.023 27.5555 182.995 28.2051ZM177.619 18.8776C177.619 17.9123 177.333 17.229 176.758 16.8198C176.183 16.4106 175.337 16.212 174.205 16.212H169.43V21.5273H174.235C175.422 21.5273 176.28 21.3048 176.832 20.8639C177.102 20.624 177.314 20.3186 177.451 19.973C177.588 19.6275 177.645 19.2519 177.619 18.8776ZM178.784 27.8595C178.784 25.8494 177.438 24.8444 174.747 24.8444H169.43V30.9859H174.907C176.252 30.9859 177.236 30.7211 177.856 30.1914C178.171 29.908 178.419 29.5492 178.58 29.1441C178.741 28.7389 178.811 28.2989 178.784 27.8595Z" fill="white"/>
<path d="M39.9273 18.3653C39.9273 10.7538 27.8759 8.24712 17.3866 11.0677C6.89726 13.8882 -0.256398 19.4379 0.00704059 25.3491C0.326135 32.1779 12.1289 34.6409 24.6293 31.0775L22.032 23.9269C21.9615 23.9587 6.24052 27.7207 6.07726 21.7896C5.96595 17.964 10.4704 14.8376 17.984 12.8196C25.4975 10.8015 34.7958 11.747 35.3449 17.3483C36.5731 30.1916 17.6092 36.4286 16.3328 36.7106C28.9259 35.2368 39.9384 27.2082 39.9273 18.3653Z" fill="white"/>
<path d="M27.5976 33.5087L33.3376 0L21.3827 16.6372L27.5976 33.5087Z" fill="white"/>
<path d="M11.1419 24.4118L33.3375 0L27.5864 20.0697L11.1419 24.4118Z" fill="white"/>
<path d="M28.978 32.7814C23.4124 39.4513 11.9101 41.6084 10.9232 41.6919C23.4013 41.8706 35.0705 35.5543 36.3914 26.9934C34.2676 29.3869 31.7558 31.348 28.978 32.7814Z" fill="white"/>
</svg>
