<svg width="222" height="220" viewBox="0 0 222 220" fill="none" xmlns="http://www.w3.org/2000/svg">
<path d="M75.0161 44.231C75.0161 44.231 72.1175 28.4995 54.1924 25.4494C36.2672 22.3993 27.2617 35.7253 25.3522 39.8647C25.3522 39.8647 13.7834 38.8026 5.17351 51.7837C-0.477554 60.3076 -2.1032 80.8867 11.4267 85.2893C11.4267 85.2893 4.03813 101.774 18.5313 109.372C33.0245 116.97 42.3054 112.277 42.3054 112.277C42.3054 112.277 51.5604 122.117 66.9137 115.282C82.267 108.446 85.6904 96.6182 81.5359 89.3289C81.5359 89.3289 93.0445 86.9505 94.911 75.9756C96.7775 65.0007 91.4705 62.6859 91.4705 62.6859C91.4705 62.6859 91.9779 44.7666 75.0161 44.231Z" fill="white" stroke="black" stroke-linejoin="round"/>
<path d="M52.9538 129.915C51.0537 129.915 49.5133 128.29 49.5133 126.284C49.5133 124.279 51.0537 122.653 52.9538 122.653C54.854 122.653 56.3944 124.279 56.3944 126.284C56.3944 128.29 54.854 129.915 52.9538 129.915Z" fill="white"/>
<path d="M52.9539 123.107C52.3584 123.107 51.7764 123.293 51.2813 123.642C50.7863 123.991 50.4004 124.488 50.1726 125.068C49.9447 125.649 49.8851 126.287 50.0012 126.904C50.1174 127.52 50.4041 128.086 50.8251 128.531C51.2462 128.975 51.7826 129.277 52.3665 129.4C52.9505 129.523 53.5558 129.46 54.1059 129.219C54.656 128.979 55.1262 128.572 55.457 128.049C55.7878 127.527 55.9643 126.912 55.9643 126.284C55.9643 125.441 55.6471 124.633 55.0826 124.037C54.518 123.441 53.7523 123.107 52.9539 123.107ZM52.9539 122.199C53.7194 122.199 54.4677 122.439 55.1042 122.887C55.7408 123.336 56.2369 123.974 56.5298 124.721C56.8228 125.467 56.8994 126.288 56.7501 127.081C56.6007 127.873 56.2321 128.601 55.6908 129.172C55.1495 129.744 54.4598 130.133 53.709 130.29C52.9581 130.448 52.1799 130.367 51.4726 130.058C50.7654 129.749 50.1609 129.225 49.7356 128.553C49.3103 127.882 49.0833 127.092 49.0833 126.284C49.0821 125.747 49.1815 125.215 49.3756 124.719C49.5697 124.223 49.8548 123.772 50.2144 123.393C50.5741 123.013 51.0012 122.712 51.4713 122.507C51.9414 122.303 52.4452 122.198 52.9539 122.199Z" fill="black"/>
<path d="M59.8349 133.546C58.8849 133.546 58.1147 132.733 58.1147 131.731C58.1147 130.728 58.8849 129.915 59.8349 129.915C60.785 129.915 61.5552 130.728 61.5552 131.731C61.5552 132.733 60.785 133.546 59.8349 133.546Z" fill="white"/>
<path d="M59.8349 130.369C59.5797 130.369 59.3302 130.449 59.1181 130.598C58.9059 130.748 58.7405 130.961 58.6429 131.21C58.5452 131.458 58.5197 131.732 58.5695 131.996C58.6192 132.26 58.7421 132.503 58.9226 132.693C59.103 132.884 59.3329 133.014 59.5832 133.066C59.8334 133.119 60.0929 133.092 60.3286 132.989C60.5644 132.886 60.7659 132.711 60.9076 132.487C61.0494 132.263 61.1251 132 61.1251 131.731C61.1251 131.369 60.9891 131.023 60.7472 130.768C60.5052 130.512 60.1771 130.369 59.8349 130.369ZM59.8349 129.461C60.2602 129.461 60.6759 129.594 61.0295 129.844C61.3832 130.093 61.6588 130.447 61.8215 130.862C61.9843 131.277 62.0269 131.733 61.9439 132.173C61.8609 132.614 61.6561 133.018 61.3554 133.335C61.0546 133.653 60.6715 133.869 60.2544 133.956C59.8373 134.044 59.4049 133.999 59.012 133.827C58.6191 133.655 58.2832 133.365 58.0469 132.991C57.8107 132.618 57.6845 132.179 57.6845 131.731C57.6845 131.129 57.9111 130.551 58.3144 130.126C58.7176 129.7 59.2646 129.461 59.8349 129.461Z" fill="black"/>
<path d="M54.1999 57.7562H65.9206C66.1899 57.7447 66.4518 57.6777 66.6839 57.5611C66.9159 57.4445 67.1111 57.2816 67.2525 57.0867C67.6122 56.6058 67.7975 56.0458 67.7852 55.4762V43.28C67.7943 42.7095 67.6053 42.1494 67.2418 41.6695C67.1004 41.4746 66.9053 41.3117 66.6732 41.1951C66.4412 41.0785 66.1792 41.0115 65.9099 41H38.7605C38.4912 41.0115 38.2292 41.0785 37.9972 41.1951C37.7651 41.3117 37.57 41.4746 37.4286 41.6695C37.0651 42.1494 36.8761 42.7095 36.8852 43.28V55.4762C36.8761 56.0467 37.0651 56.6068 37.4286 57.0867C37.5686 57.2827 37.7634 57.4464 37.9957 57.5632C38.2281 57.6799 38.4908 57.7462 38.7605 57.7562H50.364L48.4248 60L54.1999 57.7562Z" fill="#C4D8FF" stroke="#0A1931" stroke-linejoin="round"/>
<path d="M63.6013 48.1662H40.8721V46H63.6013V48.1662Z" fill="#0A1931"/>
<path d="M63.6013 52.8422H40.8721V50.676H63.6013V52.8422Z" fill="#0A1931"/>
<path d="M58.1467 109L43.6337 104.585V75.4106L58.1467 79.263V109Z" fill="white" stroke="#0A1931" stroke-linejoin="round"/>
<path d="M58.0065 109L72.5135 104.585V75.4106L58.0065 79.263V109Z" fill="#C5D8FF" stroke="#0A1931" stroke-linejoin="round"/>
<path d="M58.1467 109L43.5666 104.585V98.9226L58.1467 103.338V109Z" fill="white" stroke="#0A1931" stroke-linejoin="round"/>
<path d="M55.7025 96.4219L45.1697 93.4745V90.79L55.7025 93.7374V96.4219Z" fill="#0A1931" stroke="#0A1931" stroke-linejoin="round"/>
<path d="M55.7025 91.9394L45.1697 88.9921V86.3137L55.7025 89.255V91.9394Z" fill="#0A1931" stroke="#0A1931" stroke-linejoin="round"/>
<path d="M55.7025 87.4634L45.1697 84.516V81.8315L55.7025 84.7789V87.4634Z" fill="#0A1931" stroke="#0A1931" stroke-linejoin="round"/>
<path d="M60.2375 96.4219L70.7702 93.4745V90.79L60.2375 93.7374V96.4219Z" fill="#0A1931" stroke="#0A1931" stroke-linejoin="round"/>
<path d="M60.2375 91.9394L70.7702 88.9921V86.3137L60.2375 89.255V91.9394Z" fill="#0A1931" stroke="#0A1931" stroke-linejoin="round"/>
<path d="M60.2375 87.4634L70.7702 84.516V81.8315L60.2375 84.7789V87.4634Z" fill="#0A1931" stroke="#0A1931" stroke-linejoin="round"/>
<path d="M58.0065 109L72.5866 104.585V98.9226L58.0065 103.338V109Z" fill="#C5D8FF" stroke="#0A1931" stroke-linejoin="round"/>
<path d="M58.1468 79.5567L42.8657 75.5147V69.5833L58.1468 73.6191V79.5567Z" fill="white" stroke="#0A1931" stroke-linejoin="round"/>
<path d="M73.2145 69.4794L57.9334 66L42.8657 69.5833L58.1468 73.6192L73.2145 69.4794Z" fill="white" stroke="#0A1931" stroke-linejoin="round"/>
<path d="M58.0005 79.5567L73.2816 75.5147V69.5833L58.0005 73.6191V79.5567Z" fill="#C5D8FF" stroke="#0A1931" stroke-linejoin="round"/>
<path d="M26.6686 82.4459C28.7812 82.4361 30.8439 81.8015 32.5986 80.6214C34.3532 79.4414 35.7218 77.7684 36.5328 75.8118C37.3413 73.8334 37.5473 71.659 37.1247 69.5632C36.8066 68.0138 36.1507 66.5541 35.2041 65.2888C34.2575 64.0235 33.0436 62.9838 31.6493 62.2443C30.2551 61.5048 28.715 61.0837 27.1395 61.0113C25.5639 60.9388 23.9919 61.2168 22.5361 61.8252C20.5848 62.6442 18.9166 64.0204 17.7389 65.7827C16.6675 67.4002 16.0539 69.2792 15.9636 71.219C15.8734 73.1589 16.3099 75.087 17.2266 76.7976C18.1432 78.5081 19.5057 79.937 21.1686 80.9317C22.8315 81.9265 24.7325 82.4498 26.6686 82.4459V82.4459Z" stroke="#0A1931" stroke-linecap="round" stroke-linejoin="round"/>
<path d="M26.5026 73.6665C27.2934 73.6543 28.0643 73.4158 28.7246 72.9791C29.3749 72.5409 29.8837 71.922 30.1887 71.1983C30.4131 70.65 30.5133 70.0585 30.4818 69.4667C30.4504 68.8748 30.2882 68.2973 30.007 67.7761C29.7258 67.2548 29.3326 66.8027 28.8558 66.4526C28.379 66.1025 27.8306 65.863 27.2502 65.7515C26.6697 65.6371 26.0711 65.6538 25.4979 65.8002C24.9246 65.9466 24.391 66.2191 23.9357 66.5979C23.4805 66.9768 23.1149 67.4525 22.8657 67.9906C22.6164 68.5287 22.4897 69.1157 22.4946 69.709C22.5028 70.7697 22.9287 71.7842 23.6795 72.5314C24.4302 73.2785 25.445 73.6978 26.5026 73.6977V73.6665Z" fill="#0A1931" stroke="#0A1931" stroke-linecap="round" stroke-linejoin="round"/>
<path d="M19.7118 79.8839C20.0056 78.905 20.6051 78.0466 21.4221 77.4354C22.239 76.8241 23.2301 76.4923 24.2494 76.4888H28.9634C29.9903 76.4894 30.9903 76.8177 31.8188 77.4261C32.6617 78.0296 33.2851 78.8925 33.5944 79.8839" fill="#0A1931"/>
<path d="M19.7118 79.8839C20.0056 78.905 20.6051 78.0466 21.4221 77.4354C22.239 76.8241 23.2301 76.4923 24.2494 76.4888H28.9634C29.9903 76.4894 30.9903 76.8177 31.8188 77.4261C32.6617 78.0296 33.2851 78.8925 33.5944 79.8839" stroke="#0A1931" stroke-linecap="round" stroke-linejoin="round"/>
<ellipse cx="26.4185" cy="79.7839" rx="6.47922" ry="3" fill="#0A1931"/>
<path d="M219.993 121C219.858 120.407 219.712 119.813 219.525 119.23C219.427 118.897 219.244 118.595 218.995 118.354C218.745 118.113 218.438 117.941 218.103 117.855C217.895 117.603 217.673 117.363 217.438 117.136C217.146 116.709 216.797 116.323 216.4 115.991C215.591 115.437 214.732 114.959 213.835 114.564L210.513 112.887C210.359 112.819 210.193 112.784 210.025 112.783C208.919 112.025 207.771 111.329 206.588 110.7C204.511 109.576 202.434 108.503 200.358 107.461C200.227 107.39 200.082 107.347 199.933 107.336C199.785 107.325 199.635 107.347 199.496 107.399C195.905 106.267 192.679 104.197 190.151 101.4C190.081 101.292 190.004 101.187 189.922 101.088V100.796C189.893 100.014 189.645 99.2561 189.206 98.6091C188.766 98.1228 188.233 97.7296 187.639 97.4524C187.046 97.1752 186.403 97.0196 185.748 96.9948C185.575 96.8619 185.387 96.75 185.187 96.6616C185.215 96.4283 185.151 96.1934 185.011 96.0055C184.066 94.6516 183.246 93.2248 182.436 91.8397C182.436 91.8397 182.363 91.7668 182.332 91.7251C182.219 91.4253 182.088 91.1331 181.937 90.8503C180.915 89.1618 179.312 87.9062 177.431 87.3198C175.018 86.5004 172.547 85.8668 170.038 85.4244L162.375 83.7164C160.859 83.1748 159.364 82.5708 157.869 82.0293C156.208 81.4252 154.422 80.9878 152.677 80.4671C152.22 80.29 151.763 80.1234 151.296 79.9672C150.611 79.6235 149.936 79.2694 149.22 78.9257C148.791 76.6035 147.481 74.5387 145.565 73.1665C144.526 72.3646 143.488 74.208 144.526 74.9578L144.661 75.0724C144.63 75.213 144.63 75.3588 144.661 75.4994C145.139 77.7489 145.627 79.9984 146.104 82.248C146.093 84.2055 146.179 86.1625 146.364 88.1113C146.302 88.2153 146.264 88.3321 146.253 88.453C146.242 88.5739 146.259 88.6956 146.302 88.8091L146.458 89.2673C145.095 92.4322 144.793 95.9549 145.596 99.3068C145.128 102.275 144.713 105.243 144.37 108.222C144.347 108.372 144.365 108.525 144.424 108.665C144.483 108.805 144.579 108.926 144.703 109.013C144.643 109.097 144.6 109.193 144.578 109.294C143.969 111.857 143.494 114.451 143.156 117.064C143.156 117.157 143.156 117.251 143.156 117.334C143.15 117.397 143.15 117.459 143.156 117.522C140.716 123.541 139.802 129.894 138.255 136.164C137.715 138.392 137.081 140.6 136.427 142.798C135.416 144.413 134.867 146.275 134.839 148.182V148.276C134.683 148.817 134.517 149.317 134.33 149.869C133.634 149.338 132.97 148.828 132.305 148.203C132.139 147.932 131.952 147.672 131.765 147.422C131.771 147.366 131.771 147.31 131.765 147.255C131.572 146.582 131.27 145.945 130.872 145.37C131.055 145.216 131.18 145.004 131.226 144.769C131.271 144.534 131.234 144.29 131.121 144.079C130.728 143.441 130.294 142.828 129.823 142.246C129.567 141.832 129.335 141.405 129.128 140.965C129.293 140.854 129.419 140.693 129.488 140.506C129.557 140.319 129.565 140.115 129.512 139.923C129.309 139.26 129 138.634 128.598 138.069C127.974 136.772 127.45 135.428 127.03 134.049C127.062 133.909 127.062 133.763 127.03 133.623C127.03 133.529 127.03 133.435 127.03 133.341C126.872 132.26 126.557 131.207 126.096 130.217C126.002 129.832 125.898 129.436 125.826 129.04C125.691 127.634 125.525 126.228 125.338 124.874C125.343 124.854 125.343 124.832 125.338 124.812V124.541C125.324 124.432 125.288 124.327 125.232 124.232C125.177 124.138 125.104 124.055 125.016 123.989C124.85 122.812 124.704 121.635 124.569 120.459L124.289 114.866C124.28 114.676 124.219 114.492 124.113 114.335C124.113 113.293 124.113 112.252 124.113 111.211C124.185 106.524 124.403 101.838 124.569 97.1406C124.698 97.0524 124.804 96.9345 124.878 96.7968C124.952 96.6591 124.992 96.5056 124.995 96.3491C125.194 94.0879 125.029 91.8094 124.507 89.6006C124.601 89.2569 124.694 88.9132 124.767 88.5591C124.798 88.401 124.798 88.2382 124.767 88.0801C124.953 87.2323 125.081 86.3729 125.151 85.5077C125.169 85.3833 125.16 85.2564 125.124 85.1359C125.088 85.0153 125.027 84.9041 124.944 84.8099C124.861 84.7157 124.758 84.6408 124.643 84.5905C124.528 84.5401 124.404 84.5155 124.279 84.5183C124.27 84.3389 124.215 84.1649 124.119 84.0131C124.023 83.8613 123.89 83.737 123.732 83.6521C123.575 83.5672 123.398 83.5246 123.219 83.5286C123.04 83.5326 122.865 83.5829 122.711 83.6747C122.403 83.6405 122.098 83.5883 121.797 83.5185C121.245 83.4614 120.688 83.4614 120.136 83.5185C119.199 83.6165 118.274 83.8048 117.374 84.0809C115.235 84.6954 113.127 85.466 111.05 86.2575L109.285 86.9553C109.005 87.0386 108.724 87.1115 108.454 87.2157C106.045 88.13 103.977 89.7709 102.536 91.9126C102.348 91.8982 102.16 91.9351 101.992 92.0195C101.824 92.1039 101.682 92.2325 101.581 92.3916C100.862 93.6413 100.254 94.9516 99.7635 96.3075C99.7094 96.5198 99.7235 96.7437 99.8036 96.9475C99.8838 97.1513 100.026 97.3246 100.21 97.4427C99.9707 98.5097 99.8042 99.5918 99.7116 100.682C99.7116 100.879 99.6181 101.077 99.587 101.275C99.5605 101.461 99.5819 101.651 99.6493 101.827C99.6493 101.921 99.6493 102.004 99.6493 102.088C99.6091 102.251 99.5848 102.419 99.5766 102.587C99.5655 102.846 99.5864 103.105 99.6389 103.358C99.6389 103.848 99.6389 104.4 99.6389 104.837C99.6709 106.83 99.9891 108.808 100.584 110.711C100.367 111.857 100.322 113.029 100.449 114.189C100.449 114.272 100.449 114.356 100.366 114.439C100.243 114.666 100.182 114.921 100.189 115.178C100.194 115.341 100.238 115.5 100.315 115.643C100.393 115.786 100.502 115.909 100.636 116.001C100.594 116.132 100.579 116.271 100.591 116.408C100.602 116.545 100.641 116.679 100.705 116.801C100.769 116.923 100.856 117.031 100.962 117.119C101.068 117.207 101.19 117.273 101.321 117.313C101.585 117.383 101.837 117.492 102.069 117.636V117.73C102.217 117.951 102.395 118.151 102.598 118.324C102.775 118.799 102.99 119.259 103.242 119.698C103.363 120.145 103.446 120.602 103.491 121.063C103.522 121.288 103.619 121.498 103.771 121.667C103.865 122.635 103.875 123.531 103.875 124.062C103.875 126.082 103.761 128.811 102.723 130.769L101.684 132.217C101.607 132.254 101.534 132.299 101.466 132.352C100.864 132.789 100.542 134.143 100.262 134.789L99.5766 135.487C99.4828 135.582 99.4102 135.696 99.3636 135.822C99.3171 135.948 99.2977 136.082 99.3066 136.216L97.9983 137.32C97.8286 137.525 97.7334 137.782 97.7284 138.049C97.5081 138.28 97.2722 138.496 97.0223 138.694C96.5871 138.869 96.1966 139.139 95.8801 139.486C95.5998 139.486 95.3402 139.423 95.2052 139.403C94.7637 139.351 94.3176 139.351 93.8761 139.403C92.338 138.678 90.8914 137.773 89.567 136.705C89.4646 136.623 89.3486 136.56 89.2244 136.518C88.6483 135.855 88.111 135.16 87.615 134.435C87.6626 134.268 87.6626 134.091 87.615 133.925C87.3865 133.008 87.1166 132.112 86.8051 131.238C86.8051 130.759 86.7324 130.279 86.6701 129.811V129.54C86.6469 129.438 86.6084 129.339 86.5559 129.248C86.5559 128.946 86.5559 128.644 86.5559 128.332C86.6597 126.999 84.583 127.009 84.4792 128.332C84.4792 128.54 84.4792 128.749 84.4792 128.957C84.3098 129.082 84.1887 129.263 84.1365 129.467C83.6123 131.631 83.8814 133.912 84.8945 135.893C84.9394 135.997 85.0068 136.089 85.0918 136.164C85.1956 136.434 85.341 136.695 85.4656 136.966C85.611 138.559 85.8083 140.142 86.0471 141.725C85.7551 141.97 85.548 142.302 85.4552 142.673C85.2418 143.619 85.2921 144.606 85.6006 145.526C85.6006 145.87 85.5175 146.214 85.4968 146.568C85.4008 146.849 85.3313 147.138 85.2891 147.432C85.2661 147.682 85.2661 147.933 85.2891 148.182C85.1637 148.274 85.0603 148.392 84.9867 148.529C84.913 148.666 84.8709 148.818 84.8634 148.973C84.8802 149.183 84.9079 149.392 84.9464 149.598C84.8423 150.063 84.8142 150.541 84.8634 151.015C84.7516 151.255 84.7247 151.526 84.787 151.783C84.8493 152.041 84.997 152.269 85.206 152.431C85.2572 152.475 85.3129 152.513 85.3721 152.546C85.3721 152.629 85.4448 152.712 85.4968 152.796C85.589 152.948 85.7186 153.073 85.8731 153.161C86.0276 153.248 86.2019 153.295 86.3793 153.295C87.8019 154.337 89.1932 155.43 90.5327 156.597C90.6446 156.705 90.7795 156.787 90.9273 156.836L92.5159 158.461C93.2539 159.345 94.1349 160.099 95.1221 160.69C95.6966 160.971 96.3216 161.134 96.96 161.169C97.3804 161.304 97.8246 161.348 98.2632 161.297C98.7018 161.247 99.1247 161.104 99.5039 160.877C100.031 160.711 100.544 160.506 101.041 160.263C102.223 159.651 103.258 158.787 104.073 157.732C105.229 156.962 106.198 155.94 106.907 154.743C107.115 154.408 107.216 154.017 107.198 153.623C107.179 153.229 107.042 152.849 106.803 152.535C107.281 151.254 107.717 149.963 108.184 148.744C108.268 148.537 108.268 148.306 108.184 148.099L108.87 146.151C109.003 146.09 109.121 145.999 109.214 145.885C109.308 145.771 109.375 145.638 109.41 145.495C109.887 143.808 110.375 142.121 110.853 140.444C110.868 140.337 110.868 140.228 110.853 140.121L111.289 140.569V140.642C111.287 140.745 111.304 140.847 111.341 140.944C111.943 142.412 112.514 143.902 113.085 145.38C113.07 145.48 113.07 145.582 113.085 145.682C113.407 147.604 113.962 149.478 114.736 151.265C114.661 151.442 114.636 151.636 114.664 151.827C114.844 152.784 115.133 153.717 115.525 154.608C115.609 155.035 115.723 155.462 115.847 155.878C115.82 156.009 115.82 156.143 115.847 156.274C115.847 156.826 115.847 157.367 115.847 157.909C115.661 158.71 115.515 159.52 115.411 160.336C115.232 160.526 115.126 160.773 115.11 161.033C115.027 162.439 114.871 163.824 114.664 165.199C114.428 165.235 114.212 165.35 114.051 165.526C113.89 165.703 113.795 165.929 113.781 166.168C113.708 167.709 113.584 169.24 113.449 170.76C113.355 171.198 113.252 171.635 113.127 172.073C113.08 172.211 113.066 172.358 113.086 172.503C113.105 172.647 113.159 172.785 113.241 172.906C113.241 173.25 113.158 173.604 113.117 173.947C112.962 174.089 112.853 174.274 112.805 174.478C112.35 176.693 112.1 178.945 112.057 181.206C111.955 181.325 111.877 181.463 111.829 181.612C111.485 182.624 111.262 183.673 111.164 184.737C111.026 185.226 110.943 185.729 110.915 186.236C110.8 186.387 110.731 186.568 110.718 186.757C110.645 188.038 111.549 189.329 112.452 190.475C112.391 190.649 112.374 190.835 112.403 191.017C112.432 191.199 112.506 191.371 112.618 191.517C113.272 192.287 113.947 193.037 114.695 193.756C114.692 193.92 114.735 194.083 114.819 194.224C116.913 197.522 119.457 200.509 122.378 203.097C122.465 203.257 122.581 203.399 122.721 203.514L123.458 204.076C123.511 204.16 123.574 204.237 123.645 204.305L123.863 204.462L124.507 204.92C124.652 205.034 124.798 205.149 124.954 205.253L125.763 205.836C125.872 205.903 125.992 205.949 126.117 205.972C126.677 206.295 127.259 206.586 127.851 206.867C129.148 207.711 130.914 208.596 132.108 207.263C132.677 206.431 133.082 205.498 133.302 204.514L134.485 201.192L136.998 194.068C137.583 192.306 138.313 190.596 139.179 188.955C139.366 189.204 139.553 189.444 139.739 189.673C140.923 191.291 142.1 192.909 143.27 194.526C143.323 194.578 143.378 194.626 143.436 194.672C144.038 195.477 144.661 196.259 145.305 197.015C145.292 197.158 145.308 197.302 145.352 197.438C145.397 197.574 145.469 197.7 145.565 197.807C146.459 198.841 147.405 199.828 148.399 200.765L148.669 201.025C149.846 202.131 151.079 203.174 152.366 204.149C152.402 204.199 152.443 204.245 152.49 204.285C153.871 205.326 155.938 206.795 157.755 206.784C158.493 206.741 159.194 206.443 159.738 205.941C159.904 205.816 160.07 205.711 160.236 205.597C162.069 204.937 163.812 204.052 165.428 202.962C167.457 201.735 169.403 200.375 171.253 198.89C173.122 197.411 174.929 195.859 176.756 194.328C177.661 193.661 178.496 192.904 179.248 192.068C179.512 191.656 179.738 191.22 179.923 190.767C180.159 190.758 180.383 190.657 180.546 190.485L181.979 189.007C182.141 188.829 182.236 188.601 182.249 188.361C182.785 187.774 183.354 187.218 183.952 186.695C184.689 186.038 184.035 184.997 183.215 184.914C182.541 184.839 181.88 184.67 181.252 184.414C180.482 183.521 179.595 182.736 178.615 182.081C178.063 181.121 177.598 180.114 177.223 179.071C177.12 178.748 177.016 178.415 176.881 178.092C176.881 178.092 176.881 178.092 176.881 178.03C176.829 177.707 176.777 177.384 176.735 177.061C176.735 177.061 176.735 176.988 176.735 176.936C176.673 176.155 176.6 175.364 176.538 174.583C176.538 174.291 176.538 173.999 176.538 173.708C176.538 173.416 176.538 173.093 176.538 172.583C176.913 171.78 177.223 170.948 177.462 170.094C177.527 169.872 177.505 169.633 177.4 169.427C177.659 169.104 177.885 168.755 178.075 168.386C178.198 168.152 178.227 167.881 178.158 167.626C178.563 167.301 178.842 166.844 178.947 166.334C178.988 165.381 178.661 164.448 178.033 163.731C177.954 163.619 177.851 163.527 177.732 163.46C176.811 161.329 175.75 159.263 174.555 157.274C174.525 157.225 174.491 157.179 174.451 157.138C174.558 157.131 174.663 157.103 174.76 157.054C174.856 157.006 174.942 156.939 175.012 156.857C175.452 156.303 175.726 155.635 175.801 154.93C175.814 154.773 175.774 154.615 175.687 154.483C175.731 154.291 175.756 154.096 175.759 153.899C175.77 153.775 175.77 153.649 175.759 153.525C175.765 153.431 175.765 153.337 175.759 153.243C175.764 153 175.684 152.762 175.532 152.572C175.38 152.381 175.167 152.251 174.929 152.202C174.848 152.15 174.76 152.108 174.669 152.077C174.549 151.866 174.363 151.701 174.14 151.608C174.009 151.551 173.867 151.521 173.724 151.521C173.581 151.521 173.44 151.551 173.309 151.608C173.309 151.317 173.309 151.015 173.309 150.723C173.407 150.627 173.479 150.508 173.521 150.378C173.562 150.247 173.572 150.108 173.548 149.973C173.548 149.619 173.475 149.265 173.444 148.932C173.649 148.797 173.799 148.594 173.87 148.359C174.552 146.119 174.775 143.763 174.524 141.433C174.287 140.209 174.21 138.959 174.295 137.715C174.461 136.518 174.628 135.33 174.7 134.122C174.719 131.636 174.92 129.154 175.303 126.697C175.743 125.041 175.867 123.317 175.666 121.615C175.946 121.427 176.227 121.229 176.517 121.052C177.265 121.229 178.002 121.427 178.739 121.625L181.771 122.666C182.408 123.24 183.104 123.743 183.848 124.166C185.136 124.926 186.475 125.635 187.835 126.249C189.195 126.864 190.763 127.52 192.259 128.051C192.775 128.513 193.364 128.886 194.003 129.155C194.001 129.189 194.001 129.224 194.003 129.259C194.003 129.259 194.003 129.353 194.003 129.394C193.897 129.521 193.822 129.671 193.785 129.832C193.17 132.522 192.415 135.178 191.521 137.788C190.691 139.545 189.902 141.333 189.154 143.152C189.154 143.152 189.092 143.235 189.071 143.287L188.458 144.818C188.211 144.78 187.958 144.832 187.746 144.966C187.534 145.1 187.378 145.307 187.306 145.547C186.898 146.877 186.355 148.161 185.686 149.38C184.951 150.494 184.338 151.684 183.858 152.931C183.661 153.556 183.505 154.139 183.329 154.712C182.894 155.06 182.602 155.557 182.509 156.107C181.792 157.149 181.086 158.138 180.432 159.148C180.216 159.451 180.106 159.818 180.12 160.19C180.035 160.398 180.03 160.631 180.107 160.843C180.184 161.055 180.337 161.23 180.536 161.335C180.745 161.649 181.032 161.903 181.369 162.071C181.706 162.239 182.081 162.315 182.457 162.294C182.675 162.387 182.872 162.491 183.09 162.575L183.173 162.679C185.696 164.491 188.504 165.868 191.48 166.751C193.308 167.41 195.192 167.905 197.108 168.23C198.239 168.417 199.382 168.553 200.524 168.626C201.477 168.821 202.467 168.716 203.358 168.323C204.127 167.813 204.459 166.793 205.072 166.126C205.66 165.505 206.107 164.762 206.38 163.949C206.6 163.22 206.743 162.47 206.806 161.71C206.924 161.604 207.016 161.472 207.076 161.325C207.283 160.835 207.512 160.367 207.761 159.898C208.33 159.413 208.7 158.734 208.799 157.992C208.826 157.844 208.826 157.693 208.799 157.545C208.986 157.519 209.159 157.436 209.297 157.307C209.434 157.178 209.529 157.01 209.568 156.826L209.62 156.566L210.211 155.878C210.308 155.772 210.381 155.648 210.427 155.512C210.473 155.377 210.491 155.233 210.479 155.091C210.468 154.948 210.427 154.809 210.359 154.683C210.292 154.557 210.199 154.446 210.087 154.358C210.291 154.356 210.489 154.282 210.645 154.148C210.8 154.015 210.904 153.831 210.938 153.629C211.266 151.637 211.77 149.678 212.444 147.776C212.575 147.484 212.7 147.193 212.818 146.901C213.005 146.505 213.181 146.12 213.358 145.724C214.045 144.503 214.572 143.197 214.925 141.84C214.925 141.767 214.925 141.715 214.925 141.652L218.508 133.539C218.634 133.438 218.737 133.31 218.809 133.164L220.055 130.415C220.127 130.233 220.152 130.035 220.128 129.84C220.105 129.646 220.033 129.46 219.92 129.3C220.107 128.759 220.294 128.259 220.449 127.645C220.475 127.535 220.475 127.421 220.449 127.311C220.534 127.207 220.597 127.086 220.636 126.957C221.183 124.962 220.953 122.832 219.993 121Z" fill="#B7B7B7"/>
<path d="M103.709 53.5977C104.104 55.9097 104.436 58.1384 104.529 59.6485C105.059 67.6468 107.79 73.1873 112.047 77.5093C116.304 81.8313 119.897 83.2997 122.025 83.081C124.154 82.8623 131.838 81.6646 135.825 73.9163" stroke="#0A1931" stroke-linecap="round" stroke-linejoin="round"/>
<path d="M143.239 71.5732C157.682 58.4405 155.626 46.818 155.626 46.818L158.938 47.8594C159.977 45.7245 157.9 37.2054 154.93 29.2384C151.961 21.2713 147.496 21.3963 147.496 21.3963C138.078 6.57651 114.83 12.6481 110.583 17.043C106.336 21.438 95.257 27.395 95.1013 28.3011C94.9455 29.2071 99.6284 31.6337 99.6284 31.6337C97.1572 34.831 95.3816 44.4227 95.3816 44.4227L99.265 43.9332C102.255 53.5874 103.803 53.5145 104.114 53.8894C104.696 54.608 103.159 43.475 103.159 43.475L117.052 36.591L116.46 41.4337L132.648 34.6643C132.648 34.6643 141.297 47.0159 143.27 55.8473C143.27 55.8473 146.26 52.0461 148.181 54.9309C150.102 57.8157 149.728 65.6682 141.11 67.6365L143.239 71.5732Z" stroke="#0A1931" stroke-linecap="round" stroke-linejoin="round"/>
<path d="M141.079 67.6467L145.118 76.3116C145.118 76.3116 137.673 91.5479 131.163 97.7654C131.163 97.7654 127.985 94.7139 126.324 88.0487L123.552 82.8414" stroke="#0A1931" stroke-linecap="round" stroke-linejoin="round"/>
<path d="M145.118 76.3115C144.952 76.374 147.942 97.1404 142.242 118.688L134.008 149.931C134.008 149.931 120.624 134.82 125.068 86.5281" stroke="#0A1931" stroke-linecap="round" stroke-linejoin="round"/>
<path d="M124.611 109.857L125.878 111.94C125.878 111.94 126.916 102.264 131.184 97.6821C131.184 97.6821 137.621 106.274 138.452 111.94C138.452 111.94 143.145 107.263 145.191 97.9841" stroke="#0A1931" stroke-linecap="round" stroke-linejoin="round"/>
<path d="M143.612 73.1143C143.612 73.1143 145.855 72.5103 147.984 76.9469C150.112 81.3834 156.384 93.9849 157.184 94.5369C157.184 94.5369 148.877 96.1095 148.025 96.1095L157.786 104.899C157.786 104.899 149.282 139.538 135.005 154.139" stroke="#0A1931" stroke-linecap="round" stroke-linejoin="round"/>
<path d="M122.025 83.0811L115.65 93.1727L118.838 97.7654C118.838 97.7654 114.684 99.4942 112.338 99.2755C112.338 99.2755 119.772 140.277 132.513 153.045" stroke="#0A1931" stroke-linecap="round" stroke-linejoin="round"/>
<path d="M148.617 78.28C152.664 80.1458 156.826 81.7494 161.077 83.0811C165.76 84.3308 171.835 84.5287 178.584 88.4029C185.333 92.2771 183.89 95.9638 185.073 96.5574C186.257 97.151 189.227 97.1406 190.265 101.077C191.303 105.014 214.645 113.418 217.615 116.574C220.584 119.73 223.45 124.447 217.615 136.82C211.779 149.192 206.1 167.324 203.078 169.021C194.679 169.239 186.488 166.389 180.027 161.002C180.027 161.002 193.525 135.924 193.349 129.259" stroke="#0A1931" stroke-linecap="round" stroke-linejoin="round"/>
<path d="M172.406 119.115C172.406 119.115 176.922 120.854 181.616 123.197C186.309 125.541 193.152 129.446 195.612 129.967C198.073 130.488 204.428 131.008 208.072 126.322" stroke="#0A1931" stroke-linecap="round" stroke-linejoin="round"/>
<path d="M171.097 90.6211C169.214 94.1072 168.113 97.9634 167.869 101.921C167.625 105.878 168.245 109.841 169.685 113.533" stroke="#0A1931" stroke-linecap="round" stroke-linejoin="round"/>
<path d="M186.735 102.452C186.735 102.452 178.771 109.294 173.236 112.033" stroke="#0A1931" stroke-linecap="round" stroke-linejoin="round"/>
<path d="M176.123 120.656L173.569 152.056C173.842 151.963 174.133 151.931 174.42 151.962C174.71 151.995 174.989 152.094 175.236 152.251C175.482 152.408 175.69 152.619 175.842 152.868C175.997 153.118 176.093 153.399 176.123 153.691C176.497 155.982 173.994 156.139 175.282 158.024C176.823 160.866 178.21 163.789 179.435 166.782" stroke="#0A1931" stroke-linecap="round" stroke-linejoin="round"/>
<path d="M181.906 162.554C182.374 162.856 177.753 168.802 177.14 170.739C176.528 172.677 177.255 178.644 178.345 181.05C179.435 183.456 190.462 188.892 193.287 188.632C196.111 188.371 203.909 181.508 203.909 180.529C203.909 179.55 202.933 177.571 199.018 179.55L195.104 181.508" stroke="#0A1931" stroke-linecap="round" stroke-linejoin="round"/>
<path d="M193.286 167.897C193.141 167.761 192.248 169.084 192.248 170.386C192.248 171.687 194.948 181.3 195.052 183.862" stroke="#0A1931" stroke-linecap="round" stroke-linejoin="round"/>
<path d="M193.577 176.853C193.577 176.853 198.437 174.531 200.69 175.072C202.943 175.614 203.431 177.905 202.206 178.728" stroke="#0A1931" stroke-linecap="round" stroke-linejoin="round"/>
<path d="M192.809 173.583C192.809 173.583 196.443 172.76 198.219 175.166" stroke="#0A1931" stroke-linecap="round" stroke-linejoin="round"/>
<path d="M185.156 185.82C185.156 185.82 173.6 199.171 165.771 203.108C157.942 207.044 158.99 209.023 152.594 204.597C146.198 200.171 139.096 189.454 139.231 188.975C139.231 188.975 134.454 203.274 133.468 205.18C132.482 207.086 131.516 210.023 125.639 206.097C119.762 202.171 110.458 187.642 110.458 187.642" stroke="#0A1931" stroke-linecap="round" stroke-linejoin="round"/>
<path d="M110.936 185.434L115.827 155.993C115.827 155.993 108.974 131.487 107.998 127.53C107.021 123.572 104.446 110.658 104.228 107.284" stroke="#0A1931" stroke-linecap="round" stroke-linejoin="round"/>
<path d="M111.258 139.548C111.258 139.548 107.624 157.534 101.446 160.2C95.2675 162.866 94.9353 160.752 91.6749 157.878C88.4145 155.003 85.1022 152.827 84.8011 150.483C84.5 148.14 86.4728 141.256 85.4968 138.319C84.5207 135.382 82.5479 127.52 86.4728 125.541" stroke="#0A1931" stroke-linecap="round" stroke-linejoin="round"/>
<path d="M102.806 120C103.751 120.815 104.521 121.814 105.069 122.937C105.62 124.077 105.934 125.317 105.993 126.582C105.993 130.508 107.032 144.36 105.993 147.734" stroke="#0A1931" stroke-linecap="round" stroke-linejoin="round"/>
<path d="M85.8601 130.134C85.8601 130.134 88.4248 136.382 91.3529 138.319C94.2811 140.256 96.202 140.329 97.7283 137.361C99.2547 134.393 103.865 129.488 103.512 125.551C103.159 121.615 103.512 118.553 100.397 117.147" stroke="#0A1931" stroke-linecap="round" stroke-linejoin="round"/>
<path d="M87.8537 122.135C87.8537 122.135 85.6317 123.927 86.535 127.686C87.4384 131.446 87.9991 133.997 88.2171 134.685" stroke="#0A1931" stroke-linecap="round" stroke-linejoin="round"/>
<path d="M88.6532 129.509C88.4663 129.509 89.4528 133.383 92.9104 132.904C96.3681 132.425 99.67 128.509 100.449 125.551C101.228 122.593 102.577 122.281 102.878 120" stroke="#0A1931" stroke-linecap="round" stroke-linejoin="round"/>
<path d="M90.8338 132.633L86.94 118.053" stroke="#0A1931" stroke-linecap="round" stroke-linejoin="round"/>
<path d="M101.113 123.645C101.113 123.645 99.8569 116.876 100.075 114.335C100.293 111.794 101.248 106.514 99.265 102.775C98.0839 100.763 97.7125 98.3758 98.2267 96.0991" stroke="#0A1931" stroke-linecap="round" stroke-linejoin="round"/>
<path d="M121.579 44.3601C124.396 46.1492 127.652 47.1224 130.986 47.172" stroke="#0A1931" stroke-linecap="round" stroke-linejoin="round"/>
<path d="M112.93 44.8184C111.182 45.8608 109.304 46.6629 107.343 47.2033" stroke="#0A1931" stroke-linecap="round" stroke-linejoin="round"/>
<path d="M114.29 58.0029L112.317 63.8663L113.864 65.5847" stroke="#0A1931" stroke-linecap="round" stroke-linejoin="round"/>
<path d="M116.117 74.0622C116.117 74.0622 115.463 72.2917 118.589 72.4167C121.714 72.5417 124.04 73.5727 124.819 74.4996" stroke="#0A1931" stroke-linecap="round" stroke-linejoin="round"/>
<path d="M129.501 111.512C129.501 111.512 127.913 131.04 128.723 139.1" stroke="#0A1931" stroke-linecap="round" stroke-linejoin="round"/>
<path d="M133.759 111.742C133.437 111.815 135.223 131.31 137.362 135.372" stroke="#0A1931" stroke-linecap="round" stroke-linejoin="round"/>
<path d="M89.2659 78.1758C95.6725 77.1343 99.6493 68.8028 98.2579 59.4297C96.8666 50.0567 90.4392 43.2665 84.0327 44.235C77.6262 45.2036 73.6493 53.6081 75.0407 62.9811C76.4321 72.3541 82.849 79.1652 89.2659 78.1758Z" stroke="#0A1931" stroke-linecap="round" stroke-linejoin="round"/>
<path d="M88.9647 76.2387C94.3018 75.4056 97.5933 68.0113 96.3162 59.7005C95.039 51.3898 89.6916 45.3494 84.3338 46.1722C78.9759 46.9949 75.6948 54.3996 76.9823 62.6999C78.2699 71.0002 83.6277 77.0615 88.9647 76.2387Z" fill="white" stroke="#0A1931" stroke-linecap="round" stroke-linejoin="round"/>
<path d="M82.4855 108.878C84.3426 108.738 86.2095 108.808 88.051 109.086C89.5301 109.219 90.9379 109.784 92.1005 110.711C92.5159 111.096 93.1389 111.752 92.9104 112.471C92.682 113.189 91.4568 112.7 90.9688 112.575C89.194 112.136 87.3577 112.002 85.5383 112.179C84.853 112.242 84.853 113.304 85.5383 113.221C87.275 113.028 89.0318 113.141 90.7299 113.554C91.8825 113.835 93.5646 114.106 93.9176 112.512C94.2084 111.231 93.17 110.065 92.2148 109.388C91.0593 108.629 89.7445 108.147 88.3729 107.982C86.4132 107.666 84.4237 107.579 82.444 107.722C82.3241 107.746 82.2162 107.811 82.1387 107.906C82.0612 108.001 82.0188 108.12 82.0188 108.242C82.0188 108.365 82.0612 108.484 82.1387 108.579C82.2162 108.674 82.3241 108.739 82.444 108.763L82.4855 108.878Z" fill="#0A1931"/>
<path d="M82.9839 102.337L87.1373 103.379C88.5391 103.733 89.9927 104.014 91.3945 104.42C92.0557 104.659 92.6063 105.134 92.9416 105.753L94.1876 107.493C94.686 108.18 96.1708 109.95 94.8625 110.617C94.2603 110.929 94.7898 111.846 95.4025 111.533C95.6612 111.373 95.884 111.16 96.0566 110.908C96.2265 110.656 96.3463 110.373 96.4096 110.075C96.4669 109.776 96.4669 109.469 96.4096 109.169C96.3463 108.871 96.2265 108.589 96.0566 108.336C95.6432 107.628 95.1818 106.95 94.6756 106.305C94.2195 105.607 93.7237 104.936 93.1908 104.295C92.7168 103.766 92.0879 103.402 91.3945 103.254C90.5119 103.014 89.6189 102.806 88.726 102.577L83.2643 101.275C83.1388 101.269 83.015 101.306 82.9133 101.38C82.8117 101.454 82.7384 101.561 82.7057 101.683C82.6729 101.804 82.6827 101.933 82.7333 102.049C82.7839 102.164 82.8724 102.259 82.9839 102.317V102.337Z" fill="#0A1931"/>
<path d="M84.2507 96.7239C85.9432 96.9426 87.6357 97.1093 89.3178 97.3905C90.7562 97.579 92.0885 98.2508 93.0973 99.2963C93.9801 100.305 94.7272 101.425 95.3193 102.629C95.8489 103.67 96.6796 105.93 94.8625 106.201C94.1979 106.295 94.4783 107.315 95.1532 107.243C96.7523 107.013 97.2299 105.16 96.9392 103.806C96.6766 102.95 96.2993 102.133 95.8178 101.379C95.4106 100.653 94.9526 99.9572 94.4471 99.2963C93.4284 97.9182 91.9577 96.9446 90.2938 96.5469C88.321 96.0886 86.2235 95.9637 84.2195 95.7033C83.5446 95.6096 83.555 96.6823 84.2195 96.7448L84.2507 96.7239Z" fill="#0A1931"/>
<path d="M92.3602 86.4553C92.8652 86.4022 93.3751 86.4886 93.8346 86.7053C94.2993 86.9388 94.6882 87.3 94.956 87.7467C95.1324 88.1838 95.2782 88.6327 95.3921 89.0902C95.5271 89.486 95.6829 89.8817 95.8386 90.2566C96.6365 91.8687 97.2597 93.5621 97.6972 95.3076C97.8114 95.9846 98.8394 95.7034 98.7356 95.0369C98.2321 93.1008 97.5364 91.2203 96.6589 89.4235C96.4234 88.4168 96.0234 87.4561 95.4752 86.5803C95.0637 86.1865 94.576 85.8817 94.0423 85.6847C93.508 85.4873 92.939 85.4022 92.3706 85.4347C92.2506 85.4589 92.1427 85.524 92.0652 85.6189C91.9877 85.7138 91.9454 85.8328 91.9454 85.9554C91.9454 86.0781 91.9877 86.1971 92.0652 86.292C92.1427 86.3869 92.2506 86.452 92.3706 86.4762L92.3602 86.4553Z" fill="#0A1931"/>
<path d="M82.1221 94.4015C81.3735 94.2991 80.6134 94.473 79.9831 94.891C79.3568 95.3102 78.9031 95.9429 78.706 96.6718C78.166 98.411 79.1317 100.182 80.2531 101.452V100.692C79.7306 101.15 79.3118 101.715 79.0249 102.35C78.738 102.984 78.5896 103.672 78.5896 104.368C78.5896 105.064 78.738 105.753 79.0249 106.387C79.3118 107.021 79.7306 107.586 80.2531 108.044V107.284C78.9033 108.523 77.4807 110.284 78.5502 112.158C79.6197 114.033 81.7379 114.783 83.3993 115.678C84.3656 116.173 85.2745 116.774 86.1093 117.47C86.9192 118.188 87.6357 119 88.4664 119.698C89.8731 121.038 91.7195 121.816 93.658 121.885C94.5839 121.865 95.4833 121.572 96.2435 121.042C97.003 120.516 97.5858 119.771 97.9152 118.907C98.1229 118.261 97.1053 117.969 96.8769 118.626C96.2539 120.5 93.9903 121.115 92.2459 120.708C89.9408 120.115 88.4871 118.271 86.7946 116.751C85.1021 115.23 83.1085 114.533 81.2914 113.366C80.4192 112.814 79.2148 112.023 79.1629 110.877C79.1109 109.732 80.2012 108.794 80.9384 108.086C80.9859 108.034 81.0245 107.974 81.0526 107.909C81.0682 107.84 81.0682 107.769 81.0526 107.701C81.0673 107.636 81.0673 107.568 81.0526 107.503C81.0245 107.438 80.9859 107.378 80.9384 107.326C80.5017 106.973 80.1473 106.529 79.9001 106.024C79.6673 105.518 79.5467 104.967 79.5467 104.41C79.5467 103.852 79.6673 103.302 79.9001 102.796C80.1473 102.291 80.5017 101.846 80.9384 101.494C80.9859 101.441 81.0245 101.382 81.0526 101.317C81.0682 101.248 81.0682 101.177 81.0526 101.108C81.0681 101.043 81.0681 100.976 81.0526 100.911C81.027 100.844 80.9881 100.784 80.9384 100.733C80.4948 100.306 80.144 99.7911 79.9082 99.2212C79.6723 98.6513 79.5564 98.0386 79.5678 97.4217C79.6197 96.8787 79.8759 96.376 80.2843 96.0157C80.6946 95.651 81.2321 95.4638 81.7795 95.495C82.444 95.6096 82.7347 94.5785 82.0494 94.4535L82.1221 94.4015Z" fill="#0A1931"/>
<path d="M81.9872 94.2141C81.7899 94.0683 81.4472 93.8184 81.3849 93.5788C81.3226 93.3393 81.4888 93.1206 81.738 92.9436C82.2467 92.5582 82.7763 92.1937 83.3059 91.8188C84.2404 91.1419 85.1749 90.4545 86.1197 89.7359C86.3176 89.5466 86.5554 89.4042 86.8154 89.3193C87.0751 89.228 87.3511 89.1926 87.6253 89.2152C88.1621 89.3942 88.6748 89.639 89.1517 89.9442C90.1856 90.4545 91.1908 91.0212 92.1629 91.6417C93.2012 92.2666 94.0526 92.8082 94.9768 93.433C95.9647 93.9486 96.8402 94.6567 97.5518 95.5159C98.5902 97.3697 93.7827 96.9427 92.9832 96.8073C90.7858 96.4248 88.7391 95.4327 87.075 93.9433C86.5766 93.4851 85.8186 94.2245 86.3378 94.6828C88.2486 96.4108 90.6321 97.5245 93.1804 97.88C94.7587 98.0987 98.8705 98.4424 98.7771 95.9013C98.7771 94.6724 97.5103 93.8809 96.7004 93.256C95.4267 92.3395 94.1184 91.4821 92.7755 90.6836C91.5151 89.9209 90.2154 89.2256 88.8817 88.6007C88.3823 88.2957 87.8048 88.1436 87.2204 88.1633C86.5278 88.2921 85.8823 88.605 85.3514 89.0694C83.9081 90.1108 82.4233 91.1523 81.0111 92.1937C79.7755 93.1414 80.5023 94.2766 81.5199 95.1098C82.0702 95.5263 82.5583 94.5995 82.0599 94.1933L81.9872 94.2141Z" fill="#0A1931"/>
<path d="M118.817 82.2063C116.56 82.8242 114.328 83.5185 112.12 84.2892C110.2 84.9182 108.338 85.7126 106.554 86.6637C104.94 87.6014 103.526 88.851 102.396 90.3401C101.266 91.8291 100.442 93.5282 99.9711 95.3389C99.3943 97.4384 98.9607 99.5749 98.6732 101.733C98.5693 102.41 99.5869 102.692 99.7115 102.015C100.251 98.5154 100.75 94.8495 102.702 91.798C104.779 88.4133 108.361 86.8512 111.943 85.5493C114.304 84.7023 116.688 83.9525 119.097 83.2998C119.24 83.2601 119.363 83.167 119.44 83.0395C119.468 82.9736 119.482 82.9028 119.482 82.8312C119.482 82.7596 119.468 82.6887 119.44 82.6229C119.423 82.5534 119.392 82.488 119.349 82.4307C119.306 82.3735 119.253 82.3255 119.191 82.2896C119.065 82.2176 118.917 82.1953 118.775 82.2271L118.817 82.2063Z" fill="#0A1931"/>
<path d="M108.974 55.3683C109.263 55.3683 109.546 55.2822 109.787 55.1208C110.028 54.9595 110.215 54.7301 110.326 54.4618C110.437 54.1935 110.466 53.8982 110.409 53.6134C110.353 53.3285 110.214 53.0669 110.009 52.8615C109.804 52.6561 109.543 52.5163 109.259 52.4596C108.975 52.403 108.681 52.432 108.413 52.5432C108.146 52.6543 107.917 52.8425 107.756 53.084C107.595 53.3255 107.509 53.6094 107.509 53.8998C107.512 54.2885 107.667 54.6604 107.941 54.9352C108.215 55.21 108.586 55.3656 108.974 55.3683Z" fill="#0A1931"/>
<path d="M124.632 55.3683C124.921 55.3683 125.204 55.2822 125.445 55.1208C125.686 54.9595 125.873 54.7301 125.984 54.4618C126.095 54.1935 126.124 53.8982 126.068 53.6134C126.011 53.3285 125.872 53.0669 125.667 52.8615C125.462 52.6561 125.201 52.5163 124.917 52.4596C124.633 52.403 124.339 52.432 124.071 52.5432C123.804 52.6543 123.575 52.8425 123.414 53.084C123.254 53.3255 123.168 53.6094 123.168 53.8998C123.17 54.2885 123.325 54.6604 123.599 54.9352C123.873 55.21 124.244 55.3656 124.632 55.3683Z" fill="#0A1931"/>
<path d="M92.3083 81.6647C92.2979 81.598 92.2741 81.5341 92.2385 81.4768C92.2028 81.4195 92.1559 81.3701 92.1006 81.3315C91.9899 81.2506 91.8518 81.2169 91.7164 81.2377L91.2595 81.3106L90.73 77.9468C90.7199 77.8794 90.6965 77.8146 90.6611 77.7565C90.6257 77.6983 90.5791 77.6478 90.5239 77.608C90.4687 77.5682 90.4062 77.5399 90.3399 77.5247C90.2737 77.5096 90.2051 77.5079 90.1381 77.5198L88.2068 77.8114C88.1393 77.8215 88.0744 77.845 88.0159 77.8803C87.9574 77.9157 87.9065 77.9623 87.866 78.0174C87.8255 78.0726 87.7962 78.1352 87.7799 78.2017C87.7635 78.2682 87.7604 78.3373 87.7707 78.405L88.2899 81.7689L87.833 81.8418C87.7658 81.8519 87.7013 81.8753 87.6433 81.9108C87.5853 81.9464 87.535 81.9932 87.4953 82.0485C87.4556 82.1038 87.4274 82.1666 87.4123 82.233C87.3971 82.2995 87.3955 82.3683 87.4073 82.4354L88.4456 89.3923C88.4557 89.4751 88.4868 89.5541 88.5359 89.6215C88.5849 89.689 88.6504 89.7427 88.726 89.7776L93.0143 91.923C93.0932 91.9387 93.1743 91.9387 93.2532 91.923C93.3624 91.9238 93.4687 91.8871 93.5543 91.8188C93.6322 91.7635 93.6929 91.6872 93.7297 91.5988C93.7664 91.5104 93.7776 91.4134 93.7619 91.3189L92.3083 81.6647Z" fill="#0A1931"/>
<path d="M159.395 46.7241C159.359 46.5926 159.274 46.4805 159.156 46.4117H159.021C159.012 46.3375 158.979 46.2682 158.928 46.2138C158.943 46.1593 158.943 46.1017 158.928 46.0472C159.083 45.8176 159.188 45.5585 159.238 45.2861C159.288 45.0137 159.282 44.7339 159.219 44.4642C158.34 40.7358 157.301 37.0491 156.104 33.404C155.522 31.6648 154.92 29.936 154.266 28.1968C153.612 26.4576 153.051 24.9683 151.452 24.031C151.301 23.8238 151.127 23.635 150.933 23.4686C150.623 23.226 150.271 23.0424 149.894 22.9271C149.564 22.6239 149.217 22.3388 148.856 22.0731C148.675 21.9509 148.469 21.8693 148.254 21.8336C148.133 21.7457 148 21.6756 147.859 21.6253C147.587 21.5382 147.304 21.4857 147.018 21.469C143.841 17.3033 139.594 13.6478 134.34 12.6376C130.974 12.1273 127.551 12.1273 124.185 12.6376C120.724 12.9744 117.348 13.9117 114.207 15.4078C114.134 15.4078 114.072 15.4911 114.01 15.5224C112.54 16.0716 111.194 16.9109 110.053 17.9906C109.781 18.2324 109.583 18.5466 109.482 18.8967C108.444 19.6465 107.52 20.4172 106.575 21.2087C105.35 21.7243 104.211 22.4269 103.2 23.2916C103.076 23.3962 102.965 23.515 102.868 23.6457L101.508 24.5413C100.695 24.988 99.9176 25.4963 99.182 26.0618L97.7076 26.4367C97.3588 26.5258 97.0422 26.7118 96.7942 26.9735C96.5462 27.2351 96.3769 27.5617 96.3059 27.9156H95.849C95.7357 27.9179 95.6262 27.9566 95.5365 28.026C95.4468 28.0953 95.3816 28.1917 95.3506 28.3009C95.3213 28.411 95.3288 28.5276 95.372 28.6329C95.4151 28.7382 95.4915 28.8265 95.5894 28.8841C95.8374 29.0045 96.0943 29.1055 96.3578 29.1862C96.457 29.4953 96.6329 29.7741 96.869 29.9964C97.1051 30.2186 97.3937 30.377 97.7076 30.4567L98.3514 30.6338C98.4563 30.7322 98.5711 30.8195 98.694 30.8941C99.1405 31.1233 99.5558 31.3524 99.9712 31.5294C99.8673 31.8835 99.7739 32.2307 99.6908 32.5709C99.1729 33.1905 98.7654 33.8951 98.4864 34.6538C97.9853 35.6368 97.6352 36.6901 97.448 37.7781C96.7167 38.3438 96.2179 39.1591 96.0463 40.0693C95.9673 40.5365 96.0213 41.0166 96.202 41.4544C96.1318 41.8017 96.1569 42.1617 96.2747 42.4958C95.915 42.7033 95.6229 43.0108 95.4336 43.3811C95.3945 43.4507 95.3714 43.5283 95.3663 43.608C95.3612 43.6878 95.3741 43.7677 95.404 43.8418C95.4339 43.9159 95.4802 43.9822 95.5392 44.0359C95.5983 44.0896 95.6687 44.1292 95.7451 44.1517L96.1605 44.2038C96.225 44.2359 96.2961 44.2526 96.3682 44.2526C96.4402 44.2526 96.5113 44.2359 96.5758 44.2038H96.7212C97.1664 44.1528 97.5989 44.0223 97.9983 43.8185L98.0606 43.7664C98.3595 43.7883 98.6597 43.7493 98.9432 43.6518C99.1349 43.9956 99.3686 44.3139 99.6389 44.5996C99.6918 44.6445 99.7472 44.6862 99.805 44.7245C99.9296 45.8389 100.791 46.6825 101.02 47.7551C100.967 47.834 100.935 47.9248 100.926 48.0193C100.917 48.1139 100.931 48.2092 100.968 48.2967L102.65 52.1917C102.64 52.2503 102.64 52.3102 102.65 52.3688C102.681 52.4637 102.734 52.5496 102.806 52.6187L103.107 53.2956C103.315 53.7955 104.062 53.5143 104.073 53.0353C104.071 52.7727 104.025 52.5122 103.938 52.2646C103.974 52.2298 104.003 52.1871 104.021 52.1396C104.112 52.0873 104.183 52.0047 104.221 51.906C104.259 51.8073 104.261 51.6985 104.228 51.5981C104.156 51.4002 104.073 51.2023 103.99 51.0149C104.055 50.9384 104.097 50.8438 104.108 50.7434C104.119 50.643 104.099 50.5416 104.052 50.4525C103.831 50.0484 103.644 49.627 103.491 49.1923C103.53 49.1332 103.556 49.0663 103.567 48.9961C103.578 48.926 103.573 48.8544 103.553 48.7862C103.429 48.2655 103.335 47.7447 103.221 47.224C103.107 46.7033 103.034 46.1097 102.972 45.5473C102.91 44.9849 102.972 44.6725 102.879 44.2455C103.034 44.0435 103.14 43.8082 103.19 43.5581C103.563 43.4752 103.916 43.3195 104.228 43.0999C104.675 42.7979 104.934 42.3396 105.339 42.0064C105.415 41.9483 105.495 41.8961 105.578 41.8501L106.866 41.3503L107.51 41.1524C107.712 41.0862 107.904 40.9915 108.081 40.8712C111.196 39.6527 114.238 38.3613 117.301 37.0387C117.298 37.0594 117.298 37.0804 117.301 37.1012C117.187 37.2984 117.107 37.513 117.062 37.7364C117.027 37.8735 117.046 38.0189 117.114 38.1426C117.173 38.2266 117.251 38.2947 117.343 38.3405L117.062 39.0174L116.564 39.7464C116.526 39.8171 116.505 39.8954 116.502 39.9755C116.448 40.0595 116.419 40.157 116.419 40.2567C116.419 40.3564 116.448 40.454 116.502 40.5379C116.546 40.6141 116.606 40.6803 116.678 40.7322C116.749 40.7842 116.831 40.8208 116.917 40.8399C117.053 40.8762 117.196 40.8762 117.332 40.8399C117.55 40.7775 117.758 40.6629 117.976 40.5796L119.326 40.0276C119.399 39.9948 119.466 39.9489 119.523 39.8922C119.734 39.9058 119.946 39.8775 120.146 39.8089L133.188 35.3307C133.263 35.6423 133.416 35.9293 133.634 36.1639C134.029 36.6013 134.413 37.0595 134.807 37.5073C134.859 37.6428 134.925 37.772 135.005 37.8927C135.97 39.4132 136.915 40.9545 137.87 42.4854L139.947 46.3909C139.821 46.6725 139.765 46.9806 139.783 47.2889C139.801 47.5971 139.893 47.8964 140.051 48.1613C140.946 49.6547 141.74 51.2064 142.429 52.8062C142.593 53.2049 142.845 53.561 143.166 53.8476V53.9518C143.095 54.0193 143.044 54.1061 143.021 54.2017C143.016 54.2502 143.016 54.299 143.021 54.3475C143.003 54.4193 143.003 54.4944 143.021 54.5662C143.048 54.6286 143.087 54.6851 143.135 54.7328C143.199 54.8009 143.282 54.8481 143.374 54.8682C143.441 54.8966 143.513 54.9112 143.587 54.9112C143.66 54.9112 143.732 54.8966 143.799 54.8682C143.91 54.808 143.998 54.7128 144.049 54.5975L144.142 54.3787C144.384 54.4507 144.639 54.4637 144.886 54.4166C145.134 54.3695 145.366 54.2637 145.565 54.108C145.772 53.9518 146.053 53.6706 146.333 53.431C146.551 53.6359 146.81 53.7913 147.093 53.8866C147.376 53.9818 147.677 54.0147 147.974 53.983C148.019 54.26 148.111 54.5274 148.243 54.7745C148.275 54.8387 148.31 54.9013 148.347 54.962L148.472 55.2952C148.47 55.3264 148.47 55.3577 148.472 55.389C148.487 55.5761 148.487 55.7642 148.472 55.9513C148.455 56.4231 148.623 56.8827 148.939 57.2323C148.983 57.6159 149.138 57.978 149.386 58.2738L148.586 61.7522C148.562 61.8452 148.566 61.9432 148.598 62.034C148.629 62.1247 148.687 62.2042 148.763 62.2625C148.243 63.1165 147.724 63.9705 147.267 64.8453C145.918 65.4883 144.646 66.2851 143.478 67.2198C143.425 67.2638 143.385 67.3214 143.363 67.3864C143.146 67.4021 142.927 67.4021 142.709 67.3864C142.617 67.3015 142.497 67.2544 142.372 67.2544C142.247 67.2544 142.126 67.3015 142.034 67.3864C141.958 67.4063 141.888 67.4435 141.829 67.4951C141.77 67.5467 141.723 67.6113 141.693 67.6839C141.663 67.7565 141.65 67.8351 141.655 67.9135C141.66 67.992 141.683 68.0682 141.723 68.1363C141.723 68.1363 141.723 68.2196 141.795 68.2716C141.826 68.6767 141.95 69.069 142.159 69.4172C142.157 69.5563 142.21 69.6905 142.304 69.7922C142.457 69.9419 142.599 70.1019 142.73 70.2712C142.802 70.3643 142.867 70.4616 142.927 70.5628C142.949 70.6733 143.004 70.7747 143.083 70.8544L143.228 70.969C143.322 71.015 143.425 71.0399 143.529 71.0419C143.62 71.0457 143.709 71.0244 143.788 70.9803C143.867 70.9361 143.932 70.8709 143.976 70.7919C144.001 70.7309 144.014 70.6654 144.014 70.5993C144.014 70.5331 144.001 70.4676 143.976 70.4066L144.952 69.7088C145.01 69.6728 145.061 69.6254 145.1 69.5693C145.14 69.5133 145.168 69.4499 145.182 69.3828C145.197 69.3157 145.198 69.2463 145.185 69.1789C145.172 69.1114 145.146 69.0473 145.108 68.9902C145.2 68.972 145.284 68.9246 145.347 68.8548C145.554 68.6257 145.772 68.407 145.99 68.1883C146.107 68.2518 146.244 68.2688 146.373 68.236C146.501 68.2032 146.613 68.123 146.686 68.0113L147.724 66.5637C147.767 66.4988 147.79 66.4228 147.79 66.345C147.79 66.2672 147.767 66.1911 147.724 66.1263C147.724 66.0429 147.818 65.9596 147.87 65.8867C148.005 65.89 148.137 65.8458 148.243 65.7618C149.202 65.0587 149.973 64.1284 150.486 63.054C150.542 62.9172 150.542 62.7638 150.486 62.627C150.573 62.6642 150.67 62.6722 150.761 62.6497C150.853 62.6271 150.935 62.5753 150.995 62.502C151.599 61.7448 152.148 60.9442 152.636 60.1067C152.695 60.0099 152.719 59.8948 152.702 59.7822C152.685 59.6696 152.628 59.5668 152.542 59.4922C152.791 59.0757 153.02 58.6487 153.29 58.2425C153.357 58.1371 153.381 58.0095 153.356 57.8869C153.33 57.7642 153.258 57.6564 153.155 57.5864C153.534 56.9599 153.814 56.2784 153.985 55.566C154.339 54.3163 154.66 53.0561 154.962 51.796C155.319 50.481 155.517 49.1279 155.553 47.7656C155.545 47.4486 155.521 47.1323 155.481 46.8178C155.588 46.7906 155.693 46.7522 155.792 46.7033C156.003 46.8826 156.253 47.0091 156.522 47.0725C156.791 47.1359 157.071 47.1343 157.339 47.0678C157.339 47.0678 157.339 47.0678 157.339 47.1407C157.414 47.2532 157.523 47.3375 157.651 47.3802C157.71 47.3861 157.769 47.3861 157.827 47.3802C157.886 47.3905 157.945 47.3905 158.004 47.3802H158.232C158.28 47.4129 158.333 47.4375 158.388 47.4531C158.584 47.5128 158.794 47.5128 158.99 47.4531C159.12 47.4153 159.232 47.3298 159.302 47.2136C159.357 47.1464 159.394 47.0663 159.411 46.9808C159.427 46.8953 159.422 46.807 159.395 46.7241Z" fill="#0A1931"/>
<path d="M136.676 135.008C136.552 134.529 136.386 133.404 136.323 133.164L135.7 130.696C135.645 130.485 135.55 130.287 135.42 130.113C135.316 129.071 135.192 127.926 135.036 126.832C135.036 126.697 135.036 126.551 135.036 126.416C134.999 126.172 134.899 125.942 134.745 125.749C134.694 123.968 134.513 122.193 134.205 120.438C134.168 120.225 134.079 120.024 133.946 119.855C133.979 118.652 133.944 117.449 133.842 116.251C133.788 114.917 133.625 113.59 133.354 112.283H133.821C133.938 112.282 134.051 112.242 134.143 112.169C134.235 112.098 134.3 111.999 134.33 111.888L135.825 104.597C135.844 104.503 135.838 104.406 135.808 104.314C135.778 104.223 135.724 104.141 135.653 104.077C135.582 104.013 135.495 103.969 135.401 103.949C135.307 103.928 135.21 103.933 135.119 103.962C135.031 103.935 134.937 103.935 134.849 103.962C134.319 102.494 132.845 101.359 132.648 99.7963C132.624 99.66 132.554 99.536 132.45 99.445C132.346 99.354 132.214 99.3015 132.077 99.2964C131.952 99.0882 131.838 98.8903 131.703 98.6924C131.656 98.627 131.595 98.5726 131.525 98.5332C131.455 98.4939 131.377 98.4704 131.297 98.4644C131.217 98.4584 131.136 98.4702 131.061 98.4988C130.986 98.5274 130.918 98.5721 130.862 98.6299C130.77 98.648 130.685 98.6904 130.616 98.7527C130.547 98.815 130.495 98.8949 130.467 98.984C130.467 99.1402 130.405 99.286 130.374 99.4318L130.062 100.057C129.958 100.034 129.85 100.045 129.753 100.088C129.656 100.131 129.575 100.204 129.522 100.296C129.398 100.546 129.283 100.796 129.169 101.056C128.373 102.095 127.765 103.265 127.373 104.514C127.335 104.626 127.34 104.749 127.388 104.857C127.436 104.965 127.524 105.051 127.632 105.097C127.529 105.306 127.446 105.503 127.342 105.701C127.242 105.691 127.141 105.707 127.05 105.748C126.959 105.789 126.879 105.853 126.82 105.934C126.762 106.015 126.725 106.111 126.714 106.211C126.704 106.31 126.72 106.411 126.76 106.503L129.076 111.835C129.122 111.915 129.191 111.98 129.273 112.023C129.187 112.363 129.149 112.714 129.159 113.064C129.255 114.023 129.286 114.987 129.252 115.949C129.094 116.092 128.972 116.27 128.894 116.469C128.817 116.668 128.786 116.882 128.806 117.095V117.803C128.82 117.888 128.841 117.971 128.868 118.053C128.868 118.178 128.868 118.313 128.868 118.438C128.824 118.843 128.874 119.253 129.013 119.636C129.035 119.688 129.063 119.737 129.096 119.782L129.159 120.136C128.787 122.812 128.658 125.517 128.775 128.217C128.784 128.451 128.836 128.681 128.93 128.894C128.837 129.478 128.775 130.061 128.733 130.644C128.733 130.644 128.733 130.852 128.733 130.956C128.728 131.047 128.728 131.137 128.733 131.227C128.639 132.872 128.66 134.522 128.795 136.164C128.78 136.281 128.78 136.4 128.795 136.518C128.881 139.062 129.445 141.567 130.457 143.902C130.574 144.183 130.793 144.409 131.069 144.537C131.163 144.689 131.274 144.829 131.402 144.953C131.478 145.203 131.622 145.426 131.817 145.599C131.84 145.838 131.882 146.075 131.942 146.307C132.004 146.549 132.138 146.767 132.326 146.932C132.327 147.659 132.552 148.368 132.969 148.963C133.027 149.061 133.115 149.137 133.22 149.18C133.325 149.222 133.441 149.23 133.551 149.2C133.66 149.171 133.757 149.106 133.826 149.016C133.896 148.926 133.934 148.816 133.935 148.703C133.935 148.588 133.935 148.474 133.935 148.359C134.049 148.311 134.141 148.223 134.197 148.113C134.252 148.002 134.266 147.875 134.236 147.755C134.236 147.609 134.122 147.463 134.07 147.318C134.302 147.249 134.509 147.113 134.666 146.929C134.823 146.744 134.922 146.517 134.953 146.276L135.015 145.922C135.056 145.649 135.031 145.371 134.942 145.11C135.062 144.816 135.118 144.5 135.108 144.183C135.108 144.183 135.108 144.12 135.108 144.089C135.118 143.961 135.118 143.832 135.108 143.704C135.358 143.11 135.607 142.506 135.846 141.912C135.923 141.75 135.963 141.572 135.963 141.392C135.963 141.211 135.923 141.034 135.846 140.871C135.826 140.793 135.802 140.717 135.773 140.642C136.352 139.346 136.844 138.014 137.247 136.653C137.307 136.353 137.286 136.042 137.185 135.752C137.085 135.463 136.909 135.206 136.676 135.008Z" fill="#0A1931"/>
</svg>
