<svg width="222" height="220" viewBox="0 0 222 220" fill="none" xmlns="http://www.w3.org/2000/svg">
<path d="M125.627 139.773C125.674 139.441 125.599 139.103 125.415 138.823L125.161 138.438C124.996 137.107 124.957 135.762 125.045 134.423C125.051 132.478 124.754 130.543 124.167 128.689C123.529 126.832 123.207 124.879 123.215 122.913C123.305 121.321 123.148 119.725 122.749 118.182C122.856 117.976 122.894 117.74 122.855 117.51C122.337 115.278 121.892 113.046 121.49 110.804C121.561 108.397 121.359 105.989 120.887 103.629C120.897 103.565 120.897 103.5 120.887 103.436C120.887 101.137 120.835 98.8414 120.729 96.5492C120.724 96.5138 120.724 96.4778 120.729 96.4424C120.729 96.4424 120.729 96.357 120.729 96.3036C120.729 95.5134 120.729 94.7126 120.803 93.9224C120.803 93.4419 120.803 92.9614 120.803 92.4916C121.205 91.0394 121.564 89.5765 121.861 88.0923C121.894 87.9692 121.88 87.8376 121.822 87.7245C121.763 87.6114 121.663 87.5253 121.543 87.4837L121.723 87.2595C121.914 87.1506 122.112 87.0543 122.316 86.9712C122.95 86.7362 122.675 85.7005 122.03 85.9034C121.918 85.9504 121.808 86.0039 121.702 86.0635C121.614 86.031 121.519 86.0259 121.429 86.0487C121.338 86.0716 121.256 86.1214 121.194 86.1917C121.131 86.2557 121.078 86.3305 121.014 86.4052C120.373 86.8285 119.826 87.3811 119.406 88.0283C119.267 88.0014 119.123 88.0014 118.983 88.0283C118.772 88.0278 118.566 88.091 118.391 88.2098L118.126 88.4233C117.92 88.4188 117.715 88.4551 117.523 88.5301C111.881 90.7298 106.207 92.8653 100.502 94.9368C99.3074 95.2501 98.1482 95.6866 97.0424 96.2395C96.7562 96.3759 96.5275 96.6105 96.3971 96.9015C95.1877 97.1527 94.0266 97.5998 92.9589 98.2256L92.7791 98.3537C92.4934 98.3537 92.2184 98.4605 91.9327 98.4925C91.6042 98.5222 91.2921 98.6512 91.0374 98.8626C90.7826 99.0741 90.5969 99.3582 90.5046 99.6778C87.8069 100.746 86.1249 103.127 85.2151 105.988C85.0111 106.79 84.7312 107.569 84.3793 108.316C83.935 109.16 83.1839 109.736 82.6867 110.548C82.0202 111.616 81.5019 112.683 80.8248 113.666C80.3805 114.178 79.9467 114.734 79.513 115.214C79.318 115.425 79.1835 115.685 79.1239 115.968C79.0643 116.25 79.0817 116.543 79.1745 116.816C78.7276 117.391 78.3445 118.014 78.0319 118.674L77.9579 118.77C77.905 118.898 77.8309 119.015 77.7781 119.154C77.706 119.334 77.6666 119.526 77.6617 119.72C76.1037 122.178 74.8059 124.794 73.7898 127.526C72.6457 128.945 71.7512 130.552 71.145 132.277L70.3516 134.413C70.0342 135 69.7275 135.587 69.4418 136.185C69.2063 136.33 69.01 136.532 68.8706 136.773C68.5003 137.424 68.1618 138.086 67.8127 138.748C67.5313 138.868 67.297 139.078 67.1462 139.346L65.6969 142.069C65.4131 142.194 65.1734 142.402 65.0092 142.667C64.4485 143.564 63.9513 144.482 63.4012 145.411C63.1196 145.468 62.8615 145.609 62.6607 145.817C61.6044 146.93 60.79 148.254 60.2698 149.703C59.4093 150.721 58.6968 151.857 58.154 153.078C58.1248 153.14 58.1001 153.204 58.08 153.27C57.1015 154.765 56.2924 156.366 55.668 158.043C54.3316 160.159 53.3488 162.482 52.7588 164.919C52.5895 165.645 52.3991 166.478 52.2616 167.354C51.2037 169.692 52.4414 172.373 53.5628 174.508C53.6165 174.611 53.6765 174.711 53.7426 174.807C53.7318 175.327 53.8266 175.843 54.0213 176.324C54.216 176.805 54.5064 177.241 54.8746 177.605C55.2933 177.937 55.7433 178.226 56.2181 178.47C56.4191 178.715 56.6095 178.961 56.8211 179.196C56.9338 179.426 57.08 179.639 57.2548 179.826C57.477 180.061 57.7097 180.285 57.953 180.509C57.9409 180.892 58.0201 181.272 58.1839 181.618C58.3478 181.964 58.5915 182.264 58.8946 182.495C61.5626 184.308 64.4633 185.745 67.5164 186.766L67.6751 186.884C68.4498 187.479 69.2706 188.011 70.1295 188.475C70.9711 188.864 71.8503 189.165 72.753 189.372C73.4301 189.553 74.1071 189.767 74.763 190.002C74.8335 190.047 74.913 190.076 74.9958 190.087L75.6305 190.311C76.2018 190.546 76.5297 189.649 76.0431 189.34L74.2129 188.197C74.2129 188.197 74.2129 188.197 74.2129 188.144C73.8956 187.717 73.5782 187.289 73.2503 186.873C73.2012 186.8 73.135 186.74 73.0574 186.699C72.9799 186.658 72.8935 186.637 72.8059 186.638L72.4886 186.307C72.6259 185.704 72.5314 185.07 72.2241 184.535C72.0524 184.237 71.8176 183.982 71.5365 183.787C71.5526 183.663 71.5526 183.537 71.5365 183.413C71.473 182.901 71.4095 182.346 71.3566 181.78C71.4757 180.55 71.9176 179.374 72.6367 178.373C73.2027 177.739 73.6993 177.044 74.1177 176.302C74.3215 175.967 74.3932 175.567 74.3187 175.181C74.5717 175.071 74.8071 174.923 75.0169 174.743L75.1968 174.626C75.7656 174.525 76.3248 174.375 76.8683 174.177C77.3935 173.905 77.8355 173.495 78.1468 172.989C78.458 172.482 78.6268 171.9 78.635 171.305C78.7302 170.098 78.8465 169.169 79.9891 168.486C81.0681 167.973 82.245 167.703 83.4378 167.696C83.8587 167.696 84.2623 167.527 84.5599 167.226C84.8575 166.926 85.0247 166.519 85.0247 166.094C85.0247 165.669 84.8575 165.262 84.5599 164.961C84.2623 164.661 83.8587 164.492 83.4378 164.492C82.601 164.398 81.7972 164.109 81.0893 163.649C81.0826 163.506 81.054 163.366 81.0046 163.232C81.314 163.216 81.6084 163.092 81.8378 162.882C82.0672 162.672 82.2176 162.388 82.2635 162.079C82.332 161.765 82.4168 161.455 82.5174 161.15L82.7713 160.776L83.8821 159.495C84.1244 159.225 84.2762 158.885 84.3159 158.523C84.3979 158.388 84.4585 158.24 84.4957 158.086C84.739 157.893 84.9823 157.68 85.2362 157.488C85.6255 157.211 85.8944 156.795 85.9873 156.324C86.5586 155.886 87.151 155.469 87.7435 155.074C88.0871 154.856 88.3346 154.512 88.435 154.115C88.5354 153.718 88.481 153.297 88.283 152.939C88.58 152.394 88.7411 151.785 88.7521 151.164C88.7632 150.542 88.6239 149.927 88.3465 149.372V148.155C88.3527 147.969 88.3203 147.783 88.2512 147.611C88.2512 146.81 88.2512 146.02 88.2512 145.219C88.4137 144.57 88.4602 143.898 88.3888 143.233C88.3945 143.169 88.3945 143.104 88.3888 143.04C88.6114 142.92 88.7982 142.741 88.9301 142.524C89.0621 142.306 89.1345 142.057 89.1399 141.802C90.1978 141.514 91.372 141.289 92.504 141.108H92.6098C95.7769 141.455 98.9741 141.412 102.131 140.98C102.393 141.136 102.686 141.233 102.989 141.264C103.292 141.295 103.599 141.26 103.887 141.161C104.027 141.297 104.193 141.404 104.375 141.473C104.557 141.543 104.751 141.575 104.945 141.567C111.356 141.61 117.76 141.471 124.156 141.151H124.22C124.412 141.236 124.626 141.262 124.833 141.224C125.04 141.187 125.231 141.088 125.383 140.94C125.534 140.792 125.637 140.602 125.681 140.394C125.725 140.186 125.706 139.97 125.627 139.773Z" fill="#B7B7B7"/>
<path d="M143.072 139.314C142.934 138.556 142.765 137.808 142.585 137.072C142.891 135.707 142.917 134.293 142.659 132.918C142.332 130.301 141.855 127.706 141.231 125.144L141.072 116.079C141.072 115.863 141.027 115.65 140.94 115.453C140.852 115.256 140.724 115.08 140.564 114.936C140.564 114.21 140.628 113.495 140.628 112.801C141.359 111.305 141.835 109.695 142.035 108.039C142.257 105.561 139.919 104.184 138.322 102.7C138.235 102.516 138.117 102.35 137.973 102.208L137.549 101.877C137.228 101.689 136.863 101.59 136.491 101.589L135.931 101.664C135.782 101.705 135.64 101.766 135.508 101.845H135.402C135.137 101.93 134.899 102.085 134.714 102.294L134.386 102.721V102.774C132.721 103.89 131.237 105.259 129.985 106.832C129.826 107.016 129.709 107.233 129.642 107.468C129.574 107.703 129.558 107.95 129.594 108.191C129.63 108.433 129.718 108.664 129.851 108.868C129.985 109.072 130.16 109.245 130.366 109.373C130.345 109.572 130.345 109.772 130.366 109.971C130.392 110.334 130.46 110.692 130.567 111.039C130.806 111.755 131.2 112.407 131.72 112.95C131.862 113.111 132.04 113.235 132.239 113.313C131.792 115.058 131.551 116.85 131.519 118.652C131.35 120.66 131.188 122.667 131.033 124.675C131.027 124.731 131.027 124.789 131.033 124.845C130.842 126.362 130.705 127.878 130.62 129.394L130.493 130.163C130.379 130.328 130.306 130.519 130.282 130.718L129.721 134.178C129.662 134.502 129.699 134.836 129.827 135.139C129.827 135.748 129.71 136.356 129.657 136.965C129.558 137.737 129.558 138.52 129.657 139.293C129.192 140.36 130.123 142.037 131.498 141.524H131.625C131.887 141.515 132.142 141.438 132.366 141.3C132.77 141.19 133.179 141.1 133.593 141.033C133.852 141.227 134.17 141.325 134.492 141.311L138.036 141.151L139.559 141.086H140.617H140.681C140.952 141.257 141.267 141.341 141.586 141.329C141.905 141.317 142.213 141.208 142.471 141.017C142.728 140.826 142.923 140.562 143.03 140.259C143.137 139.955 143.152 139.626 143.072 139.314Z" fill="#0A1931"/>
<path d="M220.457 167.13C220.529 166.961 220.566 166.779 220.566 166.596C220.566 166.412 220.529 166.23 220.457 166.062C219.399 163.403 218.489 160.723 217.368 158.107C216.843 156.788 216.016 155.613 214.956 154.679C215 154.303 214.906 153.923 214.691 153.611C214.623 153.451 214.534 153.3 214.427 153.163L213.633 152.181C213.613 152.132 213.588 152.086 213.559 152.042C213.136 151.337 212.671 150.664 212.195 150.013C211.719 149.362 211.539 148.582 211.137 147.877C210.005 145.987 208.534 144.3 207.254 142.538C205.202 139.666 203.298 136.687 201.51 133.644C201.675 133.414 201.764 133.137 201.764 132.854C201.764 132.57 201.675 132.293 201.51 132.063C201.065 131.391 200.632 130.729 200.198 130.045C198.531 125.684 196.365 121.534 193.745 117.68C192.362 115.573 191.145 113.36 190.106 111.06C189.238 108.947 187.965 107.027 186.361 105.412C186.054 104.76 185.747 104.12 185.451 103.458C185.359 103.26 185.221 103.088 185.049 102.956C185.036 102.515 184.912 102.085 184.689 101.706C184.543 101.425 184.334 101.182 184.079 100.997C183.824 100.811 183.529 100.689 183.219 100.639C182.318 99.7564 181.188 99.1493 179.96 98.8874C179.484 98.5244 178.987 98.0118 178.617 97.8196C177.513 97.2855 176.375 96.8254 175.21 96.4422C172.915 95.3744 170.81 94.061 168.461 93.1214C166.811 92.4594 165.108 91.9255 163.404 91.4023C163.221 91.2362 163.004 91.1129 162.768 91.0409C162.532 90.9689 162.283 90.9501 162.04 90.9858L161.225 90.7402C158.982 90.0675 156.263 89.6725 154.296 88.327C154.128 88.0878 153.932 87.8692 153.714 87.6757C153.328 87.3623 152.869 87.1529 152.381 87.0671C152.381 87.0671 152.381 87.0671 152.381 87.003C152.341 86.9378 152.287 86.882 152.224 86.8391C152.161 86.7962 152.09 86.7673 152.015 86.7542C151.94 86.7411 151.863 86.7441 151.79 86.7631C151.716 86.782 151.647 86.8165 151.588 86.8642H151.524C151.367 86.7096 151.231 86.5335 151.122 86.341C151.045 86.2341 150.932 86.1598 150.803 86.1326C150.675 86.1053 150.542 86.127 150.428 86.1934C150.315 86.2599 150.23 86.3663 150.191 86.4922C150.151 86.6181 150.158 86.7544 150.212 86.8749C150.387 87.1883 150.612 87.4698 150.879 87.7077C150.782 88.4236 150.84 89.1521 151.048 89.8433C151.074 89.9458 151.133 90.0364 151.217 90.0996C151.182 90.508 151.27 90.9177 151.471 91.2741C151.352 91.5463 151.295 91.8417 151.302 92.139C151.302 93.6873 151.302 95.2356 151.376 96.7732C151.376 97.071 151.437 97.3656 151.556 97.6381C151.78 99.4585 151.625 101.306 151.101 103.062C150.605 105.03 150.359 107.054 150.371 109.085C150.371 110.419 150.583 111.754 150.688 113.089V113.591L149.546 120.467C148.98 122.391 148.577 124.359 148.34 126.351C148.218 127.771 148.168 129.197 148.192 130.622C147.23 133.438 146.654 136.373 146.478 139.346C146.478 139.675 146.553 139.999 146.697 140.294C146.842 140.589 147.051 140.846 147.31 141.045C147.57 141.245 147.871 141.381 148.191 141.444C148.51 141.506 148.84 141.494 149.154 141.407C149.863 141.204 150.572 141.054 151.27 140.915C158.006 141.464 164.775 141.446 171.508 140.862H172.238C172.398 140.954 172.568 141.026 172.746 141.076C174.876 141.474 177.051 141.575 179.209 141.375H181.579C181.757 141.467 181.945 141.538 182.14 141.588L182.975 141.791C183.16 142.097 183.392 142.371 183.663 142.602C183.748 142.805 183.843 143.008 183.938 143.2C183.936 143.814 184.048 144.422 184.266 144.994C184.163 145.438 184.085 145.887 184.033 146.34C183.878 146.528 183.771 146.753 183.721 146.993C183.671 147.233 183.681 147.481 183.748 147.717C183.748 147.877 183.853 148.027 183.896 148.176C183.764 148.79 183.7 149.417 183.705 150.045C183.402 150.62 183.301 151.283 183.42 151.924C183.684 153.43 184.89 154.466 185.874 155.533C186.403 156.121 186.932 156.708 187.419 157.317C187.312 157.601 187.281 157.908 187.329 158.208C187.377 158.508 187.503 158.79 187.694 159.025L191.238 163.211C190.32 163.837 189.309 164.313 188.244 164.62C187.916 164.721 187.629 164.925 187.424 165.203C187.22 165.48 187.11 165.817 187.11 166.163C187.11 166.509 187.22 166.846 187.424 167.124C187.629 167.402 187.916 167.606 188.244 167.706L190.539 168.251C191.38 168.357 192.206 168.553 193.004 168.838C193.266 168.993 193.488 169.209 193.65 169.468C193.46 169.71 193.345 170.003 193.319 170.31C193.293 170.618 193.356 170.926 193.501 171.198C193.501 171.262 193.576 171.305 193.607 171.369C193.492 171.533 193.416 171.721 193.384 171.919C193.352 172.117 193.365 172.32 193.422 172.513C193.479 172.705 193.579 172.882 193.713 173.029C193.848 173.177 194.014 173.292 194.2 173.365C195.723 174.049 198.167 174.999 198.95 176.633C199.176 177.381 199.492 178.098 199.891 178.768C200.23 179.195 200.611 179.473 200.886 179.836C200.875 179.928 200.875 180.022 200.886 180.114C200.886 180.37 200.981 180.626 201.044 180.872C200.707 181.852 200.556 182.889 200.6 183.926L200.473 184.321L200.388 184.502C200.325 184.652 200.251 184.791 200.177 184.94C200.103 185.09 199.934 185.367 199.796 185.57C199.426 185.673 199.105 185.909 198.895 186.233C198.684 186.557 198.598 186.948 198.653 187.332V187.481C197.795 187.796 196.963 188.181 196.167 188.635C196.074 188.687 195.999 188.767 195.953 188.864C195.906 188.961 195.891 189.071 195.908 189.177C195.926 189.283 195.975 189.381 196.05 189.458C196.125 189.535 196.221 189.587 196.326 189.606C196.402 189.627 196.483 189.627 196.559 189.606L201.848 188.902C201.925 188.897 202 188.876 202.068 188.84C202.136 188.803 202.195 188.752 202.241 188.69C202.288 188.628 202.32 188.556 202.336 188.481C202.352 188.405 202.352 188.326 202.335 188.25C203.201 187.925 204.028 187.503 204.8 186.99C205.435 186.595 206.059 186.189 206.683 185.784L207.402 185.421C208.465 185.125 209.473 184.656 210.386 184.033L210.491 183.979L210.819 183.744C211.029 183.574 211.175 183.337 211.232 183.072C211.401 183.006 211.559 182.912 211.697 182.794L214.035 180.861C214.21 180.706 214.348 180.512 214.437 180.295L214.702 180.028H214.755C217.209 179.388 218.553 176.601 219.399 174.017C219.456 173.984 219.509 173.944 219.558 173.899C221.123 172.127 221.039 169.511 220.457 167.13Z" fill="#B7B7B7"/>
<path d="M125.69 80.1372V85.5616" stroke="#0A1931" stroke-linecap="round" stroke-linejoin="round"/>
<path d="M121.776 108.199L125.754 112.555C127.869 107.291 136.036 101.109 136.036 101.109C125.532 92.4809 125.457 84.1201 125.457 84.1201L121.818 87.5157C121.818 87.5157 118.581 93.6661 126.05 141.054" stroke="#0A1931" stroke-linecap="round" stroke-linejoin="round"/>
<path d="M123.955 85.5401C123.955 85.5401 121.839 84.0346 115.206 92.3953C108.573 100.756 108.542 101.493 108.542 101.493L116.233 110.323L107.6 116.068L116.529 141.236" stroke="#0A1931" stroke-linecap="round" stroke-linejoin="round"/>
<path d="M129.858 107.206L131.646 113.473H136.132" stroke="#0A1931" stroke-linecap="round" stroke-linejoin="round"/>
<path d="M131.646 113.473L129.53 141.097" stroke="#0A1931" stroke-linecap="round" stroke-linejoin="round"/>
<path d="M119.544 87.6116C119.544 87.6116 90.5469 97.5847 88.0926 101.183C82.0915 110.96 76.5938 121.043 71.6211 131.391C67.728 140.029 53.4781 156.27 51.6268 167.311C49.7755 178.352 66.723 189.403 77.704 190.418" stroke="#0A1931" stroke-linecap="round" stroke-linejoin="round"/>
<path d="M57.6991 162.271C57.6991 162.271 60.7565 157.082 68.2041 157.626C75.6517 158.171 85.4584 166.04 85.4584 166.04" stroke="#0A1931" stroke-linecap="round" stroke-linejoin="round"/>
<path d="M81.7769 162.549L88.6215 153.131" stroke="#0A1931" stroke-linecap="round" stroke-linejoin="round"/>
<path d="M68.8071 151.06L78.508 157.744" stroke="#0A1931" stroke-linecap="round" stroke-linejoin="round"/>
<path d="M88.0925 104.856C88.0925 104.856 87.4472 120.243 91.0229 124.6" stroke="#0A1931" stroke-linecap="round" stroke-linejoin="round"/>
<path d="M93.3398 130.878L94.4929 141.278" stroke="#0A1931" stroke-linecap="round" stroke-linejoin="round"/>
<path d="M146.689 80.1372V85.5616" stroke="#0A1931" stroke-linecap="round" stroke-linejoin="round"/>
<path d="M150.614 108.199L146.668 112.555C144.51 107.291 136.333 101.109 136.333 101.109C146.912 92.4809 146.912 84.1201 146.912 84.1201L150.572 87.4943C150.572 87.4943 153.809 93.6447 146.256 141.033" stroke="#0A1931" stroke-linecap="round" stroke-linejoin="round"/>
<path d="M148.424 85.5401C148.424 85.5401 150.54 84.0346 157.184 92.3953C163.827 100.756 163.838 101.493 163.838 101.493L156.126 110.419L164.758 116.164L155.84 141.343" stroke="#0A1931" stroke-linecap="round" stroke-linejoin="round"/>
<path d="M142.511 107.206L140.734 113.473H136.248" stroke="#0A1931" stroke-linecap="round" stroke-linejoin="round"/>
<path d="M140.734 113.473L142.849 141.097" stroke="#0A1931" stroke-linecap="round" stroke-linejoin="round"/>
<path d="M152.836 87.6116C152.836 87.6116 181.822 97.5847 184.298 101.183C190.326 110.961 195.856 121.043 200.864 131.391C204.758 140.029 218.997 156.27 220.859 167.311C222.721 178.352 205.763 189.403 194.782 190.418" stroke="#0A1931" stroke-linecap="round" stroke-linejoin="round"/>
<path d="M214.681 162.271C214.681 162.271 211.623 157.082 204.176 157.626C196.728 158.171 186.921 166.04 186.921 166.04" stroke="#0A1931" stroke-linecap="round" stroke-linejoin="round"/>
<path d="M190.592 162.549L183.42 153.131" stroke="#0A1931" stroke-linecap="round" stroke-linejoin="round"/>
<path d="M203.573 151.06L193.872 157.744" stroke="#0A1931" stroke-linecap="round" stroke-linejoin="round"/>
<path d="M184.287 104.856C184.287 104.856 184.933 120.243 181.357 124.6" stroke="#0A1931" stroke-linecap="round" stroke-linejoin="round"/>
<path d="M179.051 130.878L177.897 141.278" stroke="#0A1931" stroke-linecap="round" stroke-linejoin="round"/>
<path d="M117.481 61.8142C117.481 61.8142 118.539 71.2748 121.088 74.9373C123.638 78.5998 129.245 83.0311 131.868 83.8319C133.171 84.2926 134.54 84.5343 135.92 84.5473" stroke="#0A1931" stroke-linecap="round" stroke-linejoin="round"/>
<path d="M116.561 52.3749C115.773 52.1109 114.915 52.1684 114.17 52.535C113.799 52.7258 113.469 52.9869 113.196 53.3038C112.933 53.618 112.732 53.9806 112.604 54.3716C111.546 57.3934 111.546 63.8535 117.999 65.1562" stroke="#0A1931" stroke-linecap="round" stroke-linejoin="round"/>
<path d="M133.529 26.2249C133.529 26.2249 126.536 30.2504 123.553 35.2903C120.57 40.3303 119.745 46.0536 119.65 52.2574" stroke="#0A1931" stroke-linecap="round" stroke-linejoin="round"/>
<path d="M115.577 37.2974C115.577 37.2974 114.519 50.3564 117.566 54.3819" stroke="#0A1931" stroke-linecap="round" stroke-linejoin="round"/>
<path d="M136.333 18.4939V24.0784" stroke="#0A1931" stroke-linecap="round" stroke-linejoin="round"/>
<path d="M135.952 15.6644C135.952 15.6644 133.529 14.1695 128.547 15.6644C123.564 17.1593 111.134 25.0716 109.578 36.3581C108.023 47.6445 110.573 51.8623 112.065 55.6956" stroke="#0A1931" stroke-linecap="round" stroke-linejoin="round"/>
<path d="M154.507 61.8142C154.507 61.8142 153.449 71.2748 150.911 74.9373C148.372 78.5998 142.744 83.0311 140.12 83.8319C138.814 84.2923 137.441 84.5339 136.058 84.5473" stroke="#0A1931" stroke-linecap="round" stroke-linejoin="round"/>
<path d="M155.428 52.3749C155.821 52.2326 156.238 52.1744 156.655 52.2041C157.068 52.2247 157.472 52.3339 157.84 52.5244C158.215 52.7127 158.549 52.9739 158.824 53.2932C159.087 53.6074 159.288 53.97 159.416 54.361C160.474 57.3828 160.474 63.8429 154.021 65.1456" stroke="#0A1931" stroke-linecap="round" stroke-linejoin="round"/>
<path d="M138.449 26.2249C138.449 26.2249 145.441 30.2504 148.424 35.2797C151.408 40.3089 152.233 46.0429 152.328 52.2467" stroke="#0A1931" stroke-linecap="round" stroke-linejoin="round"/>
<path d="M156.433 37.2974C156.433 37.2974 157.417 50.3564 154.433 54.3819" stroke="#0A1931" stroke-linecap="round" stroke-linejoin="round"/>
<path d="M136.047 15.6644C136.047 15.6644 138.459 14.1695 143.452 15.6644C148.446 17.1593 160.865 25.0716 162.41 36.3581C163.954 47.6445 161.426 51.8623 159.924 55.6956" stroke="#0A1931" stroke-linecap="round" stroke-linejoin="round"/>
<path d="M136.333 60.8101V64.6861" stroke="#0A1931" stroke-linecap="round" stroke-linejoin="round"/>
<path d="M130.578 45.8611C130.578 45.8611 126.484 48.8936 122.58 49.1712" stroke="#0A1931" stroke-linecap="round" stroke-linejoin="round"/>
<path d="M133 71.1037C134.058 70.6812 135.207 70.545 136.333 70.7086C137.49 70.8659 138.585 71.3302 139.506 72.054" stroke="#0A1931" stroke-linecap="round" stroke-linejoin="round"/>
<path d="M140.977 46.3633C140.977 46.3633 145.06 49.4065 149.027 49.6307" stroke="#0A1931" stroke-linecap="round" stroke-linejoin="round"/>
<path d="M90.1872 163.521C89.367 163.307 88.501 163.36 87.7118 163.67C86.9233 163.978 86.2526 164.532 85.797 165.25C85.2998 166.051 84.9824 166.98 84.0726 167.386C83.3506 167.628 82.6 167.771 81.8404 167.813C80.3594 168.005 78.9947 168.486 78.508 170.055C78.2647 170.856 78.3388 171.764 78.0426 172.554C77.7464 173.344 76.6673 173.622 75.9268 173.899C75.5399 174.003 75.1793 174.189 74.8689 174.444C74.5603 174.691 74.3017 174.995 74.1072 175.341C73.9274 175.715 73.811 176.131 73.6417 176.526C73.3895 177.054 73.0693 177.546 72.6896 177.989C72.1181 178.699 71.6942 179.517 71.4434 180.396C71.1926 181.275 71.1199 182.196 71.2297 183.104C71.7481 187.375 75.8739 189.639 79.1322 191.646C80.2104 192.358 81.3264 193.011 82.4752 193.6C83.2954 194.094 84.2685 194.261 85.2045 194.07C86.6962 193.653 88.3782 192.094 88.2407 190.429C88.2162 190.305 88.15 190.194 88.0536 190.115C87.9572 190.035 87.8364 189.991 87.7118 189.991C87.5871 189.991 87.4663 190.035 87.3699 190.115C87.2735 190.194 87.2074 190.305 87.1828 190.429C87.1125 191.134 86.7981 191.791 86.2951 192.285C85.792 192.779 85.1324 193.078 84.4323 193.13C83.534 193.021 82.6801 192.675 81.9568 192.126C81.0682 191.614 80.1795 191.059 79.3226 190.546C76.424 188.699 72.5309 186.595 72.2453 182.719C72.1912 181.943 72.2883 181.163 72.5309 180.424C72.9264 179.511 73.4462 178.66 74.0755 177.893C74.5304 177.231 74.6785 176.462 75.0699 175.757C75.5701 175.16 76.2779 174.778 77.0481 174.69C77.7063 174.493 78.287 174.093 78.7091 173.547C79.1324 172.997 79.3664 172.322 79.3755 171.625C79.3755 170.902 79.6054 170.199 80.0314 169.618C80.5274 169.21 81.1383 168.971 81.777 168.934C83.184 168.731 84.7391 168.721 85.7335 167.546C86.3153 166.863 86.5692 165.966 87.1934 165.411C87.5515 165.062 87.9923 164.812 88.4734 164.684C88.956 164.561 89.4613 164.561 89.9439 164.684C90.0108 164.713 90.0828 164.728 90.1555 164.728C90.2282 164.728 90.3002 164.713 90.3671 164.684C90.4959 164.61 90.5908 164.487 90.6316 164.343C90.6837 164.205 90.6837 164.053 90.6316 163.916C90.555 163.788 90.4345 163.693 90.293 163.649L90.1872 163.521Z" fill="#0A1931"/>
<path d="M76.9 180.562C78.2223 183.669 81.5653 184.919 83.8504 187.161C86.1354 189.403 88.7061 193.696 92.6415 192.308C93.2974 192.084 93.0223 191.026 92.3664 191.24C88.7379 192.479 86.3999 187.973 84.1677 185.965C81.9356 183.958 79.0158 182.762 77.8203 180.007C77.5453 179.366 76.6143 179.921 76.8894 180.551L76.9 180.562Z" fill="#0A1931"/>
<path d="M81.5336 175.245C82.2079 176.04 83.06 176.663 84.0196 177.06C84.9955 177.69 85.8697 178.468 86.6115 179.367C87.4367 180.285 88.1983 181.246 88.9812 182.196L90.3036 183.787C90.7644 184.24 91.1249 184.785 91.3615 185.389C91.4203 185.504 91.5163 185.595 91.6335 185.647C91.7506 185.699 91.8819 185.709 92.0055 185.675C92.1291 185.641 92.2375 185.566 92.3128 185.461C92.3881 185.357 92.4257 185.23 92.4194 185.101C91.9168 183.951 91.1983 182.91 90.3036 182.036C89.4572 180.968 88.6215 179.986 87.7646 178.982C87.0421 178.098 86.2262 177.296 85.3314 176.59C84.868 176.249 84.376 175.949 83.861 175.693C83.3374 175.487 82.88 175.14 82.5386 174.69C82.1683 174.102 81.2268 174.69 81.5971 175.245H81.5336Z" fill="#0A1931"/>
<path d="M86.9078 170.482C87.6642 170.78 88.3626 171.21 88.9707 171.753C89.5995 172.315 90.1165 172.992 90.4941 173.75C90.5669 173.874 90.6843 173.966 90.822 174.006C90.9556 174.053 91.101 174.053 91.2346 174.006C91.358 173.932 91.4489 173.814 91.4885 173.675C91.542 173.541 91.542 173.392 91.4885 173.258C90.5873 171.518 89.08 170.175 87.2569 169.489C87.1873 169.473 87.1149 169.473 87.0453 169.489C86.9719 169.499 86.9004 169.521 86.8337 169.553C86.7735 169.594 86.72 169.645 86.675 169.703C86.6328 169.765 86.6006 169.833 86.5798 169.906C86.5636 169.976 86.5636 170.049 86.5798 170.119C86.5885 170.195 86.6138 170.268 86.6539 170.333C86.6879 170.395 86.7348 170.45 86.7914 170.493C86.8529 170.535 86.9208 170.568 86.9924 170.589L86.9078 170.482Z" fill="#0A1931"/>
<path d="M182.489 164.577C182.878 164.471 183.286 164.449 183.684 164.513C184.085 164.569 184.468 164.715 184.806 164.941C185.456 165.492 185.974 166.186 186.318 166.969C186.686 167.498 187.169 167.934 187.73 168.243C188.292 168.552 188.916 168.727 189.555 168.753C190.825 168.913 192.422 168.902 192.856 170.408C193.237 171.732 193.004 173.248 194.284 174.134C194.845 174.464 195.451 174.709 196.083 174.86C196.49 174.971 196.857 175.197 197.141 175.512C197.425 175.809 197.626 176.178 197.722 176.579C198.325 178.16 199.711 179.238 200.092 180.936C200.256 181.75 200.256 182.589 200.092 183.403C199.925 184.22 199.594 184.994 199.119 185.677C197.995 187.099 196.613 188.291 195.046 189.19C193.258 190.46 191.389 191.609 189.45 192.628C189.069 192.897 188.612 193.032 188.148 193.013C187.687 193.003 187.241 192.842 186.879 192.553C186.572 192.28 186.33 191.941 186.17 191.56C186.018 191.181 185.95 190.773 185.969 190.364C185.945 190.241 185.879 190.13 185.782 190.05C185.686 189.971 185.565 189.927 185.44 189.927C185.316 189.927 185.195 189.971 185.098 190.05C185.002 190.13 184.936 190.241 184.911 190.364C184.88 191.138 185.087 191.903 185.504 192.553C185.921 193.203 186.527 193.707 187.239 193.995C189.037 194.604 191.047 192.991 192.528 192.126C194.399 191.026 196.201 189.81 197.923 188.485C199.443 187.385 200.559 185.808 201.097 184C201.337 183.129 201.402 182.218 201.287 181.322C201.173 180.425 200.882 179.56 200.431 178.779C199.792 177.965 199.236 177.089 198.77 176.163C198.559 175.36 198.071 174.66 197.395 174.188C196.707 173.771 195.892 173.718 195.279 173.344C194.961 173.058 194.703 172.71 194.522 172.321C194.34 171.932 194.238 171.51 194.221 171.08C194.222 170.33 193.967 169.601 193.499 169.018C193.031 168.434 192.378 168.032 191.65 167.877C190.836 167.685 189.989 167.685 189.175 167.503C188.714 167.416 188.282 167.219 187.913 166.927C187.545 166.635 187.252 166.257 187.059 165.827C186.648 164.944 185.97 164.215 185.123 163.745C184.25 163.31 183.251 163.207 182.309 163.456C182.241 163.477 182.176 163.51 182.118 163.552C182.061 163.601 182.011 163.659 181.97 163.723C181.933 163.787 181.909 163.858 181.9 163.931C181.891 164.005 181.897 164.079 181.917 164.15C181.958 164.295 182.053 164.417 182.182 164.492C182.245 164.53 182.315 164.554 182.388 164.563C182.461 164.572 182.535 164.566 182.605 164.545L182.489 164.577Z" fill="#0A1931"/>
<path d="M194.581 180.049C193.385 182.836 190.402 184.107 188.233 186.008C186.065 187.908 183.663 192.532 180.024 191.283C179.368 191.058 179.093 192.115 179.749 192.35C183.684 193.706 186.223 189.51 188.551 187.204C190.878 184.897 194.168 183.712 195.49 180.605C195.765 179.975 194.834 179.419 194.57 180.06L194.581 180.049Z" fill="#0A1931"/>
<path d="M189.905 174.69C189.585 175.125 189.148 175.459 188.646 175.651C188.138 175.909 187.65 176.205 187.186 176.537C186.262 177.254 185.421 178.075 184.679 178.982C183.843 179.965 183.028 180.968 182.203 181.951C181.294 182.866 180.575 183.955 180.087 185.154C179.876 185.816 180.923 186.115 181.145 185.442C181.364 184.872 181.695 184.353 182.119 183.915L183.441 182.324C184.245 181.353 185.038 180.37 185.874 179.42C186.594 178.548 187.435 177.786 188.371 177.156C189.291 176.58 190.338 176.259 190.941 175.298C191.312 174.7 190.381 174.156 190 174.743L189.905 174.69Z" fill="#0A1931"/>
<path d="M185.197 169.436C183.373 170.12 181.865 171.464 180.965 173.205C180.93 173.265 180.905 173.33 180.891 173.398C180.881 173.468 180.881 173.54 180.891 173.611C180.91 173.681 180.943 173.746 180.987 173.803C181.032 173.858 181.085 173.905 181.145 173.942C181.207 173.979 181.275 174.003 181.346 174.012C181.417 174.022 181.489 174.016 181.558 173.996C181.694 173.959 181.812 173.871 181.886 173.75C182.26 172.991 182.778 172.313 183.409 171.753C183.703 171.484 184.022 171.245 184.361 171.038L184.943 170.717C185.115 170.628 185.291 170.55 185.472 170.483C185.61 170.443 185.727 170.351 185.8 170.226C185.847 170.095 185.847 169.952 185.8 169.821C185.781 169.751 185.749 169.685 185.705 169.628C185.665 169.568 185.611 169.52 185.546 169.489C185.489 169.451 185.424 169.425 185.356 169.415C185.286 169.404 185.214 169.404 185.144 169.415L185.197 169.436Z" fill="#0A1931"/>
<path d="M128.039 56.4324C128.336 56.4324 128.627 56.3432 128.874 56.1761C129.122 56.009 129.314 55.7716 129.428 55.4939C129.541 55.2162 129.57 54.9108 129.511 54.6164C129.452 54.322 129.308 54.0518 129.097 53.8402C128.886 53.6286 128.617 53.485 128.325 53.4277C128.033 53.3705 127.731 53.402 127.457 53.5184C127.182 53.6348 126.948 53.8308 126.785 54.0816C126.621 54.3323 126.534 54.6265 126.537 54.9268C126.539 55.3271 126.699 55.71 126.98 55.9921C127.262 56.2741 127.642 56.4324 128.039 56.4324Z" fill="#0A1931"/>
<path d="M143.505 56.9449C143.802 56.9449 144.093 56.8559 144.34 56.6893C144.587 56.5227 144.779 56.2859 144.893 56.0089C145.007 55.7318 145.036 55.4269 144.979 55.1328C144.921 54.8387 144.777 54.5685 144.567 54.3565C144.357 54.1444 144.09 54 143.798 53.9415C143.507 53.883 143.205 53.913 142.93 54.0278C142.656 54.1425 142.421 54.3369 142.256 54.5862C142.091 54.8356 142.003 55.1287 142.003 55.4286C142.003 55.8307 142.161 56.2164 142.443 56.5008C142.725 56.7851 143.107 56.9449 143.505 56.9449Z" fill="#0A1931"/>
<path d="M175.221 204H96.9366C96.1019 204 95.2975 203.685 94.6824 203.115C94.0673 202.546 93.6863 201.764 93.6148 200.925L88.2195 145.272C88.1731 144.8 88.2235 144.324 88.3676 143.873C88.5143 143.425 88.7481 143.011 89.0552 142.656C89.3705 142.301 89.7561 142.017 90.1872 141.823C90.6127 141.628 91.0741 141.526 91.5413 141.524H180.553C181.023 141.526 181.488 141.628 181.918 141.823C182.344 142.02 182.725 142.304 183.039 142.656C183.349 143.011 183.587 143.425 183.737 143.873C183.878 144.325 183.925 144.801 183.875 145.272L178.49 200.903C178.412 201.731 178.037 202.501 177.434 203.068C176.832 203.635 176.044 203.959 175.221 203.979V204Z" stroke="#0A1931" stroke-miterlimit="10"/>
<path d="M75.5855 40.1187C75.5855 40.1187 72.6645 24.6937 54.6015 21.7031C36.5385 18.7124 27.4637 31.7787 25.5395 35.8374C25.5395 35.8374 13.8818 34.796 5.20561 47.5241C-0.488914 55.8819 -2.12706 76.0598 11.5069 80.3767C11.5069 80.3767 4.06151 96.5404 18.6662 103.99C33.2709 111.44 42.6231 106.839 42.6231 106.839C42.6231 106.839 51.9493 116.487 67.4207 109.785C82.8921 103.082 86.3418 91.4848 82.1554 84.3375C82.1554 84.3375 93.7525 82.0055 95.6333 71.2445C97.5142 60.4836 92.1663 58.2139 92.1663 58.2139C92.1663 58.2139 92.6777 40.6438 75.5855 40.1187Z" fill="white" stroke="black" stroke-linejoin="round"/>
<path d="M53.3533 124.133C51.4385 124.133 49.8863 122.539 49.8863 120.573C49.8863 118.606 51.4385 117.012 53.3533 117.012C55.2681 117.012 56.8203 118.606 56.8203 120.573C56.8203 122.539 55.2681 124.133 53.3533 124.133Z" fill="white"/>
<path d="M53.3534 117.457C52.7534 117.457 52.1669 117.64 51.668 117.982C51.1691 118.325 50.7803 118.811 50.5507 119.38C50.3211 119.95 50.261 120.576 50.3781 121.18C50.4951 121.785 50.7841 122.34 51.2083 122.775C51.6326 123.211 52.1731 123.508 52.7616 123.628C53.35 123.748 53.96 123.686 54.5143 123.451C55.0686 123.215 55.5424 122.816 55.8758 122.303C56.2091 121.791 56.387 121.189 56.387 120.572C56.387 119.746 56.0674 118.954 55.4985 118.37C54.9296 117.785 54.158 117.457 53.3534 117.457ZM53.3534 116.567C54.1248 116.567 54.8789 116.802 55.5203 117.242C56.1617 117.682 56.6616 118.308 56.9569 119.04C57.2521 119.772 57.3293 120.577 57.1788 121.354C57.0283 122.131 56.6568 122.845 56.1114 123.405C55.5659 123.965 54.8709 124.346 54.1143 124.501C53.3577 124.655 52.5735 124.576 51.8608 124.273C51.1481 123.97 50.5389 123.456 50.1104 122.798C49.6818 122.139 49.453 121.365 49.453 120.572C49.4519 120.046 49.552 119.525 49.7476 119.038C49.9432 118.552 50.2305 118.11 50.5929 117.738C50.9553 117.366 51.3857 117.071 51.8594 116.87C52.3332 116.669 52.8409 116.566 53.3534 116.567Z" fill="black"/>
<path d="M60.2873 127.693C59.33 127.693 58.5539 126.896 58.5539 125.913C58.5539 124.93 59.33 124.133 60.2873 124.133C61.2447 124.133 62.0208 124.93 62.0208 125.913C62.0208 126.896 61.2447 127.693 60.2873 127.693Z" fill="white"/>
<path d="M60.2873 124.578C60.0302 124.578 59.7788 124.656 59.565 124.803C59.3512 124.949 59.1846 125.158 59.0862 125.402C58.9878 125.646 58.962 125.914 59.0122 126.173C59.0624 126.432 59.1862 126.67 59.368 126.857C59.5498 127.043 59.7815 127.171 60.0337 127.222C60.2859 127.274 60.5473 127.247 60.7849 127.146C61.0224 127.045 61.2255 126.874 61.3683 126.654C61.5112 126.435 61.5874 126.177 61.5874 125.913C61.5874 125.559 61.4505 125.219 61.2066 124.969C60.9628 124.718 60.6321 124.578 60.2873 124.578ZM60.2873 123.688C60.7159 123.688 61.1348 123.818 61.4912 124.063C61.8475 124.307 62.1252 124.655 62.2892 125.061C62.4532 125.468 62.4962 125.915 62.4126 126.347C62.3289 126.778 62.1226 127.175 61.8195 127.486C61.5165 127.797 61.1304 128.009 60.7101 128.095C60.2897 128.181 59.854 128.137 59.4581 127.968C59.0622 127.8 58.7237 127.515 58.4856 127.149C58.2475 126.783 58.1205 126.353 58.1205 125.913C58.1205 125.323 58.3488 124.757 58.7551 124.339C59.1615 123.922 59.7126 123.688 60.2873 123.688Z" fill="black"/>
<path d="M26.0604 89.7066V77.2275H35.0786V89.7066H26.0604Z" fill="#C5D8FF" stroke="#0A1931"/>
<path d="M39.4148 89.7067V63.7285H48.433V89.7067H39.4148Z" fill="#C5D8FF" stroke="#0A1931"/>
<path d="M52.7293 89.7066V72.1616H61.7959L61.7585 89.7066H52.7293Z" fill="#C5D8FF" stroke="#0A1931"/>
<path d="M75.6513 51.2383H65.6232V90.2067H75.6513V51.2383Z" fill="#0A1931" stroke="#0A1931" stroke-linejoin="round"/>
<path d="M22.7787 71.6618L40.8649 53.4066L56.3179 55.9245L72.3153 39.7976" stroke="#0A1931" stroke-linecap="round" stroke-linejoin="round"/>
<path d="M74.9089 43.3247L68.9692 37.3295L76.9778 35.2512L74.9089 43.3247Z" fill="#0A1931" stroke="#0A1931" stroke-linejoin="round"/>
<path d="M42.33 57.2834C42.9898 57.2834 43.6348 57.0859 44.1834 56.7159C44.732 56.3459 45.1596 55.82 45.4121 55.2047C45.6646 54.5894 45.7307 53.9124 45.602 53.2592C45.4733 52.606 45.1555 52.006 44.689 51.5351C44.2224 51.0642 43.628 50.7435 42.9808 50.6135C42.3337 50.4836 41.6629 50.5503 41.0533 50.8051C40.4437 51.06 39.9227 51.4916 39.5561 52.0453C39.1896 52.5991 38.9939 53.2501 38.9939 53.9161C38.9939 54.8092 39.3454 55.6656 39.971 56.2971C40.5967 56.9286 41.4452 57.2834 42.33 57.2834Z" fill="white" stroke="#0A1931" stroke-miterlimit="10"/>
</svg>
