<svg xmlns="http://www.w3.org/2000/svg" viewBox="0 0 634.7 584.9"><defs><linearGradient id="名称未設定グラデーション_2" x1="365.1" y1="-382" x2="369.5" y2="-438" gradientTransform="matrix(1 0 0 -1 0 75.9)" gradientUnits="userSpaceOnUse"><stop offset="0" stop-color="#f3f3f3"/><stop offset=".3" stop-color="#e5edf5"/><stop offset=".7" stop-color="#cedcea"/><stop offset="1" stop-color="#c9d9ea"/></linearGradient><style>.cls-1{fill:#424f5c}.cls-5{fill:#617387}</style></defs><g id="レイヤー_2" data-name="レイヤー 2"><g id="レイヤー_1-2" data-name="レイヤー 1"><g id="computer"><path class="cls-1" d="m625 377-377.3 38.2c-3.8.4-7-4.5-7.1-10.8l-3.9-292.1c0-6.3 3-12.2 6.9-13.2l369-99c8.7-1.3 14.3 7.2 14.4 14.7l7.7 347.3c0 7.7-4.4 14.3-9.8 14.8Z"/><path class="cls-1" d="m619.7 373.4-377.2 38.3c-3.9.4-7-4.5-7.1-10.9l-3.9-292c0-6.3 3-12.2 6.8-13.2L611.7.3c5.4-1.4 9.9 3.6 10 11l7.7 347.3c-.1 7.6-4.4 14.3-9.7 14.8Z"/><path d="m606 382.1 1.5 2L245 421.8a42.3 42.3 0 0 0-15.7 6.2L23.8 565.6 0 573.3l1 4a9 9 0 0 0 8.4 7.6L397 572.5c10.5-.4 26.3-7 35-14.9l188.7-166.5a11 11 0 0 0 4.5-12.1l-1.4-5.3Z" style="fill:#a9b2ba"/><path d="m394.3 562.4-390 12.4c-7.2.3-5-4.8 4.7-11.3l217.5-145.6a41.5 41.5 0 0 1 15.7-6.2l376-39.1c5.8-.7 7.5 1.6 3.7 5l-192.5 170a65.7 65.7 0 0 1-35.1 14.8Z" style="fill:#eff3f7"/><path d="M488.8 480.1 108.2 505c-7.1.4-5.8-3.9 2.6-9.5l115.6-77.5a41.5 41.5 0 0 1 15.7-6.2L618 372.5c5.9-.6 7.5 1.7 3.7 5l-101 89.1a63 63 0 0 1-31.9 13.5Z" style="fill:url(#名称未設定グラデーション_2)"/><path class="cls-1" d="m245.2 425 13.5-1.3a3.3 3.3 0 0 0 1.2-.5l4.8-3.3c.4-.2.4-.4.1-.4.2 0 .2-.2 0-.3s.1-.2 0-.2 0-.2-.1-.2.1-.3 0-.3 0-.2-.1-.2l-10.3 1a20.3 20.3 0 0 0-7.8 3l-1.5 1c-.3.3-.3.5-.1.5-.1.1-.1.2 0 .2l.1.2v.3s0 .2.2.2-.3.4 0 .3ZM225.8 438.4l14.1-1.2a3.9 3.9 0 0 0 1.3-.6l14.7-10c.3-.3.4-.4.1-.4.2 0 .1-.3 0-.3s0-.2-.1-.2 0-.3 0-.3 0-.2-.1-.2 0-.3-.1-.3l-14 1.4a3.1 3.1 0 0 0-1.4.5l-14.7 10c-.3.1-.3.3-.1.3-.2 0-.1.3 0 .3s0 .2.1.2 0 .2 0 .2 0 .3.1.3-.2.3 0 .3ZM245.5 436.5l14.4-1.2a2.8 2.8 0 0 0 1.3-.6l14.6-10.1c.3-.1.3-.4 0-.4.3 0 .2-.2 0-.3s.1-.2 0-.2 0-.2-.1-.2.1-.3 0-.3 0-.3-.1-.3l-14.4 1.4a3.3 3.3 0 0 0-1.3.6L245.3 435c-.3.2-.4.4-.1.4-.2 0-.1.2 0 .2s0 .3.1.3-.1.2 0 .2 0 .2.1.3c-.2 0-.2.2 0 .1ZM490.2 416.4v-.3l-.1-.2-.1-.3a.2.2 0 0 0 0-.1c0-.2-.1-.3-.4-.3l-17.7 1.6a3.3 3.3 0 0 0-1.4.6l-14 11.2c-.3.3-.3.4-.2.5v.2l.1.3v.1h.1v.2a.3.3 0 0 0 .4.3l17.7-1.5a3.3 3.3 0 0 0 1.5-.6l13.9-11.3.2-.4ZM255 447.7l14.9-1.4a3.1 3.1 0 0 0 1.4-.5l14.8-10.6c.3-.2.4-.4.1-.4s.2-.2 0-.2 0-.3 0-.3 0-.2-.1-.2 0-.2-.1-.2 0-.3-.2-.3L271 435a3.7 3.7 0 0 0-1.3.6l-15 10.4c-.3.2-.3.4-.1.4s-.1.2 0 .3 0 .2.1.2 0 .2 0 .2 0 .3.2.3-.1.3.2.3ZM234.7 449.5l14.6-1.3a3.1 3.1 0 0 0 1.3-.6l15-10.5c.4-.2.4-.4.2-.4s0-.2 0-.2 0-.2-.2-.3.1-.2 0-.2 0-.2 0-.2 0-.3-.2-.3l-14.5 1.3a3.3 3.3 0 0 0-1.3.5l-15 10.4c-.3.3-.4.4-.2.5l.1.2c.1 0 0 .2 0 .2s0 .3.1.3 0 .2 0 .2-.2.4.1.4ZM205.8 452l23.4-2a4 4 0 0 0 1.4-.6l15-10.4c.3-.2.3-.3 0-.4.3 0 .2-.2 0-.2s.1-.2 0-.2 0-.3-.1-.3 0-.2 0-.2 0-.3-.1-.3l-23.2 2.1a3.3 3.3 0 0 0-1.3.5l-15.1 10.4c-.4.2-.4.4-.2.4l.1.2v.3c.2 0 0 .2.1.2s0 .2 0 .2-.2.3 0 .3ZM396 448.9l17.3-1.4a3.1 3.1 0 0 0 1.4-.7l14.6-11.5c.3-.2.3-.4.1-.4s0-.2 0-.2l-.1-.3v-.2a2.1 2.1 0 0 1-.1-.3.3.3 0 0 0-.3-.2l-17.2 1.4a3.3 3.3 0 0 0-1.4.6l-14.7 11.5c-.3.2-.3.4-.1.5s0 .1 0 .2v.2a1.8 1.8 0 0 1 .2.3v.2c0 .1 0 .3.4.3ZM372.4 450.8l17-1.4a3.6 3.6 0 0 0 1.4-.6l14.7-11.4c.2-.2.3-.4.1-.5s0-.1 0-.2l-.1-.2v-.4h-.2c.2-.3 0-.3-.3-.3l-16.7 1.4a3.3 3.3 0 0 0-1.5.6l-14.7 11.4c-.3.2-.4.4-.2.4s0 .2 0 .2l.1.3a2.2 2.2 0 0 1 0 .2l.1.3c.1 0 0 .2.3.2ZM349.3 452.6l16.6-1.3a3.3 3.3 0 0 0 1.4-.6l14.8-11.3c.3-.2.3-.4.1-.4s.1-.3 0-.3 0-.2 0-.2 0-.2-.1-.3 0-.2-.1-.2 0-.3-.3-.3l-16.4 1.4a3.3 3.3 0 0 0-1.4.6L349 451c-.3.2-.3.4-.1.5s-.1.1 0 .2 0 .2 0 .2 0 .2.2.3-.1.2 0 .2-.1.3.2.2ZM326.7 454.5l16.2-1.3a3.4 3.4 0 0 0 1.4-.6l15-11.3c.2-.2.3-.3 0-.4s0-.2 0-.2v-.3l-.1-.2c-.1-.1 0-.2 0-.2s-.1-.3-.3-.3l-16.2 1.4a3.3 3.3 0 0 0-1.4.6l-15 11.2c-.4.2-.4.4-.2.4s0 .2 0 .2l.1.3v.2l.1.3s0 .2.4.2ZM304.5 456.3l15.9-1.3a3.3 3.3 0 0 0 1.4-.6l15.1-11.1c.3-.3.3-.5.2-.5l-.1-.2v-.3a2.2 2.2 0 0 0-.1-.2l-.1-.2a.3.3 0 0 0-.3-.3l-15.8 1.4a3.3 3.3 0 0 0-1.4.6l-15.1 11c-.3.2-.3.4-.1.5s-.1.2 0 .2 0 .2 0 .2 0 .3.1.3 0 .2.1.2-.1.3.2.3ZM282.7 458l15.6-1.2a3.3 3.3 0 0 0 1.4-.6l15.1-11c.3-.3.4-.4.2-.5s0-.1 0-.2l-.1-.3a2.3 2.3 0 0 1-.1-.2v-.2s-.1-.3-.3-.3l-15.5 1.3a3.5 3.5 0 0 0-1.4.6l-15.2 11c-.3.3-.3.4-.1.5s0 .1 0 .2l.1.2a2.2 2.2 0 0 1 0 .3l.1.2s0 .3.2.3ZM261.4 459.8l15.1-1.2a3.3 3.3 0 0 0 1.5-.6l15.2-11c.3-.2.3-.4.1-.4s0-.2 0-.2l-.1-.3v-.2a2.2 2.2 0 0 1-.1-.3s-.1-.2-.3-.2l-15.1 1.3a4.2 4.2 0 0 0-1.4.5l-15.3 11c-.3.2-.4.4-.2.4s0 .2.1.2 0 .2 0 .3 0 .2.1.2 0 .2 0 .2 0 .3.4.3ZM240.4 461.5l15-1.2a3.2 3.2 0 0 0 1.4-.6L272 449c.3-.3.3-.4.2-.5s0-.2-.1-.2 0-.2 0-.3 0-.2-.1-.2 0-.2 0-.2 0-.3-.3-.3l-15 1.3a3 3 0 0 0-1.3.6L240 459.9c-.3.2-.3.4-.1.4s0 .2 0 .3l.1.2c.1.1 0 .2 0 .2a2.2 2.2 0 0 0 .1.3s0 .2.3.2ZM219.8 463.2l14.7-1.2a3 3 0 0 0 1.4-.6l15.3-10.8c.4-.2.4-.4.2-.4s0-.2 0-.2 0-.2-.1-.3 0-.2-.1-.2.1-.2 0-.2 0-.3-.1-.3l-14.7 1.3a3.9 3.9 0 0 0-1.3.5l-15.4 10.8c-.4.2-.4.4-.2.4s0 .3 0 .3 0 .2.1.2 0 .2.1.2-.1.3 0 .3 0 .2 0 .2ZM185.3 466l28.9-2.3a3.9 3.9 0 0 0 1.4-.6l15.4-10.7c.3-.3.4-.4.2-.5s0-.2 0-.2 0-.2-.2-.3.1-.2 0-.2 0-.2 0-.2 0-.3-.2-.3l-28.7 2.5a3.7 3.7 0 0 0-1.3.5l-15.6 10.7c-.3.2-.3.4-.1.4-.2 0-.1.2 0 .2s0 .3.1.3-.1.2 0 .2 0 .2.1.2-.2.3 0 .3ZM412.7 461.7l17.9-1.4a3 3 0 0 0 1.5-.6l14.9-12c.3-.2.3-.4.1-.5v-.1a.1.1 0 0 0 0-.1V446.4a.3.3 0 0 0-.5-.3l-17.7 1.4a3 3 0 0 0-1.5.6l-14.8 12c-.4.2-.4.4-.2.5s0 .2 0 .2v.2h.1a.1.1 0 0 0 0 .2l.1.3c-.1 0-.3.2 0 .2ZM388.2 463.6l17.5-1.4a3.3 3.3 0 0 0 1.5-.6l14.9-11.9c.2-.2.3-.4.1-.5v-.4l-.1-.2-.1-.3a.3.3 0 0 0-.4-.3l-17.4 1.4a3.4 3.4 0 0 0-1.5.7l-15 11.7c-.3.3-.4.5-.2.5s0 .2 0 .3l.1.2v.2l.2.3a.5.5 0 0 0 .4.3ZM364.2 465.4l17.1-1.3a3.8 3.8 0 0 0 1.5-.6l15.1-11.8c.3-.3.3-.4.2-.5l-.1-.2v-.2l-.1-.3v-.2a.3.3 0 0 0-.4-.3l-17 1.4a3.2 3.2 0 0 0-1.5.6l-15.2 11.8c-.3.2-.3.4-.2.4l.1.3c.1 0 0 .2 0 .2l.1.2.1.3s0 .2.3.2ZM340.7 467.1l16.8-1.3a3.2 3.2 0 0 0 1.5-.5l15.1-11.9c.3-.2.4-.4.2-.4s0-.2 0-.3v-.1h-.1v-.3l-.1-.2a.3.3 0 0 0-.3-.3l-16.8 1.3a3.3 3.3 0 0 0-1.4.6l-15.4 11.7c-.3.2-.3.4-.1.5s0 .1 0 .2l.1.2v.2l.1.3c.1 0 0 .3.4.3ZM317.6 468.8l16.5-1.2a3.2 3.2 0 0 0 1.5-.6l15.3-11.6c.3-.3.3-.4.2-.5l-.1-.2v-.3l-.1-.2v-.2a.3.3 0 0 0-.4-.3l-16.4 1.3a3.3 3.3 0 0 0-1.4.6l-15.4 11.6c-.3.2-.4.4-.2.4s0 .2 0 .3l.1.2.1.2v.3s0 .3.3.2ZM295 470.5l16.2-1.2a3.5 3.5 0 0 0 1.5-.6l15.4-11.5c.3-.2.3-.4.2-.5l-.1-.2v-.3l-.1-.2v-.2s-.2-.3-.4-.3l-16 1.3a3.3 3.3 0 0 0-1.4.6l-15.5 11.5c-.3.2-.4.4-.2.4s0 .2.1.3 0 .1 0 .2a2.2 2.2 0 0 1 0 .2l.1.3s0 .3.3.2ZM273 472.2l15.8-1.2a3.3 3.3 0 0 0 1.4-.6l15.6-11.4c.3-.2.3-.4.1-.5s0-.1 0-.2a1.7 1.7 0 0 1-.1-.2v-.3l-.1-.2c0-.1-.1-.3-.3-.3l-15.7 1.3a3.2 3.2 0 0 0-1.4.6l-15.7 11.4c-.3.2-.3.4-.1.4s0 .2 0 .2l.1.3v.2l.1.3s0 .2.3.2ZM251.3 473.8l15.5-1.1a3 3 0 0 0 1.4-.6l15.7-11.4c.3-.2.3-.4.1-.4s0-.2 0-.3l-.1-.2v-.2l-.1-.3s0-.2-.2-.2l-15.5 1.2a3.3 3.3 0 0 0-1.4.5L251 472.1c-.3.3-.4.4-.2.5s0 .1 0 .2l.1.3.1.2v.2c.1.1 0 .3.3.3ZM230 475.4l15.2-1.1a3.9 3.9 0 0 0 1.5-.6l15.7-11.3c.3-.2.3-.4.1-.4s.1-.2 0-.2 0-.3-.1-.3 0-.2 0-.2 0-.2-.2-.3.1-.2-.1-.2l-15.2 1.2a3.9 3.9 0 0 0-1.4.6l-15.8 11.2c-.3.2-.4.4-.1.4s-.1.2 0 .3 0 .2 0 .2 0 .2.1.2 0 .3.1.3 0 .2.2.2ZM209.2 477l15-1.1a3 3 0 0 0 1.3-.6l15.8-11.2c.4-.2.4-.4.2-.4s0-.2 0-.2 0-.3-.1-.3 0-.2-.1-.2 0-.2 0-.3 0-.2-.1-.2l-14.9 1.1a3.2 3.2 0 0 0-1.4.6l-15.8 11.1c-.4.2-.4.4-.2.5s0 .2 0 .2 0 .2.1.2 0 .3.1.3-.1.2 0 .2-.1.3.1.3ZM164.3 480.3l39-3a3.6 3.6 0 0 0 1.4-.5l15.9-11c.3-.3.4-.5.2-.5s0-.2 0-.2 0-.3-.2-.3.1-.2 0-.2 0-.3 0-.3 0-.2-.2-.2l-39 3a3.5 3.5 0 0 0-1.3.6l-16 11c-.4.2-.5.4-.2.4-.2 0-.1.2 0 .2s0 .2.1.3-.1.2 0 .2 0 .2.1.2-.1.4.2.3ZM427.4 463.2v-.2l-.1-.3v-.2a.1.1 0 0 0 0-.1v-.1h-.1c0-.2-.1-.3-.4-.3l-18 1.4a3.5 3.5 0 0 0-1.4.6L392 476.3c-.3.3-.4.5-.2.5s0 .2 0 .3l.1.2.1.3c.1 0 0 .1 0 .2a.3.3 0 0 0 .4.2l18-1.2a3.2 3.2 0 0 0 1.5-.6l15.3-12.4c.3-.3.3-.5.2-.6ZM402.4 465v-.4a2.1 2.1 0 0 0-.1-.3.1.1 0 0 0 0-.1h-.1c.1-.2 0-.3-.3-.3l-17.6 1.3a3.3 3.3 0 0 0-1.5.6L367.3 478c-.3.3-.4.4-.2.5V478.9a.2.2 0 0 0 0 .1h.1l.1.2v.3a.3.3 0 0 0 .4.2l17.7-1.2a3.1 3.1 0 0 0 1.6-.6l15.4-12.4c.2 0 .2-.3 0-.3ZM378 466.9v-.3l-.1-.2v-.3a.1.1 0 0 0 0-.1h-.2c.2 0 0-.3-.3-.3l-17.1 1.3a3 3 0 0 0-1.5.6L343 479.7c-.3.3-.4.4-.2.5s0 .2.1.2v.3a2.1 2.1 0 0 1 .1.2v.1s.1.3.4.3l17.2-1.2a3.4 3.4 0 0 0 1.6-.6l15.5-12.2c.4-.3.5-.3.2-.4ZM354.1 468.6v-.4c0-.1 0-.2-.2-.3v-.2a.3.3 0 0 0-.3-.3l-106.3 7.9a3.2 3.2 0 0 0-1.4.6l-16.2 11.6c-.3.2-.4.4-.2.5s0 .1 0 .2l.2.3v.4s.1.3.3.3l106.8-7.4a3.8 3.8 0 0 0 1.5-.6l15.7-12.1c.3-.2.3-.4.1-.5ZM241.7 477v-.2a2.3 2.3 0 0 0-.1-.3v-.2l-.1-.3-.1-.3-15.2 1.2a3.3 3.3 0 0 0-1.4.5L208.5 489c-.3.2-.4.4-.1.4s0 .2 0 .3v.2l.1.2.1.3v.3l15.3-1a3.5 3.5 0 0 0 1.5-.6l16.1-11.6c.4-.3.4-.5.2-.5ZM220.6 478.5l-.1-.2v-.3l-.1-.2-.1-.2v-.3l-15 1a3.7 3.7 0 0 0-1.4.6l-16.3 11.5c-.3.2-.4.4-.2.4s0 .3 0 .3 0 .2.1.2 0 .2.1.3-.1.2 0 .2 0 .3.1.3l15-1a3.4 3.4 0 0 0 1.5-.6l16.2-11.5c.3-.3.4-.4.2-.5ZM199.8 480l-.1-.2v-.3l-.1-.2c-.1 0 0-.2 0-.2s0-.3-.2-.3l-14.6 1a3.3 3.3 0 0 0-1.4.6L167 491.8c-.4.3-.4.4-.2.5-.1 0 0 .2 0 .2s0 .2.1.2 0 .2.1.3 0 .2 0 .2 0 .3.1.3l14.7-1a3.2 3.2 0 0 0 1.4-.6l16.4-11.4c.3-.3.4-.4.2-.5ZM179.2 481.5v-.5l-.1-.3-.1-.2v-.3l-18.7 1.4a3.6 3.6 0 0 0-1.4.6l-12.7 8.5c-1.6 1.1-2.3 2-1.9 2.5a.4.4 0 0 0 0 .2.5.5 0 0 0 .1.3.4.4 0 0 0 .1.2.4.4 0 0 0 0 .3c.2.4.5.6 1.5.5l15.4-1a3.7 3.7 0 0 0 1.4-.6l16.4-11.3c.2 0 .3-.2 0-.3ZM459.5 460.8v-.5l-.2-.3v-.2a.4.4 0 0 0-.4-.3l-24.8 1.8a3.3 3.3 0 0 0-1.6.7l-15.2 12.4c-.3.3-.3.5-.2.5v.3l.1.2.1.2v.3a.3.3 0 0 0 .4.3l25-1.8a3.2 3.2 0 0 0 1.6-.6l15.1-12.6c.2-.1.2-.3.1-.4ZM564.3 389.6c-.2-.6-1-1-2.6-.8l-13.2 1.3a3 3 0 0 0-1.4.6l-4.3 3.7c-.2.2-.2.4 0 .4s0 .2 0 .2v.4h.1v.2c0 .1.2.4.4.3l17.5-1.7a2.9 2.9 0 0 0 1.4-.5l1.4-1.2c1-.8 1.3-1.5 1-2a.4.4 0 0 0-.1-.2.4.4 0 0 0 0-.3.3.3 0 0 0-.1-.2.5.5 0 0 0 0-.2ZM263.6 422c-.1.1 0 .3.1.3s-.1.2 0 .2 0 .3.1.3 0 .2 0 .2 0 .3.2.3l13.7-1.4a4 4 0 0 0 1.3-.5l4.8-3.3c.3-.2.3-.4 0-.4.2 0 .2-.2 0-.2s.1-.2 0-.3 0-.2-.1-.2 0-.2-.1-.2c.2-.1.1-.3 0-.3l-13.8 1.4a3.5 3.5 0 0 0-1.3.5l-4.8 3.3c-.3.2-.3.3 0 .4ZM282.8 420.1v.3l.1.2.1.2v.3l.1.3 14-1.4a3.3 3.3 0 0 0 1.3-.5l4.8-3.4c.3-.2.3-.3 0-.4.3 0 .2-.2 0-.2s.1-.2 0-.2 0-.3-.1-.3.1-.2 0-.2 0-.3-.1-.3l-14 1.4a3 3 0 0 0-1.3.5l-4.8 3.4c-.3.2-.3.4 0 .3ZM302.4 418.3c-.2 0-.1.2 0 .2s0 .2.1.2 0 .3 0 .3 0 .2.1.2 0 .3.2.2l14.2-1.3a3.6 3.6 0 0 0 1.3-.6l4.7-3.3c.3-.2.4-.4.1-.4s.1-.2 0-.2 0-.3 0-.3 0-.2-.2-.2.1-.2 0-.3 0-.2 0-.2l-14.3 1.4a3.4 3.4 0 0 0-1.2.5l-4.8 3.4c-.4.2-.4.3-.2.4ZM322.3 416.3c-.2 0-.1.2 0 .3s0 .2 0 .2 0 .2.1.2 0 .3.1.3 0 .2.2.2l14.5-1.4a2.8 2.8 0 0 0 1.3-.5l4.7-3.4c.3-.2.3-.4.1-.4s.1-.2 0-.2 0-.3-.1-.3 0-.2 0-.2 0-.2-.1-.3 0-.2-.3-.2l-14.4 1.4a3 3 0 0 0-1.3.5l-4.8 3.4c-.2.2-.3.4 0 .4ZM342.5 414.3v.3c.2 0 0 .2.1.2s0 .2.1.3-.1.2 0 .2 0 .3.3.2l14.7-1.3a3.5 3.5 0 0 0 1.4-.6l4.6-3.4c.3-.2.4-.4.1-.4s.1-.2 0-.2 0-.2 0-.3 0-.2-.2-.2.1-.2 0-.2 0-.3-.2-.3l-14.8 1.4a3.5 3.5 0 0 0-1.3.5l-4.7 3.5c-.3.1-.3.3-.1.3ZM363.1 412.3l.1.2v.3c.2 0 0 .2.1.2s0 .2 0 .3 0 .3.3.2l15.1-1.4a2.8 2.8 0 0 0 1.4-.6l4.6-3.4c.3-.2.3-.4.1-.4s0-.2 0-.2 0-.2-.1-.3 0-.2 0-.2 0-.2-.2-.3.1-.2-.2-.2l-15.1 1.5a3.4 3.4 0 0 0-1.3.5l-4.7 3.4c-.2.2-.3.4 0 .4ZM384.1 410.3v.2l.1.2.1.3v.2s.1.3.3.3L400 410a3.3 3.3 0 0 0 1.4-.6l4.6-3.5c.2-.2.3-.3 0-.4s0-.1 0-.2v-.2l-.1-.3c-.1 0 0-.1 0-.2a.3.3 0 0 0-.4-.2l-15.2 1.5a3.5 3.5 0 0 0-1.3.5l-4.7 3.5c-.3.2-.2.3 0 .4ZM405.5 408.1v.3l.1.2.1.3c.1 0 0 .2 0 .2s.1.3.3.3l15.6-1.6a2.8 2.8 0 0 0 1.3-.6l4.6-3.5c.3-.2.3-.3.1-.3s0-.2 0-.3 0-.2-.1-.2 0-.2 0-.2 0-.3-.2-.3 0-.3-.2-.3l-15.6 1.6a3.7 3.7 0 0 0-1.3.6l-4.6 3.4c-.2.3-.3.3 0 .4ZM427.3 406v.2l.1.3.1.2v.3a.3.3 0 0 0 .3.2l15.9-1.6a2.9 2.9 0 0 0 1.3-.6l4.5-3.5c.3-.2.3-.4.1-.4s0-.2 0-.2v-.3l-.2-.2v-.3a.3.3 0 0 0-.3-.2l-15.8 1.6a3 3 0 0 0-1.4.6l-4.6 3.5c-.2.2-.2.4 0 .4ZM449.5 404v.2l.1.3.1.2v.3a.3.3 0 0 0 .4.2l16.1-1.6a3.1 3.1 0 0 0 1.4-.5l4.5-3.6c.2-.2.3-.3 0-.4s0-.1 0-.2v-.4h-.1v-.2s-.1-.3-.4-.3l-16.1 1.7a2.9 2.9 0 0 0-1.3.6l-4.6 3.5c-.2-.2-.3 0 0 .2ZM472.1 401.6l.1.3v.2l.1.2a2 2 0 0 1 .1.3.3.3 0 0 0 .3.2l16.5-1.6a3 3 0 0 0 1.4-.5l4.4-3.6c.3-.2.3-.4.1-.4s0-.2 0-.2v-.1a.1.1 0 0 0 0-.2h-.1v-.2l-.1-.2a.3.3 0 0 0-.4-.3l-16.4 1.7a2.9 2.9 0 0 0-1.4.5l-4.5 3.6c-.1.1-.2.3 0 .3ZM495.2 399.5v.1s0 .2.2.3v.5a.3.3 0 0 0 .4.2l16.8-1.6a3 3 0 0 0 1.4-.6l4.4-3.6c.2-.2.3-.3 0-.4a.2.2 0 0 0 0-.1v-.3l-.1-.2v-.3a.3.3 0 0 0-.4-.2l-16.8 1.6a3.3 3.3 0 0 0-1.4.6l-4.4 3.6c-.3 0-.3.2 0 .4ZM518.7 397v.3a.2.2 0 0 0 0 .1v.1h.2v.4a.3.3 0 0 0 .4.3l17.1-1.7a3.1 3.1 0 0 0 1.4-.6l4.4-3.6c.2-.2.2-.3 0-.4s0-.2 0-.2 0-.2-.1-.2 0-.3 0-.3 0-.2-.2-.2 0-.3-.3-.3l-17.1 1.7a3 3 0 0 0-1.4.6l-4.4 3.6c-.1.3-.2.4 0 .5ZM295.7 421l-14.6 1.3a3.7 3.7 0 0 0-1.3.5L265.2 433c-.3.2-.3.4-.1.4-.2 0-.1.2 0 .2s0 .2.1.3 0 .2 0 .2 0 .2.1.2 0 .3.1.3l14.7-1.3a3.7 3.7 0 0 0 1.3-.5l14.5-10.3c.3-.2.4-.4.1-.4s.1-.2 0-.2 0-.2 0-.3 0-.2-.2-.2.1-.2 0-.2.2-.3-.1-.3ZM316.3 419l-14.8 1.3a3.6 3.6 0 0 0-1.4.5l-14.5 10.3c-.3.2-.3.4-.1.4s0 .2 0 .2l.1.3v.2l.2.3s-.1.2.2.2l14.8-1.4a3.1 3.1 0 0 0 1.4-.5l14.4-10.4c.3-.2.4-.3.2-.4s0-.2-.1-.2 0-.2 0-.2 0-.2-.1-.3 0-.2 0-.2-.1-.2-.3-.2ZM337.3 417l-15 1.4a3.7 3.7 0 0 0-1.4.5l-14.4 10.4c-.4 0-.4.3-.1.4s-.1.2 0 .2 0 .2 0 .2 0 .2.2.3-.2.2 0 .2 0 .3 0 .3l15.2-1.5a3 3 0 0 0 1.4-.5l14.3-10.4c.3-.2.3-.4.1-.4s.1-.2 0-.3 0-.2 0-.2 0-.2-.2-.2.1-.2 0-.3.2-.2 0-.2ZM358.7 414.8l-15.3 1.6a3 3 0 0 0-1.4.5l-14.3 10.4c-.3 0-.3.4-.1.4s0 .2 0 .2a2.3 2.3 0 0 0 0 .3l.1.2.1.3s0 .2.2.2l15.5-1.4a3.7 3.7 0 0 0 1.4-.6l14.3-10.5c.2-.2.3-.3 0-.3s.1-.3 0-.3 0-.2 0-.2 0-.2-.1-.3 0-.2-.1-.2 0-.3-.3-.3ZM380.6 412.7l-15.7 1.6a3 3 0 0 0-1.4.6l-14.2 10.4q-.4.4 0 .5c-.2 0-.2.2 0 .2s-.1.2 0 .2 0 .3 0 .3 0 .2.2.2-.1.3.2.3l15.8-1.5a3.2 3.2 0 0 0 1.4-.6l14.1-10.5c.3-.2.3-.4.1-.4s0-.2 0-.2l-.1-.3c-.1 0 0-.2 0-.2a2.2 2.2 0 0 0-.1-.3s0-.3-.3-.3ZM402.8 410.6l-16 1.5a2.9 2.9 0 0 0-1.3.6l-14.2 10.5q-.4.4 0 .5c-.2 0-.2.2 0 .2s0 .2 0 .2 0 .2.1.3 0 .2 0 .2.1.3.4.3l16-1.5a3.5 3.5 0 0 0 1.4-.6l14-10.6q.5-.4.2-.4l-.1-.3c-.1 0 0-.2 0-.2s0-.2-.1-.3 0-.2 0-.2 0-.3-.4-.3ZM425.5 408.4l-16.3 1.5a3.9 3.9 0 0 0-1.4.6l-14 10.6q-.4.4-.1.5s0 .1 0 .2l.1.3v.2l.1.2s.1.3.3.3l16.4-1.6a3 3 0 0 0 1.4-.5l14-10.7c.2-.2.2-.4 0-.4s0-.2 0-.3v-.4c0-.1 0 0-.1 0v-.2s0-.4-.4-.3ZM448.6 406.1l-16.6 1.6a3 3 0 0 0-1.4.6L416.7 419q-.4.3 0 .4c-.2 0-.2.2 0 .3s-.1.2 0 .2 0 .2.1.3 0 .2 0 .2.1.2.4.2l16.7-1.5a3.3 3.3 0 0 0 1.4-.6l13.8-10.8c.3-.2.3-.3 0-.4s0-.1 0-.2v-.3a2.1 2.1 0 0 0-.1-.2v-.2c0-.1 0-.3-.4-.3ZM472.2 403.8l-17 1.7a3.4 3.4 0 0 0-1.4.5L440 416.8c-.3.3-.3.4-.1.4s0 .2 0 .3l.1.2.1.3v.2a.3.3 0 0 0 .4.3l17-1.6a3 3 0 0 0 1.5-.6l13.6-10.9c.3-.2.3-.3.1-.4s0-.1 0-.2l-.1-.2v-.3l-.1-.2c0-.1 0-.3-.3-.3ZM496.3 401.5l-17.3 1.7a3.2 3.2 0 0 0-1.4.5l-13.6 11c-.3.1-.3.3-.1.4s0 .1 0 .2l.1.2v.3l.1.2a.3.3 0 0 0 .4.3l17.4-1.6a3.3 3.3 0 0 0 1.4-.6l13.5-11c.3-.2.3-.4.1-.4s0-.2 0-.3v-.1a1.9 1.9 0 0 0-.1-.3l-.1-.2a.3.3 0 0 0-.4-.3ZM520.9 399.1l-17.7 1.7a3 3 0 0 0-1.4.6l-13.5 11c-.3.2-.3.4 0 .4s0 .2 0 .3v.2l.1.2v.3a.3.3 0 0 0 .4.2l17.7-1.6a3.3 3.3 0 0 0 1.4-.6l13.4-11c.2-.2.2-.3 0-.4s0-.2 0-.2v-.3l-.1-.2v-.3c-.1 0 0-.3-.4-.3ZM557.5 395.6l-29.6 2.9a3 3 0 0 0-1.4.6l-13.3 11c-.2.3-.2.4 0 .5s0 .2 0 .2v.3a.2.2 0 0 0 0 .1h.1a.1.1 0 0 0 0 .1v.1c0 .2.2.3.4.3l29.8-2.8a3 3 0 0 0 1.5-.5L558 397c.2-.2.2-.3 0-.4s0-.2 0-.2v-.3a2.3 2.3 0 0 1-.1-.2v-.2c0-.2-.1-.2-.5-.2ZM540 410.4l-18.4 1.7a3.4 3.4 0 0 0-1.4.5l-13.7 11.5c-.2.2-.3.3-.1.4V424.9h.1v.3a2.2 2.2 0 0 1 .1.3.4.4 0 0 0 .4.2l18.5-1.6a3.4 3.4 0 0 0 1.5-.6l13.6-11.4c.2-.2.2-.3 0-.4v-.1a.2.2 0 0 0 0-.1v-.2l-.1-.3-.1-.2c-.1-.1 0-.3-.4-.3ZM514.5 412.7l-18 1.7a3.2 3.2 0 0 0-1.4.6l-13.9 11.4c-.2.2-.2.4 0 .4s0 .2 0 .3v.2l.1.2.1.3a.3.3 0 0 0 .4.3l18-1.6a2.9 2.9 0 0 0 1.5-.6l13.7-11.5c.3-.1.3-.3.1-.4s0-.1 0-.2a.2.2 0 0 0 0-.1v-.1l-.1-.2a.2.2 0 0 0 0-.1v-.1h-.1c.1-.4 0-.5-.4-.5ZM465 417.3l-17.2 1.5a3 3 0 0 0-1.4.6l-14.1 11.2c-.3.2-.4.4-.2.4v.1a.1.1 0 0 0 0 .1l.1.2.1.3v.2a.3.3 0 0 0 .4.3l17.4-1.5a3.4 3.4 0 0 0 1.4-.6l14-11.3c.3-.2.3-.3.1-.4s0-.1 0-.2l-.1-.3v-.2c0-.1 0 0 0 0a.1.1 0 0 0 0-.1v-.1h-.2c.2-.2 0-.3-.2-.3ZM441 419.5l-16.8 1.5a3.2 3.2 0 0 0-1.5.6l-14.2 11c-.3.3-.3.4-.1.5s0 .2 0 .2v.2a.2.2 0 0 0 0 .1v.1h.1v.3a.3.3 0 0 0 .4.2l17-1.5a3 3 0 0 0 1.5-.6l14.1-11.1c.3-.2.3-.4.1-.4a.2.2 0 0 0 0-.1.2.2 0 0 0 0-.1.1.1 0 0 0 0-.1.1.1 0 0 0 0-.1h-.1v-.3l-.1-.2s0-.3-.3-.2ZM417.6 421.6l-16.6 1.5a3.2 3.2 0 0 0-1.4.6l-14.4 11c-.3.2-.3.4-.1.4s0 .2 0 .2a2.3 2.3 0 0 1 .1.3v.2l.1.3a.3.3 0 0 0 .3.2l16.7-1.4a3 3 0 0 0 1.4-.6l14.3-11c.3-.3.3-.4.1-.5s0-.2 0-.2a2.1 2.1 0 0 0-.1-.3.1.1 0 0 0 0-.1v-.2h-.1c.2-.3 0-.4-.3-.4ZM394.6 423.8l-16.3 1.5a3.2 3.2 0 0 0-1.4.6l-14.5 11c-.3.1-.3.3-.1.3s0 .2 0 .3l.1.2v.3l.1.2s.1.2.3.2l16.3-1.4a3.2 3.2 0 0 0 1.5-.6l14.4-11q.4-.3.1-.4v-.2l-.1-.3v-.2l-.2-.3s0-.3-.3-.2ZM372 425.8l-16 1.4a3.1 3.1 0 0 0-1.4.6L340 438.6c-.3.2-.3.4-.1.5s0 .1 0 .2l.1.2v.3l.1.2s.1.3.3.3l16-1.4a3.5 3.5 0 0 0 1.4-.6l14.5-10.9q.4-.3.1-.4s0-.2 0-.3v-.2l-.1-.2-.1-.3s0-.3-.3-.2ZM349.9 427.8l-15.6 1.4a3 3 0 0 0-1.4.6l-14.7 10.7c-.3.2-.3.4-.1.4s0 .2 0 .3v.2l.1.3.1.2s0 .2.3.2l15.7-1.3a3.3 3.3 0 0 0 1.4-.6l14.6-10.8q.4-.3.1-.4s0-.2 0-.3l-.1-.2a2.1 2.1 0 0 0 0-.2 2.1 2.1 0 0 1-.1-.3.3.3 0 0 0-.3-.2ZM328 429.8l-15.3 1.5a3.2 3.2 0 0 0-1.3.6l-14.8 10.6c-.3.2-.3.4-.2.4l.1.3v.2l.1.3.1.2s0 .2.2.3l15.4-1.4a3.3 3.3 0 0 0 1.4-.6l14.7-10.7c.3-.2.4-.4.2-.4s0-.2-.1-.2.1-.2 0-.3 0-.2-.1-.2 0-.2-.1-.3 0-.3-.3-.3ZM306.8 431.8l-15.2 1.5a3.1 3.1 0 0 0-1.3.5l-14.9 10.6c-.3.2-.3.4-.1.4s-.1.3 0 .3 0 .2 0 .2 0 .2.2.2-.1.3 0 .3 0 .3 0 .3l15.3-1.4a3.5 3.5 0 0 0 1.3-.5l14.8-10.7c.3-.2.4-.3.2-.4s-.1-.2-.1-.2v-.2a1.7 1.7 0 0 1-.1-.3l-.1-.2c-.1 0 .2-.4 0-.4ZM478 429.5l-17.9 1.5a3.5 3.5 0 0 0-1.5.6l-14.4 11.6c-.2.2-.3.4-.1.5s0 .1 0 .2l.1.2v.2l.2.3a.3.3 0 0 0 .3.3l18-1.5a3 3 0 0 0 1.5-.6l14.3-11.7c.2-.3.2-.4 0-.5s0-.1 0-.2a.2.2 0 0 0 0-.1.2.2 0 0 0 0-.1.2.2 0 0 0 0-.1v-.1h-.1v-.2s-.1-.4-.4-.3ZM453.1 431.6l-17.5 1.5a3 3 0 0 0-1.4.6l-14.5 11.6c-.3.2-.3.4-.2.5a.2.2 0 0 0 0 .1h.1v.2l.1.3a2.3 2.3 0 0 1 0 .2.3.3 0 0 0 .4.3l17.7-1.5a2.7 2.7 0 0 0 1.5-.6l14.4-11.6c.3-.2.3-.4.2-.5l-.1-.2a2.2 2.2 0 0 0 0-.2l-.1-.3-.1-.2a.4.4 0 0 0-.5-.2ZM522 425.7l-37 3.1a3.5 3.5 0 0 0-1.5.6l-14.2 11.8c-.3.2-.3.4-.1.4s0 .2 0 .3l.1.2v.4a.1.1 0 0 0 .1 0c-.1.3.1.3.4.3l37.2-3a3 3 0 0 0 1.5-.6l14-11.9c.3-.2.3-.3.1-.4v-.7a2.1 2.1 0 0 0-.1-.2c-.1-.1 0-.4-.5-.3ZM478.2 443.5l-24.7 2a3 3 0 0 0-1.5.6l-14.8 12c-.3.3-.3.5-.1.5s0 .2 0 .3v.2l.1.3.1.2a.3.3 0 0 0 .4.3l24.8-1.9a3.6 3.6 0 0 0 1.5-.6l14.7-12.1c.2-.2.3-.4.1-.5v-.1a.1.1 0 0 0 0-.1v-.1h-.1v-.3l-.1-.2c-.1-.1 0-.6-.4-.5ZM504.3 441.4l-15.2 1.2-4.3.3a3 3 0 0 0-1.5.7l-14.6 12.2c-.2.2-.3.3-.1.4s0 .2 0 .2l.1.3v.2l.1.3a.4.4 0 0 0 .4.3l1.7-.2 18-1.3a2.9 2.9 0 0 0 1.5-.6l14.5-12.3c.2-.2.2-.4 0-.5a.2.2 0 0 0 0-.1v-.1a.1.1 0 0 0 0-.1v-.1a.1.1 0 0 0 0-.1.2.2 0 0 0 0-.1.2.2 0 0 0 0-.1h-.1c0-.4-.2-.5-.5-.5ZM485.1 457.7h-.9l-.4.2-18.3 1.3a3.1 3.1 0 0 0-1.5.7l-15.1 12.6c-.3.2-.3.4-.2.5v.2l.2.2v.4c0 .2.1.4.5.3l7.3-.5 7.2-.5h.8a19.5 19.5 0 0 0 9.5-4l11.4-9.7c.3-.2.3-.4.2-.4l-.1-.3v-.2l-.1-.3v-.2c0-.2-.1-.3-.5-.3Z"/><path class="cls-5" d="m244.8 423.7 13.5-1.4a3 3 0 0 0 1.3-.5l4.8-3.3c.3-.2.3-.4-.1-.3l-10.3 1a20.6 20.6 0 0 0-7.8 3l-1.5 1c-.2.3-.3.5 0 .5ZM263.7 421.8l13.7-1.3a3.3 3.3 0 0 0 1.3-.6l4.8-3.3c.3-.2.3-.4-.1-.4l-13.7 1.4a4 4 0 0 0-1.3.5l-4.8 3.3c-.3.3-.3.4 0 .4ZM282.9 420l14-1.4a3.5 3.5 0 0 0 1.3-.6l4.7-3.3c.4-.3.4-.4 0-.4l-14 1.4a3 3 0 0 0-1.3.5l-4.8 3.4c-.3.2-.3.4 0 .3ZM302.4 418l14.3-1.4a3.3 3.3 0 0 0 1.2-.5l4.8-3.4c.3-.2.3-.4-.1-.3l-14.2 1.4a3 3 0 0 0-1.3.5l-4.8 3.3c-.2.3-.2.4.1.4ZM322.3 416l14.5-1.2a3.6 3.6 0 0 0 1.4-.6l4.7-3.4c.3-.2.3-.4-.1-.3l-14.5 1.4a3 3 0 0 0-1.3.5l-4.7 3.4c-.4.1-.3.3 0 .3ZM342.6 414l14.7-1.3a3.7 3.7 0 0 0 1.4-.5l4.6-3.4c.4-.3.4-.5 0-.4l-14.8 1.3a3.5 3.5 0 0 0-1.3.6l-4.7 3.4c-.3.2-.3.4 0 .4ZM363.2 412l15.1-1.4a3 3 0 0 0 1.4-.5l4.6-3.5c.4-.3.3-.4 0-.4l-15.2 1.5a3.4 3.4 0 0 0-1.3.5l-4.7 3.4c-.3.3-.3.5.1.4ZM384.2 410l15.3-1.5a3.5 3.5 0 0 0 1.4-.5l4.6-3.5c.3-.3.3-.5-.1-.4l-15.3 1.5a3.1 3.1 0 0 0-1.3.5l-4.7 3.5c-.2.3-.2.4.1.4ZM405.6 408l15.6-1.6a2.8 2.8 0 0 0 1.3-.6l4.6-3.5c.4-.2.3-.4 0-.4l-15.6 1.6a3.7 3.7 0 0 0-1.4.5l-4.6 3.5c-.3.3-.2.5.1.4ZM427.4 405.8l15.9-1.7a2.9 2.9 0 0 0 1.3-.5l4.6-3.5c.3-.3.3-.5-.1-.5l-15.8 1.7a2.9 2.9 0 0 0-1.4.5l-4.6 3.5c-.3.3-.3.5.1.5ZM449.7 403.6l16.1-1.6a3.1 3.1 0 0 0 1.4-.6l4.5-3.5c.3-.3.3-.4-.1-.4l-16.2 1.6a3.2 3.2 0 0 0-1.3.5l-4.5 3.6c-.4.3-.4.4 0 .4ZM472.3 401.4l16.5-1.6a3.4 3.4 0 0 0 1.4-.6l4.4-3.6c.3-.2.3-.4 0-.4l-16.5 1.6a3.1 3.1 0 0 0-1.4.6l-4.5 3.6c-.4.3-.3.4.1.4ZM495.4 399.1l16.8-1.6a3.3 3.3 0 0 0 1.4-.6l4.4-3.6c.3-.3.2-.4-.1-.4l-16.8 1.7a3.1 3.1 0 0 0-1.4.5l-4.4 3.6c-.4.3-.3.5 0 .4ZM519 396.8l17-1.7a3 3 0 0 0 1.5-.5l4.3-3.8c.3-.2.2-.4-.1-.4l-17.1 1.7a2.9 2.9 0 0 0-1.4.6l-4.4 3.6c-.4.4-.3.6.1.5ZM561.7 388.5l-13.2 1.4a2.9 2.9 0 0 0-1.4.5l-4.3 3.8c-.4.2-.3.4 0 .4l17.6-1.7a2.7 2.7 0 0 0 1.4-.6l1.3-1.1c2-1.8 1.4-3-1.4-2.7ZM225.4 436.9l14.1-1.2a3.7 3.7 0 0 0 1.3-.5l14.7-10.1c.4-.3.4-.4-.1-.4l-14 1.4a3 3 0 0 0-1.4.5l-14.6 10c-.3.1-.4.3 0 .3ZM275.4 422.7 261 424a3.6 3.6 0 0 0-1.3.5L245 434.6c-.4.3-.4.5.1.4l14.4-1.2a2.8 2.8 0 0 0 1.3-.6l14.6-10.1c.3-.3.2-.5-.1-.4ZM295.6 420.7 281 422a3.6 3.6 0 0 0-1.3.5L265 432.7c-.4.3-.4.4.1.4l14.6-1.3a3.7 3.7 0 0 0 1.4-.6l14.5-10.2c.3-.2.3-.3 0-.3ZM316.2 418.7l-14.8 1.4a3.2 3.2 0 0 0-1.3.5l-14.5 10.2c-.4.3-.4.5 0 .4l15-1.4a3.3 3.3 0 0 0 1.3-.5l14.4-10.3c.3-.2.3-.4 0-.3ZM337.3 416.6l-15.2 1.5a3.5 3.5 0 0 0-1.3.5L306.4 429c-.4.3-.4.5.1.4l15.1-1.5a3.4 3.4 0 0 0 1.4-.5l14.3-10.4c.4-.2.4-.4 0-.4ZM358.7 414.6l-15.4 1.5a2.9 2.9 0 0 0-1.4.6L327.6 427c-.3.2-.3.4.1.4l15.5-1.6a3.7 3.7 0 0 0 1.4-.5l14.2-10.5c.3-.2.3-.4-.1-.3ZM380.5 412.5l-15.7 1.6a3 3 0 0 0-1.3.5l-14.2 10.5c-.4.3-.4.5 0 .4l15.9-1.4a3 3 0 0 0 1.4-.6l14.1-10.6c.2-.3.2-.5-.2-.4ZM402.8 410.3l-16 1.6a2.9 2.9 0 0 0-1.4.5L371.3 423c-.4.3-.4.5 0 .4l16.2-1.4a3.5 3.5 0 0 0 1.4-.6l14-10.7c.3-.3.3-.4-.1-.4ZM425.4 408.1l-16.3 1.6a3.5 3.5 0 0 0-1.4.6l-14 10.6c-.3.3-.3.5.2.4l16.4-1.5a3.2 3.2 0 0 0 1.4-.6l13.9-10.7c.3-.3.2-.4-.2-.4ZM448.6 405.9l-16.7 1.6a3.1 3.1 0 0 0-1.4.5l-13.8 10.8c-.4.2-.4.4 0 .4l16.8-1.5a3.6 3.6 0 0 0 1.4-.6l13.8-10.8c.4-.3.3-.5-.1-.4ZM472.1 403.6l-16.9 1.6a3 3 0 0 0-1.4.6L440 416.6c-.3.3-.3.5.1.4l17-1.5a3.2 3.2 0 0 0 1.5-.6l13.7-10.9c.4-.3.3-.5-.2-.4ZM482.8 412.6l13.6-11c.3-.2.2-.4-.2-.4L479 403a3 3 0 0 0-1.4.6L464 414.4c-.4.3-.3.5 0 .4l17.5-1.6a3 3 0 0 0 1.4-.6ZM520.8 398.9l-17.7 1.7a2.8 2.8 0 0 0-1.4.5l-13.5 11c-.3.3-.2.5.2.5L506 411a3.3 3.3 0 0 0 1.4-.6l13.4-11c.5-.4.4-.6 0-.5ZM557.4 395.3l-29.6 2.9a2.8 2.8 0 0 0-1.4.6l-13.4 11c-.3.3-.2.4.2.4l29.7-2.8a3 3 0 0 0 1.5-.6l13.1-11.2c.5-.1.4-.3-.1-.3ZM540 410.1l-18.3 1.7a2.8 2.8 0 0 0-1.5.6l-13.7 11.4c-.4.3-.3.5.1.5l18.5-1.6a3.1 3.1 0 0 0 1.5-.6l13.6-11.5c.3-.3.2-.5-.2-.5ZM481.4 426.5l18-1.6a2.9 2.9 0 0 0 1.5-.6l13.8-11.5c.3-.2.2-.4-.2-.4l-18 1.6a3.3 3.3 0 0 0-1.4.6l-13.8 11.5c-.5.3-.4.5 0 .4ZM489.5 414.8l-17.7 1.6a3 3 0 0 0-1.4.6l-14 11.2c-.4.3-.3.5 0 .5l17.8-1.5a3.1 3.1 0 0 0 1.4-.6l14-11.4c.4-.3.3-.5-.1-.4ZM465 417l-17.3 1.6a3.2 3.2 0 0 0-1.4.6l-14.1 11.1c-.4.3-.3.5.1.5l17.4-1.5a3.3 3.3 0 0 0 1.5-.6l14-11.3c.3-.3.2-.4-.2-.4ZM408.5 432.8l17-1.4a3 3 0 0 0 1.5-.6l14.1-11.2c.4-.3.3-.5 0-.4l-17 1.5a3 3 0 0 0-1.4.6l-14.2 11.1c-.4.3-.4.5 0 .4ZM417.5 421.3 401 423a3.5 3.5 0 0 0-1.4.5l-14.4 11c-.3.3-.3.5.1.4l16.7-1.4a3.4 3.4 0 0 0 1.5-.6l14.3-11c.3-.3.3-.5-.2-.5ZM394.4 423.4l-16.2 1.5a3.5 3.5 0 0 0-1.4.6l-14.5 11c-.3.2-.3.4.1.4l16.4-1.5a3.3 3.3 0 0 0 1.4-.5l14.4-11c.4-.2.3-.5-.2-.4ZM371.9 425.5l-16 1.5a3 3 0 0 0-1.4.6L340 438.4c-.3.3-.3.5.2.4l16-1.4a3.3 3.3 0 0 0 1.4-.6L372 426c.3-.2.3-.4-.1-.4ZM349.8 427.5l-15.6 1.5a3.4 3.4 0 0 0-1.4.6l-14.7 10.7c-.3.3-.3.5.1.4l15.8-1.4a3.5 3.5 0 0 0 1.4-.6L350 428c.1-.2.1-.4-.2-.4ZM328 429.6l-15.3 1.3a3.8 3.8 0 0 0-1.4.6l-14.8 10.7c-.4.2-.4.4.1.4l15.4-1.4a3.2 3.2 0 0 0 1.4-.5l14.7-10.8c.3-.2.3-.4-.1-.3ZM306.7 431.5l-15.1 1.4a3.4 3.4 0 0 0-1.4.6L275.3 444c-.4.3-.4.5.1.4l15.2-1.3a4 4 0 0 0 1.4-.6l14.8-10.6c.2-.3.2-.5-.1-.5ZM285.8 433.4l-14.8 1.4a3.4 3.4 0 0 0-1.4.5l-15 10.5c-.3.2-.3.4.2.3l14.8-1.3a3.1 3.1 0 0 0 1.4-.6l14.8-10.6c.3 0 .3-.2 0-.2ZM234.3 448l14.6-1.3a3.2 3.2 0 0 0 1.4-.6l15-10.5c.3-.2.3-.4-.2-.3l-14.5 1.3a3.2 3.2 0 0 0-1.4.5l-15 10.4c-.2.4-.2.5.1.5ZM205.4 450.5l23.3-2a4 4 0 0 0 1.3-.5l15-10.4c.4-.3.4-.5-.1-.4l-23.1 2.1a3.3 3.3 0 0 0-1.4.5l-15 10.4c-.3.2-.3.4 0 .3ZM477.9 429.2l-17.9 1.5a3.6 3.6 0 0 0-1.5.6L444.1 443c-.3.3-.3.6.2.5l18-1.5a3 3 0 0 0 1.4-.6l14.3-11.7c.4-.2.3-.4-.1-.4ZM419.8 445.5l17.7-1.4a2.9 2.9 0 0 0 1.4-.6l14.5-11.7c.3-.3.3-.5-.2-.5l-17.4 1.6a3 3 0 0 0-1.5.6L419.8 445c-.6.2-.5.4 0 .4ZM395.7 447.4l17.2-1.4a3.3 3.3 0 0 0 1.5-.6l14.5-11.5c.4-.3.3-.5-.1-.5l-17.1 1.5a3.2 3.2 0 0 0-1.5.6L395.5 447c-.3.2-.3.4.2.4ZM372 449.3l17-1.4a3.1 3.1 0 0 0 1.4-.5l14.7-11.5c.4-.3.3-.5-.1-.4l-16.8 1.4a3.3 3.3 0 0 0-1.5.6L372 448.9c-.4.2-.4.5 0 .4ZM349 451.2l16.5-1.4a3.2 3.2 0 0 0 1.5-.5l14.8-11.4c.3-.3.3-.5-.2-.4l-16.4 1.4a3.1 3.1 0 0 0-1.4.6l-15 11.3c-.3.2-.4.5.2.4ZM326.3 453l16.2-1.3a3.3 3.3 0 0 0 1.4-.6l15-11.2c.3-.3.3-.5-.2-.4l-16 1.3a3.4 3.4 0 0 0-1.5.6L326 452.6c-.2.3-.2.5.2.4ZM304.1 454.9l15.9-1.3a3.3 3.3 0 0 0 1.4-.6l15.1-11.2c.4-.3.4-.5-.1-.4l-15.8 1.3a3.2 3.2 0 0 0-1.4.6l-15.1 11c-.4.4-.4.6 0 .6ZM282.3 456.6l15.6-1.3a3.2 3.2 0 0 0 1.4-.5l15.2-11.1c.3-.3.3-.5-.2-.4l-15.4 1.3a3.3 3.3 0 0 0-1.5.6l-15.1 11c-.3.4-.4.4 0 .4ZM261 458.4l15.2-1.3a3.3 3.3 0 0 0 1.4-.5l15.2-11c.3-.3.3-.5-.2-.4l-15.1 1.2a3.8 3.8 0 0 0-1.4.6l-15.2 11c-.3.2-.3.4.1.4ZM240 460l15-1.2a3.4 3.4 0 0 0 1.4-.6l15.2-10.8c.4-.3.4-.5-.1-.4l-15 1.2a3 3 0 0 0-1.3.6l-15.3 10.8c-.3.3-.3.5.1.4ZM219.4 461.7l14.7-1.1a3.5 3.5 0 0 0 1.4-.6l15.4-10.8c.3-.3.3-.5-.2-.4l-14.6 1.3a3.7 3.7 0 0 0-1.3.5l-15.4 10.8c-.2.2-.3.3 0 .3ZM185 464.4l28.8-2.3a4 4 0 0 0 1.3-.6l15.5-10.7c.4-.3.4-.5 0-.4l-28.8 2.5a3.5 3.5 0 0 0-1.3.5L185 464c-.4.4-.4.5 0 .4ZM522 425.4l-37 3.2a2.8 2.8 0 0 0-1.5.6L469.3 441c-.4.3-.3.5 0 .5l37.3-3a3 3 0 0 0 1.5-.6l14-12c.4-.3.4-.5-.1-.5ZM412.3 460.3l17.9-1.4a3.1 3.1 0 0 0 1.5-.6l14.9-12c.3-.4.3-.6-.2-.6l-17.7 1.4a3.3 3.3 0 0 0-1.5.6l-14.8 12c-.6.4-.6.6-.1.6ZM387.8 462l17.5-1.2a3.3 3.3 0 0 0 1.5-.6l15-12c.3-.3.3-.5-.2-.4l-17.4 1.3a3.5 3.5 0 0 0-1.5.6l-15 11.8c-.4.5-.3.6 0 .6ZM363.8 464l17.1-1.4a3.3 3.3 0 0 0 1.6-.6l15-11.8c.4-.3.4-.5 0-.5l-17.1 1.4a3.6 3.6 0 0 0-1.5.6l-15.2 11.8c-.4.2-.3.4 0 .4ZM340.3 465.7l16.8-1.3a3.2 3.2 0 0 0 1.5-.6l15.1-11.8c.4-.3.4-.5 0-.5l-16.8 1.4a3 3 0 0 0-1.4.6L340 465c-.3.4-.2.6.2.6ZM317.3 467.4l16.4-1.2a3.3 3.3 0 0 0 1.5-.6l15.3-11.7c.4-.3.4-.5-.1-.5l-16.4 1.4a3.3 3.3 0 0 0-1.4.5L317 467c-.3.3-.3.5.2.5ZM294.7 469l16.1-1.1a3.4 3.4 0 0 0 1.5-.6l15.4-11.6c.4-.2.4-.5-.1-.4l-16 1.3a3.3 3.3 0 0 0-1.5.5l-15.5 11.5c-.3.3-.3.5.1.5ZM272.6 470.8l15.8-1.2a3.5 3.5 0 0 0 1.4-.6l15.6-11.5c.3-.3.3-.5-.2-.4l-15.7 1.2a3.4 3.4 0 0 0-1.4.6l-15.6 11.4c-.3.3-.3.5 0 .5ZM251 472.4l15.4-1.2a3.5 3.5 0 0 0 1.5-.6l15.6-11.3c.4-.3.4-.5-.1-.4l-15.5 1.2a3.4 3.4 0 0 0-1.4.6l-15.7 11.2c-.2.3-.3.5.1.5ZM229.7 474l15.2-1.1a3.4 3.4 0 0 0 1.4-.6L262 461c.4-.3.4-.5-.1-.4l-15.2 1.2a3.4 3.4 0 0 0-1.4.6l-15.8 11.2c-.2.2-.2.4.2.4ZM208.8 475.5l15-1a3.2 3.2 0 0 0 1.3-.6l15.8-11.2c.4-.3.4-.5 0-.5l-14.8 1.2a3.5 3.5 0 0 0-1.4.6l-15.8 11c-.4.4-.5.6 0 .5ZM163.9 479l39.1-3a3.3 3.3 0 0 0 1.4-.6l15.9-11c.3-.3.4-.5 0-.5l-39 3.1a3.8 3.8 0 0 0-1.4.6l-16 10.9c-.4.2-.4.5 0 .4ZM437.4 458.4l24.8-1.9a3.6 3.6 0 0 0 1.5-.6l14.6-12.2c.4-.3.3-.5-.1-.5l-24.6 2a3 3 0 0 0-1.5.6l-14.9 12c-.3.4-.3.6.2.6ZM504.2 441l-15.2 1.3-4.3.3a3.2 3.2 0 0 0-1.5.6l-14.6 12.2c-.3.3-.3.6.1.5h1.8l17.9-1.4a3 3 0 0 0 1.5-.7l14.5-12.3c.4-.2.3-.4-.2-.5ZM426.7 461.8l-17.9 1.3a3.3 3.3 0 0 0-1.5.6l-15.4 12.4c-.4.3-.4.5.1.5l18-1.3a3.1 3.1 0 0 0 1.6-.6l15.3-12.5c.3-.3.3-.5-.2-.4ZM401.8 463.6l-17.5 1.3a3 3 0 0 0-1.6.6l-15.5 12.3c-.4.3-.3.5.1.4l17.8-1.2a3.1 3.1 0 0 0 1.5-.6l15.5-12.3c.2-.3.1-.6-.3-.5ZM377.4 465.4l-17.1 1.2a3 3 0 0 0-1.5.6l-15.7 12.2c-.4.3-.3.5.2.5l17.2-1.2a3.2 3.2 0 0 0 1.6-.7l15.5-12.2c.3-.2.3-.4-.2-.4ZM353.5 467.2l-106.3 7.7a3.3 3.3 0 0 0-1.4.6l-16.2 11.6c-.4.3-.4.5 0 .5l106.8-7.3a3.3 3.3 0 0 0 1.5-.6l15.7-12.1c.4-.2.4-.5 0-.4ZM241.2 475.5l-15.2 1a3.5 3.5 0 0 0-1.4.7l-16.2 11.5c-.4.3-.5.5 0 .5l15.2-1a3.5 3.5 0 0 0 1.5-.6l16-11.6c.5-.4.5-.6 0-.5ZM220 477l-14.9 1a3.9 3.9 0 0 0-1.4.7L187.4 490c-.4.3-.5.5 0 .5l15-1a3.3 3.3 0 0 0 1.4-.5l16.2-11.6c.4-.3.4-.5 0-.5ZM199.3 478.7l-14.6 1a3 3 0 0 0-1.4.6l-16.4 11.4c-.4.3-.5.5-.1.5l14.7-1a3.8 3.8 0 0 0 1.4-.6l16.3-11.4c.4-.4.4-.6 0-.5ZM178.8 480l-18.8 1.4a4.2 4.2 0 0 0-1.3.6l-12.7 8.5c-2.5 1.8-2.8 3-.7 2.8l15.4-1a3.4 3.4 0 0 0 1.5-.6l16.4-11.3c.5-.1.5-.3.2-.3ZM458.8 459.4l-24.9 1.8a3 3 0 0 0-1.5.6l-15.3 12.5c-.4.3-.3.6.2.5l24.9-1.6a3 3 0 0 0 1.5-.7L459 460c.3-.3.3-.5-.1-.5ZM485 457.4h-.9l-.4.2-18.3 1.4a2.9 2.9 0 0 0-1.5.6l-15.1 12.6c-.4.4-.3.6.1.6l7.4-.6 7.2-.4h.8a19.3 19.3 0 0 0 9.5-4l11.4-9.8c.4-.4.3-.6-.2-.6Z"/><path d="M492.8 471c-5.4.4-6.4-2.2-2.3-5.7l83.5-71.7a33 33 0 0 1 15.6-6.3c5-.5 6.5 1.5 3 4.5L509.9 464a34 34 0 0 1-17.1 7.1Z" style="fill:#cad3dd"/><path d="M125.5 496.3c-3.8.2-3.1-2 1.2-5.1l93.7-63a37.4 37.4 0 0 1 14-5.6c3.7-.4 3.6 1.6-.4 4.2l-93.4 63.4a38 38 0 0 1-15 6Z" style="fill:#b7c5d3"/><path d="m251.8 560-119 4.2c-4.2.1-3.6-2.7 1.5-6.4L202 509a37.5 37.5 0 0 1 16-6.5l116.6-7.3c4.8-.3 5 2.3.6 5.8l-65.7 51.7a36.9 36.9 0 0 1-17.7 7.3Z" style="fill:#e8f5ff"/><path d="m253.9 560-119.1 4.2c-4.4.1-3.7-2.7 1.4-6.4l67.7-48.8a37.5 37.5 0 0 1 16.1-6.5l116.8-7.4c4.7-.3 5 2.3.6 5.8l-65.7 51.7A36.8 36.8 0 0 1 254 560Z" style="fill:#c0c9d4"/></g></g></g></svg>