<svg width="93" height="93" viewBox="0 0 93 93" fill="none" xmlns="http://www.w3.org/2000/svg">
<circle cx="46.5" cy="46.5" r="46.5" fill="#185ADB"/>
<path d="M33.284 58.8301V60.7741H42.626V58.8301H33.284ZM29.936 62.0701V64.1041H46.064V62.0701H29.936ZM34.292 63.6901C34.022 66.1561 33.536 67.8301 29.414 68.7481C29.9 69.1981 30.458 70.0981 30.674 70.6741C35.426 69.4141 36.29 67.0381 36.632 63.6901H34.292ZM38.936 63.3481V67.7761C38.936 69.7201 39.44 70.3501 41.546 70.3501C41.96 70.3501 43.436 70.3501 43.85 70.3501C45.56 70.3501 46.136 69.6661 46.352 67.0381C45.794 66.8941 44.858 66.5521 44.426 66.2101C44.354 68.1001 44.246 68.4061 43.652 68.4061C43.31 68.4061 42.14 68.4061 41.852 68.4061C41.222 68.4061 41.114 68.3161 41.114 67.7401V63.3481H38.936ZM36.794 53.7361V56.9941H39.098V53.7361H36.794ZM30.26 55.4641V59.7481H32.456V57.4981H43.4V59.7481H45.722V55.4641H30.26Z" fill="white"/>
<path d="M54.956 59.8741V68.0641C54.956 68.3701 54.812 68.4781 54.416 68.4781C54.002 68.4781 52.526 68.4781 51.248 68.4241C51.59 69.0181 52.004 69.9901 52.13 70.6201C53.858 70.6201 55.154 70.5841 56.036 70.2601C56.936 69.9361 57.242 69.3421 57.242 68.1181V59.8741H54.956ZM48.8 54.9781V57.1021H61.382V54.9781H48.8ZM60.572 54.9781V55.5001C59.672 56.8681 57.548 59.0281 55.676 60.2161C56.108 60.5581 56.81 61.2781 57.152 61.7461C59.366 60.3601 61.742 58.0741 63.362 56.0941L61.67 54.8341L61.148 54.9781H60.572Z" fill="white"/>
<path d="M37 30.7754L44.1429 38.1667L57.8333 24" stroke="white" stroke-width="4" stroke-linecap="round" stroke-linejoin="round"/>
</svg>
