<svg width="483" height="184" viewBox="0 0 483 184" fill="none" xmlns="http://www.w3.org/2000/svg">
<rect width="33" height="55" rx="2" fill="#185ADB"/>
<path d="M12.2905 8.80005V10.8907H21.3627V8.80005H12.2905ZM12.3086 13.0708V15.1078H21.4534V13.0708H12.3086ZM12.2179 17.3057V19.3785H21.3264V17.3057H12.2179ZM10.8027 8.80005V14.7147C10.8027 17.4487 10.5486 20.8974 7.7907 23.2025C8.26246 23.4884 9.15153 24.2925 9.47813 24.7393C12.5445 22.2019 13.0344 17.8239 13.0344 14.7147V8.80005H10.8027ZM20.3466 8.80005V21.9874C20.3466 22.3627 20.2014 22.4878 19.7841 22.5056C19.3486 22.5056 17.8427 22.5235 16.5544 22.452C16.9173 23.0238 17.3346 24.0603 17.4616 24.7035C19.3486 24.7035 20.6369 24.6678 21.5078 24.2925C22.3425 23.9352 22.6509 23.2919 22.6509 22.0232V8.80005H20.3466Z" fill="white"/>
<path d="M10.5124 33.9776V35.425H14.1231V33.9776H10.5124ZM11.1111 29.4567V32.2443H13.1433V29.4567H11.1111ZM10.1858 40.196V41.8221H13.2159V43.4839H10.1858V45.11H15.0666V40.196H10.1858ZM8.18988 30.8862V33.781H9.93173V32.5481H14.3045V33.781H16.119V30.8862H8.18988ZM9.20596 40.196V45.8605H11.0204V40.196H9.20596ZM13.7602 33.9776V34.2814C12.8711 36.8009 10.4035 38.8916 7.69998 39.8029C8.08101 40.1782 8.58905 40.8929 8.82493 41.3397C11.8187 40.1246 14.4678 37.8373 15.6653 34.4601L14.4315 33.9061L14.1049 33.9776H13.7602ZM11.0567 32.7268C10.4035 34.2278 9.15153 35.6037 7.71813 36.4614C8.1173 36.7473 8.80679 37.3906 9.0971 37.7301C10.5849 36.6758 12.0183 35.014 12.8348 33.1735L11.0567 32.7268ZM9.44184 36.8188C11.2744 38.0696 13.8691 39.8744 15.1029 40.9823L16.3367 39.4813C15.0303 38.4091 12.3631 36.6937 10.5849 35.5322L9.44184 36.8188ZM16.1552 30.1V31.9405H24.7012V30.1H16.1552ZM18.6592 37.3191H22.2517V38.4091H18.6592V37.3191ZM18.6592 39.9101H22.2517V41.018H18.6592V39.9101ZM18.6592 34.7281H22.2517V35.836H18.6592V34.7281ZM16.7177 33.1377V42.6084H24.3202V33.1377H16.7177ZM19.3486 31.0828C19.2579 31.9405 19.022 33.1377 18.8043 33.9776L20.6187 34.3171C20.9272 33.5666 21.3627 32.4409 21.7255 31.3508L19.3486 31.0828ZM18.2055 42.6798C17.4798 43.4125 15.9919 44.3238 14.6855 44.8063C15.1392 45.1815 15.7561 45.7712 16.0827 46.1643C17.4253 45.6461 19.0039 44.6812 19.9655 43.7699L18.2055 42.6798ZM20.7458 43.752C21.7437 44.4668 23.0138 45.5389 23.6126 46.2001L25.3 45.11C24.6286 44.431 23.3041 43.4303 22.3243 42.7692L20.7458 43.752Z" fill="white"/>
<path d="M257.212 24.9919V49.5199H260.6V28.3239H279.192V24.9919H257.212ZM277.568 24.9919V45.5439C277.568 46.0479 277.4 46.2159 276.868 46.2159C276.308 46.2159 274.488 46.2439 272.864 46.1599C273.34 47.0279 273.928 48.5679 274.068 49.5199C276.588 49.5199 278.268 49.4359 279.416 48.9039C280.592 48.3439 280.984 47.3919 280.984 45.5719V24.9919H277.568ZM259.06 35.4079V38.7399H279.22V35.4079H259.06ZM267.208 26.8119V37.0599H270.568V26.8119H267.208Z" fill="#185ADB"/>
<path d="M21.92 114.72V119.04H34.68V114.72H21.92ZM19.52 103.84V120.6H24.08V108.16H32.48V120.44H37.24V103.84H19.52ZM16.96 96.2401L17.44 100.88C22.4 100.52 29.28 100 35.72 99.48L35.76 95.2001C28.96 95.6401 21.72 96.0401 16.96 96.2401ZM29.56 91.2001C32 94.72 34.48 99.3601 35.32 102.36L39.48 100.16C38.52 97.12 35.88 92.6401 33.36 89.2801L29.56 91.2001ZM23.92 83.0001C23.04 87.5601 21.24 93.7201 19.6 97.6801L23.64 98.72C25.44 94.96 27.6 89.12 29.24 84L23.92 83.0001ZM1.51999 91.0001V95.44H14.48V91.0001H1.51999ZM6.91999 83.0001C5.55999 90.9601 3.23999 101.56 1.39999 107.84L5.31999 109.96C7.27999 102.76 9.75999 92.0001 11.44 83.5201L6.91999 83.0001ZM3.79999 107.24C7.99999 110 13.08 114.2 15.32 117.2L18.2 113.36C15.88 110.36 10.6 106.48 6.39999 103.88L3.79999 107.24ZM12.72 91.0001V91.8801C11.96 104.52 8.39999 113.36 1.59999 116.92C2.55999 117.84 3.83999 119.6 4.47999 120.76C12.44 115.84 16.28 107 17.2 91.4L14.36 90.8801L13.52 91.0001H12.72Z" fill="#0A1931"/>
<path d="M68.36 85.6401L62.8 85.12C62.84 86.08 62.72 87.7601 62.52 88.9201C61.68 93.84 59.36 101.2 56.28 105.72C54.2 108.88 52 111.44 49.92 111.44C48.52 111.44 47.68 110.2 47.68 108.24C47.68 104.96 49.52 101.04 52.64 98.84C55.44 96.8 58.68 95.2801 62.84 95.2801C68.6 95.2801 72.32 99.04 72.32 104.48C72.32 109.48 68.88 113.96 60.08 114.72L63.12 119.36C71.48 118.08 77.52 113.2 77.52 104.72C77.52 96.4001 71.6 90.84 63.36 90.84C59.08 90.84 55.04 91.84 50.76 94.6001C46.08 97.6001 43 103.32 43 108.68C43 113.84 46.04 116.64 49.36 116.64C53.04 116.64 55.6 114.56 59.28 109.92C63.12 105.08 65.72 96.7601 67.4 89.6801C67.64 88.7201 68 86.7601 68.36 85.6401ZM51.48 86.9601L46.2 88.6401C46.92 90.0801 47.4 91.36 47.84 92.76C49.68 98.68 52.08 105.08 54.52 108.64C55.8 110.68 57 112.2 58.56 113.96L62.64 110.72C60.76 108.96 58.88 106.44 57.52 104.28C55.68 101.4 53.56 95.28 52.32 90.8C52 89.6401 51.68 88.3201 51.48 86.9601Z" fill="#0A1931"/>
<path d="M94.12 84.8L92.88 89.6401C96 90.44 104.88 92.2801 108.96 92.84L110.16 87.9201C106.64 87.5601 97.92 86.0001 94.12 84.8ZM94.4 92.84L89 92.12C88.76 97.08 87.8 104.92 87 108.84L91.64 109.96C91.96 109.16 92.4 108.52 93.12 107.68C95.64 104.64 99.68 102.96 104.2 102.96C107.72 102.96 110.16 104.84 110.16 107.44C110.16 112.56 103.84 115.48 91.8 113.8L93.36 119.04C109.96 120.48 115.76 114.88 115.76 107.56C115.76 102.72 111.68 98.4 104.68 98.4C100.48 98.4 96.48 99.6001 92.88 102.24C93.16 99.9201 93.84 95.08 94.4 92.84Z" fill="#0A1931"/>
<path d="M160.2 114.92L159.52 109.32C157.72 111.12 155.84 112.16 154.36 112.16C153.36 112.16 152.8 111.44 152.8 110.4C152.8 106.24 154.12 100.36 154.12 96.2401C154.12 92.8801 152.16 90.3201 147.84 90.3201C142.56 90.3201 135.88 96.3201 133.44 98.8801L133.48 105.04C136.68 100.96 142.64 95.08 146.36 95.08C148.08 95.08 149.08 96.0401 149.08 98.0001C149.08 101.68 147.64 107.52 147.64 111.88C147.64 115.76 149.64 117.92 152.64 117.92C155.92 117.92 158.32 116.64 160.2 114.92ZM132.56 95.8801L132.24 96.6001L132.16 97.6401C130.16 100.8 125.36 107.12 122.84 110.24L125.96 114.64C128.08 111.72 131.64 106.36 133.4 103.8L135.72 96.2801C136.4 95.2401 137.64 93.28 138.32 92.36L136.72 90.2801C134.92 90.8801 129.8 91.6401 127.28 91.76C125.84 91.84 124.92 91.84 123.8 91.8L124.32 96.9601C126.96 96.5601 130.76 96.08 132.56 95.8801ZM132.08 88.16C132.08 89.76 131.2 100.96 131.08 104.52C130.96 109.52 130.92 112.2 130.88 116.08C130.88 116.72 130.84 118.12 130.76 119.04H136.24C136.16 118.16 136 116.68 135.96 115.96C135.72 112.24 135.72 108.84 135.72 105.6C135.72 98.44 137.04 87.9601 137.72 84.76L131.88 84.6001C132.12 85.84 132.08 87.04 132.08 88.16Z" fill="#0A1931"/>
<path d="M170.4 86.5601L170.56 91.76C171.48 91.6 172.72 91.5201 173.8 91.44C175.96 91.2801 181.48 91.0801 183.52 91.0001C181.56 92.7601 177.36 96.1201 175.12 97.9601C172.8 99.9201 167.96 104 165.12 106.24L168.76 110C173.04 105.16 177 101.88 183.16 101.88C187.84 101.88 191.44 104.32 191.44 107.96C191.44 112.24 188 114.8 181.24 114.8C178.8 114.8 177.16 113.8 177.16 112.32C177.16 111.28 178.16 110.36 179.64 110.36C182 110.36 183.52 112.36 183.6 115.24L188.28 114.64C188.16 110.24 185.12 106.56 179.64 106.56C175.4 106.56 172.44 109.52 172.44 112.76C172.44 116.8 176.64 119.32 182.2 119.32C191.88 119.32 196.68 114.32 196.68 108C196.68 102.2 191.52 97.9601 184.72 97.9601C183.48 97.9601 182.28 98.04 180.92 98.4C183.48 96.4 187.68 92.88 189.84 91.36C190.72 90.68 191.68 90.12 192.6 89.5201L190.04 85.9201C189.56 86.08 188.64 86.24 186.96 86.36C184.68 86.56 176.16 86.76 174 86.76C172.88 86.76 171.52 86.6801 170.4 86.5601Z" fill="#0A1931"/>
<path d="M218.64 84C218.36 89.2401 218.92 107.52 202.84 116.44C204.48 117.56 206.04 119.04 206.88 120.28C223.24 110.24 223.76 90.72 224.12 84H218.64ZM223.96 85.0401L219.32 85.5201C219.64 89.6401 220.4 111.68 237.64 120.24C238.36 118.92 239.8 117.32 241.32 116.16C224.92 108.48 224.08 88.5201 223.96 85.0401Z" fill="#0A1931"/>
<path d="M261.4 91.3201V95.8801H281.04V91.3201H261.4ZM272.12 83.08V114.72C272.12 115.4 271.84 115.64 271.12 115.64C270.4 115.64 267.92 115.68 265.72 115.6C266.4 116.92 267.12 119.08 267.36 120.44C270.84 120.44 273.36 120.32 275 119.52C276.64 118.76 277.2 117.44 277.2 114.72V83.08H272.12ZM271.72 93.5201C269.04 100.04 263.56 107.2 257.96 110.76C259.16 111.72 260.64 113.4 261.44 114.68C267.08 110.44 272.68 102.84 275.6 95.8801L271.72 93.5201ZM244.2 91.2801V95.8801H260.28V91.2801H244.2ZM250.36 83.04V120.6H255.2V83.04H250.36ZM250.2 94.36C248.96 99.56 246.16 105.68 243.04 109.2C243.84 110.48 245.04 112.52 245.52 114C248.96 109.8 251.8 102.08 253.32 95.48L250.2 94.36ZM254.84 96.6001L252.48 98.9601C254.04 100.8 257.24 104.96 258.64 107.24L261.44 103.12C260.48 102.04 256.12 97.6001 254.84 96.6001Z" fill="#0A1931"/>
<path d="M303.72 114.6V118.84H317.52V114.6H303.72ZM301.48 103.56V120.56H305.88V107.8H315.2V120.4H319.84V103.56H301.48ZM300.08 84.9201V89.3201H318.4V84.9201H300.08ZM316.16 84.9201V85.6001C316 93.16 315.76 96.04 315.16 96.72C314.84 97.08 314.44 97.16 313.88 97.16C313.12 97.16 311.48 97.16 309.8 97.0001C310.56 98.2001 311.08 100.04 311.2 101.44C313.16 101.44 315 101.44 316.08 101.28C317.36 101.12 318.24 100.8 319.08 99.76C320.08 98.48 320.36 95 320.56 86.64C320.6 86.08 320.64 84.9201 320.64 84.9201H316.16ZM305.8 86.72C305.36 91.8801 304.44 96.2801 298.44 98.8801C299.44 99.6801 300.72 101.36 301.28 102.48C308.36 99.12 309.92 93.48 310.52 86.72H305.8ZM290 83.08C289.08 85.8801 287.36 89.72 285.92 92.08L289.12 93.48C290.68 91.24 292.52 87.6801 294.16 84.6401L290 83.08ZM294.6 87.8C292.52 92.12 288.84 98.0001 285.88 101.64L288.64 103.2C291.68 99.7201 295.6 94.16 298.48 89.5601L294.6 87.8ZM283.84 92.5601C285.88 94.48 288.32 97.2801 289.28 99.2001L291.76 95.48C290.72 93.64 288.24 91.1201 286.12 89.2801L283.84 92.5601ZM293.4 97.3601C294.92 100.12 296.28 103.76 296.72 106.08L300.12 104.56C299.64 102.24 298.12 98.72 296.56 96.04L293.4 97.3601ZM283.8 100.68L284.2 104.88C288.08 104.6 293.2 104.28 298.12 103.92L298.16 100.12C292.88 100.36 287.48 100.56 283.8 100.68ZM294.28 107.32C295.16 109.68 296.2 112.76 296.6 114.76L300.12 113.52C299.68 111.52 298.64 108.52 297.64 106.24L294.28 107.32ZM285.52 106.56C285.2 109.96 284.56 113.52 283.4 115.88C284.4 116.28 286.2 117.12 287.04 117.64C288.2 115.08 289.08 111.08 289.48 107.24L285.52 106.56ZM290 102.8V120.64H294.2V102.8H290Z" fill="#0A1931"/>
<path d="M343.04 87.84C346.28 93.04 352.84 98.6401 359.24 101.88C360.12 100.4 361.2 98.76 362.44 97.48C355.88 94.9601 349.52 89.6801 345.4 82.9201H340.2C337.44 88.2401 331.2 94.64 324.08 98.04C325.12 99.04 326.48 100.84 327.08 102.04C333.8 98.4801 339.92 92.9601 343.04 87.84ZM347.48 97.6801V120.6H352.48V97.6801H347.48ZM333.68 97.8801V102.72C333.68 107.36 332.96 113 325.92 117.2C327.2 117.96 329.08 119.56 329.92 120.6C337.8 115.68 338.6 108.52 338.6 102.84V97.8801H333.68Z" fill="#0A1931"/>
<path d="M381 83.04V116.04C381 116.72 380.76 116.96 380 117C379.32 117 376.96 117.04 375.04 116.96C375.64 117.92 376.4 119.6 376.64 120.72C380.04 120.72 382.2 120.64 383.76 120.04C385.28 119.36 385.88 118.4 385.88 116.04V83.04H381ZM366 85.6401V89.44H401.2V85.6401H366ZM374.68 94.08H392.36V96.0001H374.68V94.08ZM370.12 91.04V99.04H397.28V91.04H370.12ZM369.12 100.8V104.08H393.08V116.44H397.96V100.8H369.12ZM365.08 105.76V109.4H402.12V105.76H365.08ZM368.8 111.28V114.76H395.68V111.28H368.8Z" fill="#0A1931"/>
<path d="M406.24 107.52V111.44H441.92V107.52H406.24ZM406.32 89.5601V93.5201H441.76V89.5601H406.32ZM407.96 96.72V100.48H440.24V96.72H407.96ZM409.96 102.24V105.72H438.36V102.24H409.96ZM421.56 98.6401V120.6H426.32V98.6401H421.56ZM418.08 83.0001V91.44H422.56V83.0001H418.08ZM425.48 83.0001V91.16H430.04V83.0001H425.48ZM420.68 109.28C417.4 112.32 411.04 114.96 405 116.12C406.04 117.12 407.44 118.96 408.08 120.12C414.24 118.52 420.64 115.12 424.44 110.96L420.68 109.28ZM427.28 109.16L423.56 110.64C427.32 115.16 433.44 118.56 439.76 120.16C440.48 118.84 441.92 116.84 443 115.84C436.76 114.8 430.52 112.32 427.28 109.16ZM434.68 83.32C434.12 85.08 433.08 87.5201 432.16 89.16L436.04 90.3601C437.08 88.8801 438.44 86.72 439.72 84.5201L434.68 83.32ZM429.4 91.9201C429 93.4001 428.16 95.44 427.44 96.8801L431.52 98.04C432.36 96.76 433.4 95 434.48 93.08L429.4 91.9201ZM409.2 84.6001C410.28 86.44 411.56 88.8801 412 90.44L416.36 88.8801C415.8 87.3201 414.48 84.9201 413.32 83.2001L409.2 84.6001ZM414.28 93.5601C414.88 94.72 415.56 96.4 415.8 97.44L420.68 96.6001C420.36 95.5201 419.6 93.9601 418.92 92.84L414.28 93.5601Z" fill="#0A1931"/>
<path d="M446.36 95.16V99.4H482.36V95.16H446.36ZM449.84 87.36V91.5201H472.72V87.36H449.84ZM456.88 109.12V112.72H474.76V109.12H456.88ZM456.88 115.4V119.44H474.76V115.4H456.88ZM459.28 83.04V97.5201H464V83.04H459.28ZM476.88 84.2001C469.88 94.2401 458.12 101.88 445.12 106.04C446 107 447.44 109 448 110.04C460.96 105.28 473.16 97.2401 481 86.3201L476.88 84.2001ZM454.2 102.6V120.64H459V106.52H472.8V120.48H477.8V102.6H454.2Z" fill="#0A1931"/>
<path d="M23.64 152.6L18.16 152.44C17.76 156.64 16.88 161.24 15.72 165C14.04 170.4 12.52 172.96 10.8 172.96C9.27999 172.96 7.67999 171 7.67999 166.96C7.67999 161.92 12.32 155 20.8 155C27.72 155 31.64 159.48 31.64 165.76C31.64 171.64 27.64 175.28 22.56 176.52C21.48 176.76 20.36 176.96 18.8 177.16L21.84 181.88C31.92 180.32 37.08 174.36 37.08 165.96C37.08 157.2 30.8 150.32 20.92 150.32C10.56 150.32 2.51999 158.24 2.51999 167.44C2.51999 174.2 6.19999 179.12 10.68 179.12C15.04 179.12 18.48 174.16 20.88 166.08C22.28 161.36 23.08 156.68 23.64 152.6Z" fill="#0A1931"/>
<path d="M59.32 148.08L53.2 147.6C53.32 148.56 53.28 150.2 53.08 151.68C52.8 154.04 51.88 158.44 50.88 162.2C49.36 167.8 46.32 176.16 43.96 180.2L49.52 182.08C51.72 177.32 54.4 169.16 55.84 163.56C56.92 159.48 57.92 154.6 58.48 151.88C58.68 151 59.04 149.2 59.32 148.08ZM49.12 154.08C47.48 154.08 46.16 154 44.08 153.76L44.24 158.76C45.64 158.84 47.12 158.92 49.08 158.92C53.6 158.92 59.88 158.24 64.84 157.08V152.08C59.64 153.32 54 154.08 49.12 154.08ZM61.68 160.2V164.88C64.2 164.56 66.68 164.44 69.44 164.44C71.84 164.44 74.28 164.72 76.32 164.96L76.4 160.16C74.08 159.92 71.68 159.8 69.4 159.8C66.8 159.8 63.92 159.96 61.68 160.2ZM63.84 170.24L59.08 169.8C58.76 171.36 58.4 173.28 58.4 175.16C58.4 179.2 62 181.48 68.76 181.48C71.96 181.48 74.64 181.24 76.88 180.92L77.08 175.84C74.24 176.36 71.48 176.64 68.8 176.64C64.48 176.64 63.32 175.32 63.32 173.56C63.32 172.68 63.56 171.4 63.84 170.24Z" fill="#0A1931"/>
<path d="M108.76 148.64L103.2 148.12C103.24 149.08 103.12 150.76 102.92 151.92C102.08 156.84 99.76 164.2 96.68 168.72C94.6 171.88 92.4 174.44 90.32 174.44C88.92 174.44 88.08 173.2 88.08 171.24C88.08 167.96 89.92 164.04 93.04 161.84C95.84 159.8 99.08 158.28 103.24 158.28C109 158.28 112.72 162.04 112.72 167.48C112.72 172.48 109.28 176.96 100.48 177.72L103.52 182.36C111.88 181.08 117.92 176.2 117.92 167.72C117.92 159.4 112 153.84 103.76 153.84C99.48 153.84 95.44 154.84 91.16 157.6C86.48 160.6 83.4 166.32 83.4 171.68C83.4 176.84 86.44 179.64 89.76 179.64C93.44 179.64 96 177.56 99.68 172.92C103.52 168.08 106.12 159.76 107.8 152.68C108.04 151.72 108.4 149.76 108.76 148.64ZM91.88 149.96L86.6 151.64C87.32 153.08 87.8 154.36 88.24 155.76C90.08 161.68 92.48 168.08 94.92 171.64C96.2 173.68 97.4 175.2 98.96 176.96L103.04 173.72C101.16 171.96 99.28 169.44 97.92 167.28C96.08 164.4 93.96 158.28 92.72 153.8C92.4 152.64 92.08 151.32 91.88 149.96Z" fill="#0A1931"/>
<path d="M144.84 152.6L139.36 152.44C138.96 156.64 138.08 161.24 136.92 165C135.24 170.4 133.72 172.96 132 172.96C130.48 172.96 128.88 171 128.88 166.96C128.88 161.92 133.52 155 142 155C148.92 155 152.84 159.48 152.84 165.76C152.84 171.64 148.84 175.28 143.76 176.52C142.68 176.76 141.56 176.96 140 177.16L143.04 181.88C153.12 180.32 158.28 174.36 158.28 165.96C158.28 157.2 152 150.32 142.12 150.32C131.76 150.32 123.72 158.24 123.72 167.44C123.72 174.2 127.4 179.12 131.88 179.12C136.24 179.12 139.68 174.16 142.08 166.08C143.48 161.36 144.28 156.68 144.84 152.6Z" fill="#0A1931"/>
<path d="M173.4 179.04V182.56H192.92V179.04H173.4ZM179.12 154.44V159.24H183.76V154.44H179.12ZM164.36 157.2V165.16H168.88V160.8H194.48V165.16H199.16V157.2H164.36ZM173.24 162.48V165.92H188.04V168H173.24V171.44H192.84V162.48H173.24ZM173.44 173.24V176.76H191.08V183.64H195.88V173.24H173.44ZM170.6 162.48V183.68H175.16V162.48H170.6ZM168.4 148.84V152.6H181V148.84H168.4ZM184.6 148.84V152.6H200.12V148.84H184.6ZM168.56 145.72C167.32 148.76 165.04 151.88 162.64 153.88C163.72 154.44 165.64 155.72 166.56 156.44C168.92 154.16 171.48 150.52 173.04 146.92L168.56 145.72ZM184.84 145.72C183.68 148.64 181.44 151.56 178.88 153.4C180.08 153.92 182.12 154.96 183.08 155.68C185.48 153.6 187.96 150.28 189.4 146.84L184.84 145.72ZM169.88 151.76C170.84 153.2 171.88 155.24 172.24 156.48L176.56 155.24C176.08 153.96 174.96 152.04 173.96 150.68L169.88 151.76ZM187.76 151.88C188.88 153.28 190.2 155.32 190.72 156.52L195.16 155.28C194.52 154 193.12 152.08 191.96 150.76L187.76 151.88Z" fill="#0A1931"/>
<path d="M222.52 158.92H234.64V162.36H222.52V158.92ZM222.52 151.8H234.64V155.16H222.52V151.8ZM218.2 147.72V166.4H239.2V147.72H218.2ZM217.92 169.84V174.16H239.64V169.84H217.92ZM215.12 178V182.32H240.96V178H215.12ZM203.4 148.32V152.8H216.68V148.32H203.4ZM203.8 159.84V164.28H216V159.84H203.8ZM202.96 175.04L204.04 179.92C207.88 178.68 212.68 177.12 217.16 175.6L216.32 171C211.52 172.56 206.4 174.16 202.96 175.04ZM207.84 150.08V175.4L212.4 174.68V150.08H207.84ZM226.64 149.44V164.52H226.2V180.04H231.12V164.52H230.68V149.44H226.64Z" fill="#0A1931"/>
<path d="M254.72 148.36L251.84 152.76C254.48 154.24 258.64 156.92 260.88 158.48L263.84 154.08C261.76 152.6 257.36 149.8 254.72 148.36ZM247.32 176.76L250.32 182C253.84 181.36 259.6 179.36 263.68 177.08C270.2 173.28 275.88 168.24 279.56 162.68L276.48 157.24C273.32 162.96 267.72 168.44 260.92 172.24C256.56 174.64 251.8 176 247.32 176.76ZM248.56 157.48L245.68 161.88C248.36 163.32 252.52 166 254.76 167.6L257.72 163.12C255.64 161.64 251.24 158.92 248.56 157.48Z" fill="#0A1931"/>
<path d="M316.12 152.92L312.88 150.48C312.04 150.76 310.48 150.96 308.72 150.96C306.96 150.96 296.72 150.96 294.6 150.96C293.44 150.96 290.96 150.84 289.88 150.68V156.4C290.76 156.32 292.96 156.12 294.6 156.12C296.32 156.12 306.52 156.12 308.2 156.12C307.28 158.96 304.84 162.92 302.2 165.92C298.44 170.08 292.28 174.96 285.8 177.36L289.96 181.68C296.16 178.76 302.2 173.8 306.68 168.64C310.12 164.64 313.08 159.2 314.72 155.4C315.08 154.56 315.8 153.36 316.12 152.92ZM307.2 165.32L303.44 169.04C307.72 172.92 312.08 177.68 315.04 181.8L319.6 177.84C317 174.64 311.32 168.68 307.2 165.32Z" fill="#0A1931"/>
<path d="M331.24 149.36V154.52C332.44 154.44 334.16 154.36 335.52 154.36C338.04 154.36 349.24 154.36 351.6 154.36C352.96 154.36 354.52 154.44 355.88 154.52V149.36C354.52 149.52 352.92 149.64 351.6 149.64C349.24 149.64 338.04 149.64 335.52 149.64C334.16 149.64 332.52 149.52 331.24 149.36ZM326.56 159.56V164.8C327.68 164.72 329.24 164.68 330.4 164.68C332.92 164.68 354.24 164.68 356.6 164.68C357.72 164.68 359.24 164.72 360.28 164.76V159.56C359.2 159.76 357.44 159.8 356.6 159.8C354.24 159.8 332.92 159.8 330.4 159.8C329.16 159.8 327.76 159.72 326.56 159.56ZM347.04 162.36L341.48 162.4C341.48 166.68 340.92 170.44 338.92 173.48C337.36 175.84 334.52 178.12 331.68 179.24L336.4 182.64C339.92 180.8 343.04 177.72 344.4 174.92C346.12 171.6 347.04 167.6 347.04 162.36Z" fill="#0A1931"/>
<path d="M384.549 149.84L378.189 148.56C378.029 149.88 377.829 151.16 377.269 153.16C375.949 157.8 371.789 170.92 369.629 176.04L375.509 175.84C377.229 171.68 381.389 158.8 382.869 154.32C383.469 152.52 384.029 151.04 384.549 149.84ZM391.709 162.76L386.749 164.84C389.589 168.68 393.309 176.96 395.109 181.8L400.509 179.4C398.669 174.96 394.589 167.08 391.709 162.76ZM369.229 174.24C367.949 174.28 366.189 174.32 364.829 174.28L365.789 180.16C367.029 180 368.549 179.8 369.549 179.68C374.949 179.12 388.709 177.68 394.629 176.92L393.469 171.8C387.869 172.56 374.789 174.04 369.229 174.24Z" fill="#0A1931"/>
<path d="M314.98 17.4401L309.06 16.8C309.1 19.8001 308.66 23.2 307.9 26.8001C306.78 31.84 303.78 42.4001 299.02 48.8001L304.26 50.8801C308.42 44.1201 311.66 32.7201 312.98 27.08C313.38 25.04 313.9 22.5601 314.26 20.7601C314.5 19.7601 314.74 18.4801 314.98 17.4401ZM328.78 21.16L323.98 23.2C326.86 26.76 329.7 33.9601 330.74 38.4401L335.82 36.0801C334.58 32.2401 331.22 24.6401 328.78 21.16ZM298.78 25.64L299.26 31.0401C300.46 30.8401 302.54 30.5601 303.7 30.4001C305.9 30.1201 312.78 29.2401 315.18 29.2401C317.66 29.2401 319.06 29.7201 319.06 32.9201C319.06 36.8401 318.54 41.7201 317.42 43.9601C316.78 45.2801 315.78 45.6801 314.42 45.6801C313.38 45.6801 311.1 45.2801 309.54 44.8401L310.38 50.1201C311.78 50.4401 313.66 50.68 315.22 50.68C318.22 50.68 320.42 49.8001 321.78 47.0001C323.46 43.5601 324.02 37.0801 324.02 32.3601C324.02 26.56 321.02 24.68 316.82 24.68C313.82 24.68 306.26 25.5601 303.06 25.64C301.58 25.6801 300.22 25.7201 298.78 25.64Z" fill="#0A1931"/>
<path d="M349.86 16.8L348.62 21.6401C351.74 22.4401 360.62 24.28 364.7 24.84L365.9 19.92C362.38 19.56 353.66 18.0001 349.86 16.8ZM350.14 24.84L344.74 24.12C344.5 29.0801 343.54 36.9201 342.74 40.8401L347.38 41.9601C347.7 41.1601 348.14 40.5201 348.86 39.6801C351.38 36.6401 355.42 34.9601 359.94 34.9601C363.46 34.9601 365.9 36.8401 365.9 39.4401C365.9 44.5601 359.58 47.4801 347.54 45.8001L349.1 51.0401C365.7 52.48 371.5 46.8801 371.5 39.5601C371.5 34.7201 367.42 30.4001 360.42 30.4001C356.22 30.4001 352.22 31.6001 348.62 34.2401C348.9 31.9201 349.58 27.08 350.14 24.84Z" fill="#0A1931"/>
<path d="M62.5897 54.0033H52.2967V15.1518C48.536 18.6737 44.1038 21.2785 39 22.9661V13.6109C41.6862 12.7304 44.6044 11.0673 47.7546 8.62146C50.9048 6.15119 53.0659 3.27738 54.2381 0H62.5897V54.0033Z" fill="#185ADB"/>
<path d="M86.4103 0C91.6117 0 95.6777 1.85881 98.6081 5.57643C102.1 9.97888 103.846 17.2796 103.846 27.4786C103.846 37.6531 102.088 44.9661 98.5714 49.4175C95.6654 53.0862 91.6117 54.9205 86.4103 54.9205C81.1844 54.9205 76.9719 52.915 73.7729 48.9038C70.5739 44.8683 68.9744 37.6898 68.9744 27.3685C68.9744 17.2429 70.7326 9.95442 74.2491 5.50306C77.1551 1.83435 81.2088 0 86.4103 0ZM86.4103 8.54808C85.1648 8.54808 84.0537 8.95164 83.0769 9.75875C82.1001 10.5414 81.3431 11.96 80.8059 14.0145C80.0977 16.6804 79.7436 21.1684 79.7436 27.4786C79.7436 33.7888 80.061 38.1301 80.696 40.5025C81.3309 42.8505 82.1245 44.4158 83.0769 45.1984C84.0537 45.9811 85.1648 46.3724 86.4103 46.3724C87.6557 46.3724 88.7668 45.9811 89.7436 45.1984C90.7204 44.3913 91.4774 42.9605 92.0147 40.9061C92.7228 38.2646 93.0769 33.7888 93.0769 27.4786C93.0769 21.1684 92.7595 16.8394 92.1245 14.4914C91.4896 12.119 90.6838 10.5414 89.707 9.75875C88.7546 8.95164 87.6557 8.54808 86.4103 8.54808Z" fill="#185ADB"/>
<path d="M109.711 43.6943H120.004V51.0684C120.004 54.0522 119.747 56.4002 119.234 58.1123C118.722 59.8488 117.745 61.4019 116.304 62.7715C114.888 64.1412 113.081 65.2173 110.883 66L108.868 61.7443C110.944 61.0595 112.421 60.1178 113.3 58.9194C114.179 57.721 114.643 56.0823 114.692 54.0033H109.711V43.6943Z" fill="#185ADB"/>
<path d="M144.048 0C149.249 0 153.315 1.85881 156.245 5.57643C159.737 9.97888 161.484 17.2796 161.484 27.4786C161.484 37.6531 159.725 44.9661 156.209 49.4175C153.303 53.0862 149.249 54.9205 144.048 54.9205C138.822 54.9205 134.609 52.915 131.41 48.9038C128.211 44.8683 126.612 37.6898 126.612 27.3685C126.612 17.2429 128.37 9.95442 131.886 5.50306C134.792 1.83435 138.846 0 144.048 0ZM144.048 8.54808C142.802 8.54808 141.691 8.95164 140.714 9.75875C139.737 10.5414 138.98 11.96 138.443 14.0145C137.735 16.6804 137.381 21.1684 137.381 27.4786C137.381 33.7888 137.698 38.1301 138.333 40.5025C138.968 42.8505 139.762 44.4158 140.714 45.1984C141.691 45.9811 142.802 46.3724 144.048 46.3724C145.293 46.3724 146.404 45.9811 147.381 45.1984C148.358 44.3913 149.115 42.9605 149.652 40.9061C150.36 38.2646 150.714 33.7888 150.714 27.4786C150.714 21.1684 150.397 16.8394 149.762 14.4914C149.127 12.119 148.321 10.5414 147.344 9.75875C146.392 8.95164 145.293 8.54808 144.048 8.54808Z" fill="#185ADB"/>
<path d="M185.806 0C191.007 0 195.073 1.85881 198.004 5.57643C201.496 9.97888 203.242 17.2796 203.242 27.4786C203.242 37.6531 201.484 44.9661 197.967 49.4175C195.061 53.0862 191.007 54.9205 185.806 54.9205C180.58 54.9205 176.368 52.915 173.169 48.9038C169.969 44.8683 168.37 37.6898 168.37 27.3685C168.37 17.2429 170.128 9.95442 173.645 5.50306C176.551 1.83435 180.604 0 185.806 0ZM185.806 8.54808C184.56 8.54808 183.449 8.95164 182.473 9.75875C181.496 10.5414 180.739 11.96 180.201 14.0145C179.493 16.6804 179.139 21.1684 179.139 27.4786C179.139 33.7888 179.457 38.1301 180.092 40.5025C180.726 42.8505 181.52 44.4158 182.473 45.1984C183.449 45.9811 184.56 46.3724 185.806 46.3724C187.051 46.3724 188.162 45.9811 189.139 45.1984C190.116 44.3913 190.873 42.9605 191.41 40.9061C192.118 38.2646 192.473 33.7888 192.473 27.4786C192.473 21.1684 192.155 16.8394 191.52 14.4914C190.885 12.119 190.079 10.5414 189.103 9.75875C188.15 8.95164 187.051 8.54808 185.806 8.54808Z" fill="#185ADB"/>
<path d="M227.564 0C232.766 0 236.831 1.85881 239.762 5.57643C243.254 9.97888 245 17.2796 245 27.4786C245 37.6531 243.242 44.9661 239.725 49.4175C236.819 53.0862 232.766 54.9205 227.564 54.9205C222.338 54.9205 218.126 52.915 214.927 48.9038C211.728 44.8683 210.128 37.6898 210.128 27.3685C210.128 17.2429 211.886 9.95442 215.403 5.50306C218.309 1.83435 222.363 0 227.564 0ZM227.564 8.54808C226.319 8.54808 225.208 8.95164 224.231 9.75875C223.254 10.5414 222.497 11.96 221.96 14.0145C221.252 16.6804 220.897 21.1684 220.897 27.4786C220.897 33.7888 221.215 38.1301 221.85 40.5025C222.485 42.8505 223.278 44.4158 224.231 45.1984C225.208 45.9811 226.319 46.3724 227.564 46.3724C228.81 46.3724 229.921 45.9811 230.897 45.1984C231.874 44.3913 232.631 42.9605 233.169 40.9061C233.877 38.2646 234.231 33.7888 234.231 27.4786C234.231 21.1684 233.913 16.8394 233.278 14.4914C232.643 12.119 231.838 10.5414 230.861 9.75875C229.908 8.95164 228.81 8.54808 227.564 8.54808Z" fill="#185ADB"/>
</svg>
