<svg width="198" height="45" viewBox="0 0 198 45" fill="none" xmlns="http://www.w3.org/2000/svg">
<path d="M55.5249 17.6468V24.8067H66.5891V28.5539H55.5249V37.0514H50.9959V13.8997H66.9415V17.6468H55.5249Z" fill="#3C3C3C"/>
<path d="M74.3281 37.3772C72.7263 37.3772 71.4729 36.9099 70.5679 35.9752C69.6629 35.0406 69.2131 33.7229 69.2184 32.0223C69.2184 30.1844 69.779 28.7825 70.9003 27.8164C72.0215 26.8503 73.6447 26.3572 75.7697 26.3372L79.3456 26.2729V25.3683C79.3456 24.2078 79.1574 23.3504 78.781 22.7959C78.5615 22.4998 78.2769 22.2666 77.9527 22.117C77.6285 21.9673 77.2747 21.906 76.9229 21.9384C76.2883 21.8795 75.6574 22.0888 75.165 22.5215C74.7347 23.0611 74.4889 23.7416 74.4682 24.4508L69.9713 24.2193C70.0669 23.4353 70.3135 22.6811 70.6953 22.0044C71.0772 21.3277 71.586 20.7431 72.1897 20.2878C73.391 19.3903 75.0302 18.943 77.1071 18.9458C79.1841 18.9487 80.8006 19.5017 81.9565 20.605C83.0938 21.7112 83.661 23.2832 83.6584 25.3211V31.795C83.6584 32.794 83.7625 33.48 83.9747 33.8573C84.0836 34.0463 84.2393 34.1992 84.4245 34.2991C84.6098 34.399 84.8172 34.442 85.0239 34.4232C85.3439 34.4254 85.6633 34.3924 85.9769 34.3246V36.8241L85.2882 37.0042C85.084 37.0599 84.8877 37.1028 84.6715 37.1371C84.4553 37.1714 84.251 37.1971 84.0188 37.2186C83.7865 37.24 83.5222 37.2529 83.2179 37.2529C82.1314 37.2529 81.3305 36.967 80.8152 36.3954C80.2442 35.6927 79.9162 34.8011 79.8862 33.8701H79.7941C78.5848 36.2082 76.7628 37.3772 74.3281 37.3772ZM79.3456 28.8025L77.1392 28.8325C76.4143 28.8248 75.6932 28.945 75.0048 29.1883C74.6063 29.3553 74.269 29.6562 74.0438 30.0458C73.8039 30.5306 73.6904 31.0756 73.7154 31.6236C73.664 32.3013 73.8591 32.9741 74.26 33.5014C74.447 33.7084 74.6729 33.8705 74.9228 33.9769C75.1727 34.0834 75.4409 34.1317 75.7096 34.1188C76.3678 34.1248 77.0124 33.9187 77.5596 33.5271C78.1277 33.1203 78.5817 32.5556 78.8731 31.8937C79.1875 31.205 79.3492 30.4479 79.3456 29.6814V28.8025Z" fill="#3C3C3C"/>
<path d="M89.8572 37.0516V12.665H94.17V37.0516H89.8572Z" fill="#3C3C3C"/>
<path d="M105.511 37.3772C102.996 37.3772 101.052 36.5755 99.6801 34.972C98.3079 33.3685 97.6218 31.1305 97.6218 28.258C97.6218 25.3255 98.3133 23.0389 99.6961 21.3982C101.079 19.7576 103.037 18.9387 105.571 18.9416C107.307 18.8693 109.015 19.425 110.42 20.5193C111.708 21.5926 112.567 23.1496 112.823 24.8753L108.482 25.1025C108.399 24.2913 108.077 23.5296 107.561 22.9288C107.284 22.646 106.955 22.4276 106.595 22.2875C106.235 22.1473 105.853 22.0883 105.47 22.1142C103.252 22.1142 102.143 24.1021 102.143 28.0779C102.143 32.1767 103.273 34.2246 105.535 34.2217C106.294 34.2457 107.032 33.9485 107.589 33.3943C108.193 32.7251 108.558 31.8491 108.618 30.9205L112.947 31.1348C112.808 32.3221 112.382 33.4501 111.713 34.4078C111.043 35.3656 110.151 36.12 109.127 36.5969C107.987 37.1298 106.754 37.3959 105.511 37.3772Z" fill="#3C3C3C"/>
<path d="M133.105 28.1421C133.105 31.0232 132.359 33.2826 130.867 34.9204C129.374 36.5582 127.308 37.3771 124.668 37.3771C122.075 37.3771 120.044 36.5553 118.573 34.9118C117.102 33.2684 116.365 31.0118 116.362 28.1421C116.362 25.2838 117.099 23.0358 118.573 21.3981C120.047 19.7603 122.109 18.9414 124.76 18.9414C127.472 18.9414 129.541 19.7331 130.967 21.3166C132.392 22.9001 133.105 25.1752 133.105 28.1421ZM128.596 28.1421C128.596 26.0298 128.273 24.4964 127.627 23.5417C127.308 23.0727 126.884 22.6965 126.395 22.4472C125.905 22.1979 125.365 22.0834 124.824 22.1141C122.205 22.1141 120.895 24.1234 120.895 28.1421C120.895 30.1257 121.215 31.6349 121.853 32.6695C122.146 33.1665 122.557 33.5717 123.043 33.8442C123.53 34.1167 124.075 34.2469 124.624 34.2216C127.269 34.2216 128.592 32.1951 128.592 28.1421H128.596Z" fill="#3C3C3C"/>
<path d="M147.281 37.0511V27.0744C147.281 23.9532 146.294 22.3926 144.321 22.3926C143.821 22.385 143.328 22.5127 142.886 22.7638C142.444 23.0148 142.069 23.3812 141.795 23.8289C141.121 24.9212 140.786 26.2128 140.837 27.5203V37.0511H136.525V23.2458C136.525 22.294 136.525 21.5309 136.485 20.9049C136.445 20.279 136.433 19.7516 136.401 19.2714H140.513C140.545 19.4815 140.585 20.0346 140.637 20.9392C140.689 21.8439 140.713 22.4655 140.713 22.8042H140.777C141.231 21.6144 141.992 20.5881 142.972 19.8459C143.911 19.2122 145.005 18.8913 146.115 18.9242C147.877 18.9242 149.228 19.5058 150.168 20.6691C151.107 21.8324 151.577 23.5302 151.577 25.7625V37.0511H147.281Z" fill="#3C3C3C"/>
<path d="M174.907 25.2954C174.953 27.464 174.502 29.6115 173.594 31.5506C172.765 33.2779 171.472 34.6996 169.882 35.6322C168.191 36.5997 166.296 37.0868 164.379 37.047H155.63V13.8953H163.458C167.097 13.8953 169.915 14.8785 171.912 16.845C173.909 18.8114 174.907 21.6282 174.907 25.2954ZM170.346 25.2954C170.346 22.8087 169.743 20.9123 168.536 19.606C167.329 18.2998 165.606 17.6453 163.366 17.6424H160.163V33.3042H163.999C164.872 33.3444 165.743 33.1725 166.545 32.8012C167.348 32.43 168.061 31.869 168.632 31.1605C169.775 29.7199 170.346 27.7649 170.346 25.2954Z" fill="#3C3C3C"/>
<path d="M197.496 30.4404C197.496 32.544 196.759 34.1704 195.286 35.3194C193.812 36.4684 191.766 37.0401 189.147 37.0343H178.335V13.8826H188.234C190.874 13.8826 192.876 14.3728 194.241 15.3531C195.605 16.3335 196.275 17.7898 196.251 19.722C196.285 20.9242 195.925 22.1013 195.234 23.049C194.427 24.0233 193.328 24.6662 192.126 24.8668C193.872 25.084 195.207 25.6728 196.131 26.6332C196.591 27.1325 196.95 27.7286 197.185 28.3838C197.42 29.039 197.526 29.7392 197.496 30.4404ZM191.694 20.3736C191.694 19.3318 191.385 18.5944 190.765 18.1528C190.144 17.7112 189.231 17.4968 188.01 17.4968H182.856V23.2333H188.042C189.323 23.2333 190.248 22.9932 190.845 22.5173C191.136 22.2585 191.365 21.9288 191.512 21.5559C191.66 21.1829 191.722 20.7776 191.694 20.3736ZM192.951 30.0674C192.951 27.898 191.499 26.8133 188.594 26.8133H182.856V33.4415H188.766C190.219 33.4415 191.28 33.1557 191.95 32.5841C192.29 32.2782 192.557 31.8909 192.731 31.4537C192.905 31.0165 192.98 30.5415 192.951 30.0674Z" fill="#3C3C3C"/>
<path d="M43.0912 19.8203C43.0912 11.6057 30.0848 8.90042 18.7643 11.9445C7.44381 14.9885 -0.276715 20.9779 0.0075985 27.3575C0.351979 34.7275 13.09 37.3857 26.5809 33.5399L23.7778 25.8226C23.7018 25.8569 6.73503 29.9171 6.55883 23.516C6.4387 19.3873 11.3001 16.0132 19.409 13.8352C27.518 11.6572 37.5531 12.6776 38.1457 18.7228C39.4712 32.5838 19.0046 39.315 17.6271 39.6194C31.2181 38.0288 43.1032 29.364 43.0912 19.8203Z" fill="#4482EA"/>
<path d="M29.7844 36.1639L35.9793 0L23.077 17.9555L29.7844 36.1639Z" fill="#1B3D75"/>
<path d="M12.0248 26.3459L35.9792 0L29.7724 21.6598L12.0248 26.3459Z" fill="#4482EA"/>
<path d="M31.2741 35.3793C25.2675 42.5777 12.8538 44.9058 11.7886 44.9958C25.2554 45.1888 37.8494 38.3718 39.2749 29.1326C36.9828 31.7158 34.272 33.8323 31.2741 35.3793Z" fill="#1B3D75"/>
</svg>
