<svg xmlns="http://www.w3.org/2000/svg" viewBox="0 0 251.32 251.32"><defs><style>.cls-1{fill:#185adb;}.cls-2{fill:#fff;}.cls-3{fill:none;stroke:#fff;}</style></defs><g id="レイヤー_2" data-name="レイヤー 2"><g id="レイヤー_1-2" data-name="レイヤー 1"><path class="cls-1" d="M155.74,9.74A24.44,24.44,0,0,1,189,24h0a24.42,24.42,0,0,0,20.72,16.32h0A24.44,24.44,0,0,1,231.3,69.25h0a24.44,24.44,0,0,0,9.79,24.5h0a24.43,24.43,0,0,1,4.26,35.88h0a24.44,24.44,0,0,0-3.77,26.11h0A24.44,24.44,0,0,1,227.33,189h0A24.42,24.42,0,0,0,211,209.67h0a24.44,24.44,0,0,1-28.94,21.63h0a24.44,24.44,0,0,0-24.5,9.79h0a24.43,24.43,0,0,1-35.88,4.26h0a24.44,24.44,0,0,0-26.11-3.77h0a24.44,24.44,0,0,1-33.21-14.25h0A24.42,24.42,0,0,0,41.65,211h0A24.45,24.45,0,0,1,20,182.07h0a24.42,24.42,0,0,0-9.78-24.5h0A24.43,24.43,0,0,1,6,121.69H6A24.44,24.44,0,0,0,9.74,95.58h0A24.44,24.44,0,0,1,24,62.37h0A24.42,24.42,0,0,0,40.31,41.65h0A24.45,24.45,0,0,1,69.25,20h0a24.42,24.42,0,0,0,24.5-9.78h0A24.43,24.43,0,0,1,129.63,6h0a24.44,24.44,0,0,0,26.11,3.77Z"/><path class="cls-2" d="M185.79,167.3h5.77l1.26-23.36.24-8.8h-8.83l.24,8.8Zm2.82,16.84c3.19,0,5.53-2.6,5.53-6.08s-2.34-6-5.53-6-5.47,2.54-5.47,6S185.49,184.14,188.61,184.14Z"/><path class="cls-2" d="M72.85,133.19a35.49,35.49,0,0,1-11.71,13.58,42.4,42.4,0,0,1,5.52,4.39,49.83,49.83,0,0,0,12.84-16Zm-.45,5.92-1.63,6h40.42v-6ZM62.33,152.23v6h50.88v-6Zm1,13.23v6h49.14v-6ZM80,141.25v27.37h5.68V141.25Zm-10,0v27.43h6V141.25Zm19.76,0v27.43h5.63V141.25Zm9.91,0v27.43h6.19V141.25Zm-21.39,33.4a66.72,66.72,0,0,1,1.07,10.87l6.64-1a66.27,66.27,0,0,0-1.47-10.65Zm11.2.11a62.47,62.47,0,0,1,2.93,10.81l6.75-1.35a58.85,58.85,0,0,0-3.32-10.53Zm11.2-.28a69.1,69.1,0,0,1,6.75,11.66l6.87-2.31a74,74,0,0,0-7.15-11.38Zm-32.54-1.81c-1.29,4.12-3.77,8.51-6.36,10.87l6.53,2.6a32,32,0,0,0,6.42-11.89Z"/><path class="cls-2" d="M132.79,133.47V186H139v-52.5ZM124.29,152v6.31h23.08V152Zm7.32,3.38c-1.58,5.57-5,13.4-8.39,17.57a45.78,45.78,0,0,1,3.1,7c3.71-5.4,7.2-15.2,9-22.75Zm7.31,3.26-3.09,2.65a93.68,93.68,0,0,1,7.26,12.22l4.17-5.29C146,166.59,140.56,160.06,138.92,158.59Zm-14.74-20.78a53.73,53.73,0,0,1,2.53,13.12l5.07-1.35a58,58,0,0,0-2.87-13Zm18.57-1.52a107.52,107.52,0,0,1-3.09,13.29l4.22,1.18c1.41-3.32,3.09-8.67,4.56-13.23ZM164,133.14V186h6.36V133.14ZM147.2,168.39l1.07,6.31,28.87-5.24-1-6.25Zm3.21-27.54c3.15,2,7.09,5.13,8.78,7.32l3.54-5.12c-1.85-2.09-5.85-4.9-9-6.82Zm-2.54,14.2a46.94,46.94,0,0,1,9.29,7l3.38-5.36c-2-2.08-6.25-4.78-9.51-6.53Z"/><line class="cls-3" x1="59.14" y1="117.64" x2="192.14" y2="117.64"/><path class="cls-2" d="M65.67,68h7.74v.74H65.67Zm0-2h7.74v.73H65.67Zm-2.09-1.36v5.47h12V64.66Zm-2.15,6.11v1.7H77.7v-1.7Zm8.34,2.36v1.62h6V73.13Zm-5.56.05v1.47h4.15V73.18Zm0,2.21v1.47h4.15V75.39ZM72,74.6l-1.74.47a9.78,9.78,0,0,0,6.55,5.63,6.77,6.77,0,0,1,1.29-1.64A8.57,8.57,0,0,1,72,74.6Zm3.08-1.47v.3a8.73,8.73,0,0,1-6,5.63,7,7,0,0,1,1.18,1.64,10.56,10.56,0,0,0,6.89-7.15l-1.35-.5-.37.08ZM61.26,78l.15,1.82c1.91-.16,4.46-.39,6.9-.62V77.46C65.76,77.68,63.08,77.87,61.26,78Zm6-6.66v9.4h2.1v-9.4Zm-4.38.05V78.6h2V71.37Z"/><path class="cls-2" d="M61.5,87.92v2.19H77.7V87.92Zm9.34.88-2.2.5c1.38,4.87,3.66,8.53,7.83,10.43a9.89,9.89,0,0,1,1.63-2C74.24,96.22,71.93,92.86,70.84,88.8Zm-2.51-5.65c-.06,4.8.27,11.53-7.19,14.77a6.67,6.67,0,0,1,1.65,1.81c7.81-3.67,7.85-11.18,7.94-16.58Z"/><path class="cls-2" d="M138.74,72.57l-6.13-1.28c-.14.93-.36,2.17-.62,3.18a23.89,23.89,0,0,1-2.47,5.69,30.87,30.87,0,0,1-6.71,7.46l5.12,3a39.13,39.13,0,0,0,6.66-8.52,54.5,54.5,0,0,0,3.13-7C138,74.34,138.34,73.54,138.74,72.57ZM133.22,78l-.31,5h19.81a33.33,33.33,0,0,1,3.89.17V77.74a24.42,24.42,0,0,1-3.89.26Zm14.21,3h-5.56c-.26,8.33-3.4,13.05-7.37,16.32a22.69,22.69,0,0,1-4,2.34l5.47,3.62C143.5,98.65,147.08,91.41,147.43,81Z"/><path class="cls-2" d="M167.73,63.53v5.16h22.06V63.53Zm0,10.54v5H190v-5Zm-.22,10.46v5.12H189.7V84.53Zm-3.44-21v14.6c0,6.75-.62,15.27-7.32,21a19.41,19.41,0,0,1,4.1,3.79c7.46-6.26,8.65-17.07,8.65-24.75V63.53Zm23.21,0V96.09c0,.92-.35,1.23-1.37,1.28s-4.72,0-7.85-.13a19.85,19.85,0,0,1,2.2,5.55c4.59,0,7.72-.08,9.84-1s2.78-2.47,2.78-5.6V63.53Z"/><path class="cls-2" d="M116.57,94.57V102H88.29A19,19,0,0,1,91,94q2.29-3.78,9.07-10a56.26,56.26,0,0,0,6.69-6.82,8.75,8.75,0,0,0,1.67-4.89,5.47,5.47,0,0,0-1.46-4.1,6.17,6.17,0,0,0-8,.06c-1,1-1.57,2.67-1.72,5l-8-.79q.72-6.6,4.51-9.47a15.23,15.23,0,0,1,9.48-2.87q6.23,0,9.79,3.32a10.89,10.89,0,0,1,3.56,8.28,14.22,14.22,0,0,1-1,5.37,21.57,21.57,0,0,1-3.21,5.32A52.57,52.57,0,0,1,107,87.75q-3.81,3.47-4.85,4.6a15,15,0,0,0-1.64,2.22Z"/></g></g></svg>