<svg width="220" height="220" viewBox="0 0 220 220" fill="none" xmlns="http://www.w3.org/2000/svg">
<path d="M187.068 88.9496C187.171 88.7415 187.171 88.6375 187.068 88.4293C187.068 88.3253 187.068 88.2212 187.068 88.1172C187.068 88.1172 187.068 88.1172 187.068 88.0131C187.068 87.3887 186.964 86.7644 186.757 86.2441C186.757 86.14 186.861 86.036 186.757 85.8279C186.653 84.6832 186.239 83.7467 185.307 83.0183C185.203 83.0183 185.203 82.9142 185.1 82.9142C184.168 81.4574 183.235 79.8965 182.407 78.3356C182.2 78.0235 181.992 77.9194 181.785 77.8153C181.371 76.8788 180.749 76.1504 179.921 75.5261L179.299 74.5895C179.196 74.0692 178.989 73.5489 178.782 73.0287C178.574 72.4043 178.367 71.884 178.16 71.2597C178.056 71.0515 177.953 70.7394 177.746 70.4272C177.746 70.011 177.746 69.5947 177.746 69.1785C177.746 68.8663 177.642 68.6582 177.435 68.5541C177.331 67.7217 177.124 66.9932 176.917 66.1608C176.606 64.808 176.192 63.3512 175.778 61.9984C175.778 61.8944 175.674 61.7903 175.674 61.7903C175.674 61.3741 175.674 61.0619 175.467 60.6457C175.053 59.8132 174.535 58.9807 174.12 58.1483C174.12 58.0442 174.12 57.8361 174.017 57.732C173.292 55.7549 172.463 53.7778 171.427 51.9047C171.324 51.6966 171.22 51.4885 171.013 51.3844C170.184 49.6155 168.942 48.1586 167.595 46.8059C167.491 46.7018 167.491 46.7018 167.388 46.5978C166.663 45.5572 165.834 44.5166 164.902 43.6841C162.83 41.8111 160.345 40.5623 157.755 39.5218C155.166 38.4812 152.369 37.6487 149.676 37.2325C146.569 36.7122 143.565 37.1284 140.457 37.8568C140.043 37.9609 139.732 38.169 139.525 38.4812C138.593 38.6893 137.661 39.0015 136.729 39.3136C136.625 39.3136 136.521 39.3136 136.418 39.3136C135.693 39.5218 134.968 39.8339 134.346 40.1461C133.414 40.5623 132.482 40.9786 131.55 41.3948C131.135 41.6029 130.721 41.9151 130.41 42.2273L129.478 42.7476C129.271 42.8516 128.96 42.9557 128.753 43.1638C128.65 43.1638 128.65 43.1638 128.546 43.1638C127.096 43.476 126.06 44.5166 125.128 45.6612C125.024 45.7653 124.817 45.8693 124.714 45.9734C123.781 46.8059 123.056 47.7424 122.435 48.783C121.917 49.3033 121.503 49.8236 121.192 50.4479C120.778 50.7601 120.467 51.1763 120.26 51.6966C119.12 52.2169 118.499 53.3616 117.981 54.5062C117.256 56.0671 116.842 57.732 116.531 59.397C116.531 59.501 116.531 59.6051 116.531 59.7091C115.495 61.166 115.495 63.2471 115.495 65.2243C115.184 66.3689 115.081 67.4095 115.081 68.5541C114.666 70.0109 114.666 71.4678 115.184 72.9246C115.184 73.1327 115.184 73.3408 115.081 73.4449C114.874 73.7571 114.666 74.1733 114.666 74.5895C114.459 76.3585 114.563 78.0235 114.977 79.7925C115.081 80.5209 115.495 81.2493 115.599 81.8736C115.702 82.7061 115.495 83.5386 115.702 84.371C115.702 84.5792 115.806 84.6832 115.909 84.8913C115.909 85.3076 115.909 85.6198 115.909 86.036C115.909 86.2441 115.806 86.3482 115.806 86.5563C115.909 89.0537 116.117 91.447 116.427 93.9444C116.324 94.0485 116.22 94.1526 116.22 94.2566C115.909 94.4647 115.599 94.6729 115.495 94.985C114.045 97.4824 113.423 100.5 114.666 103.206C114.874 103.622 115.081 104.038 115.391 104.35C115.495 104.767 115.806 105.183 116.117 105.599C116.324 105.807 116.531 106.015 116.738 106.119C116.842 106.327 116.945 106.536 117.152 106.744C120.156 109.345 124.092 110.178 127.924 109.969C128.546 109.969 129.167 109.657 129.582 109.137C129.685 109.137 129.685 109.137 129.789 109.137C129.892 109.137 129.996 109.033 130.203 109.033C130.203 109.033 130.203 109.033 130.307 109.033C130.41 109.033 130.618 109.033 130.721 109.033C130.825 109.033 131.032 109.033 131.135 108.929C131.239 108.825 131.239 108.825 131.343 108.721C131.446 108.617 131.55 108.513 131.55 108.409C131.55 108.305 131.653 108.2 131.653 108.096C131.653 107.992 131.653 107.784 131.653 107.68C131.653 107.576 131.55 107.472 131.55 107.472C131.446 107.264 131.343 107.16 131.135 107.056C131.135 107.056 131.135 107.056 131.032 107.056H130.928C130.928 107.056 130.928 107.056 130.825 107.056C130.825 107.056 130.825 107.056 130.825 106.952C130.721 106.744 130.618 106.431 130.307 106.327C130.203 106.223 130.1 106.223 129.892 106.223C129.789 106.223 129.582 106.223 129.478 106.223C129.375 106.223 129.375 106.327 129.271 106.327C129.167 105.911 128.857 105.495 128.546 105.183C128.235 104.454 127.821 103.83 127.199 103.31C126.889 102.998 126.682 102.685 126.371 102.373C126.267 102.269 126.267 102.269 126.164 102.165C126.06 101.957 125.853 101.749 125.749 101.541C125.024 100.292 124.299 99.0433 123.471 97.8987C123.263 96.754 122.953 95.6094 122.538 94.4647C122.435 94.1526 122.228 93.9444 122.021 93.8404C121.813 93.112 121.503 92.4876 121.295 91.7592C121.399 91.5511 121.503 91.447 121.503 91.2389C121.606 90.1983 121.503 89.1577 121.192 88.1172C121.088 87.909 120.985 87.7009 120.881 87.5969C120.881 86.3482 120.674 85.0995 120.26 83.9548C120.26 83.8508 120.156 83.6426 120.053 83.6426C119.949 83.1223 119.845 82.498 119.742 81.9777C119.742 81.5615 119.638 81.1452 119.638 80.729C119.638 80.6249 119.535 80.5209 119.535 80.4168C119.638 79.6884 119.638 79.0641 119.742 78.3356C119.742 78.3356 119.742 78.3356 119.742 78.2316C119.949 77.5032 120.156 76.8788 120.467 76.2545C120.57 76.0464 120.57 75.9423 120.57 75.7342C120.881 75.0058 121.192 74.3814 121.399 73.653C121.399 73.5489 121.399 73.4449 121.399 73.3408C121.813 72.9246 122.124 72.4043 122.228 71.884C122.849 70.8434 123.367 69.8028 123.885 68.7622C123.988 68.5541 123.988 68.4501 124.092 68.242C124.196 68.242 124.299 68.242 124.403 68.1379C125.024 67.8257 125.335 67.3054 125.335 66.6811C125.335 66.577 125.335 66.473 125.335 66.3689C125.749 65.8486 126.164 65.4324 126.578 64.808C126.682 64.704 126.682 64.4958 126.682 64.2877C127.614 63.5593 128.546 62.7268 129.478 61.8944C129.685 61.6863 129.789 61.4781 129.789 61.27C130.928 60.3335 132.171 59.397 133.414 58.5645C133.518 58.4604 133.621 58.3564 133.725 58.2523C135.279 57.5239 136.832 56.8996 138.386 56.1711C140.354 55.3387 142.218 54.8184 144.29 54.6103C144.29 54.8184 144.393 55.0265 144.601 55.1306C145.429 55.859 146.154 56.5874 146.879 57.4199C146.983 57.628 147.086 57.8361 147.294 57.9401C147.397 58.0442 147.501 58.1483 147.604 58.1483C147.604 58.2523 147.708 58.4604 147.812 58.5645C148.537 59.501 149.365 60.3335 150.09 61.27C150.297 61.6863 150.608 62.1025 151.022 62.4147C151.022 62.6228 151.022 62.7268 151.23 62.935C152.783 65.1202 154.337 67.6176 156.098 69.5947C156.098 69.6988 156.201 69.8028 156.201 69.8028C156.823 71.1556 157.651 72.5084 158.48 73.7571C158.584 73.9652 158.687 74.0692 158.687 74.1733C158.48 74.4855 158.377 74.9017 158.584 75.3179C159.102 76.3585 159.619 77.5032 160.034 78.5438C160.241 78.96 160.345 79.5843 160.655 80.0006C160.655 80.3128 160.552 80.5209 160.552 80.833C160.345 81.9777 161.795 82.7061 162.416 81.6655C162.934 80.833 164.177 80.729 165.213 80.3128C165.213 80.4168 165.316 80.5209 165.42 80.5209C165.731 80.8331 166.041 81.0412 166.456 81.2493C166.87 81.9777 167.388 82.6021 167.906 83.3305C167.802 83.7467 167.699 84.1629 167.699 84.5792C167.699 85.2035 167.699 85.8279 167.802 86.4522C167.802 86.7644 167.906 87.4928 167.906 88.0131C167.491 88.4293 167.077 88.9496 166.663 89.3659C165.938 90.0943 165.109 90.8227 164.281 91.447C163.452 91.8633 162.313 92.3836 161.691 93.112L160.345 93.7363C160.034 93.8404 159.827 94.2566 159.827 94.6729C159.827 94.985 159.827 95.2972 159.93 95.5053C159.827 95.7134 159.723 96.0256 159.827 96.3378C160.034 97.3784 160.345 98.3149 160.655 99.2514C160.552 100.396 160.759 101.541 161.07 102.581C161.07 102.998 161.173 103.414 161.277 103.83C161.277 104.142 161.277 104.558 161.277 104.975C161.277 105.079 161.38 105.183 161.38 105.183C161.38 105.287 161.277 105.391 161.277 105.391C160.862 106.119 161.587 107.264 162.416 106.952C162.623 106.848 162.727 106.744 162.934 106.64C163.555 106.744 164.281 106.64 164.902 106.64C166.352 106.64 168.32 106.744 168.942 105.183C169.045 105.183 169.252 105.079 169.356 104.975C169.459 104.871 169.459 104.871 169.563 104.767C170.392 104.246 170.91 103.414 171.324 102.477C171.324 102.477 171.324 102.477 171.427 102.477C171.531 102.373 171.635 102.269 171.635 102.165C171.738 102.477 171.945 102.685 172.36 102.893C172.774 102.998 173.085 103.102 173.499 103.206C175.985 104.35 178.989 104.038 181.267 102.581C182.096 102.061 182.821 101.437 183.546 100.708C185.618 99.6677 186.757 96.9621 187.171 94.881C187.379 93.9444 187.379 92.9039 187.379 91.9673C187.793 91.7592 188 91.343 188 90.8227C187.689 90.3024 187.379 89.574 187.068 88.9496Z" fill="#0A1931"/>
<path d="M209.465 187.886C209.673 187.573 209.778 187.157 209.882 186.74C209.987 184.969 209.673 183.198 209.047 181.531C208.942 181.114 208.629 180.802 208.42 180.593C208.42 180.385 208.42 180.281 208.42 180.072C208.42 177.885 208.107 175.697 207.585 173.613C207.585 173.509 207.48 173.301 207.376 173.196C207.376 173.092 207.48 172.884 207.48 172.78C207.48 172.259 207.48 171.842 207.48 171.321C207.48 170.696 207.272 170.279 206.854 169.863C206.227 166.945 205.601 163.924 204.87 161.007C204.87 160.799 204.765 160.59 204.661 160.486C204.243 157.882 203.93 155.173 203.408 152.568C203.303 152.152 203.094 151.735 202.781 151.527C202.363 149.86 201.946 148.193 201.424 146.526C200.901 143.192 200.275 139.858 198.813 136.837C198.186 134.128 197.351 131.524 196.098 129.023C195.889 128.502 195.471 128.19 194.949 128.086C194.636 127.148 194.322 126.21 193.905 125.273C193.696 124.752 193.383 124.439 193.069 124.127C192.86 123.606 192.443 123.189 191.921 122.981C191.503 121.939 190.981 120.897 190.25 120.064C190.041 119.751 189.832 119.647 189.519 119.543C189.31 119.334 189.101 119.126 188.788 118.918C187.535 118.084 185.968 117.667 184.402 117.667C182 116.417 179.494 115.271 176.883 114.438C176.674 114.334 176.465 114.334 176.361 114.334C175.839 114.125 175.421 114.021 174.899 113.813C172.601 112.458 170.304 110.896 167.589 110.271C167.276 110.166 167.067 110.166 166.753 110.271C166.127 109.75 165.5 109.229 164.874 108.812H164.769C164.56 108.604 164.456 108.395 164.247 108.187C164.038 107.979 163.829 107.77 163.516 107.666C163.412 107.458 163.203 107.458 162.994 107.562C162.994 107.458 162.89 107.353 162.785 107.249C162.681 107.041 162.263 106.937 162.054 107.041C161.741 107.145 161.741 107.458 161.845 107.77C162.472 109.125 163.098 110.375 163.829 111.625C163.829 111.729 163.829 111.729 163.725 111.833C163.516 112.563 163.412 113.188 163.307 113.917C162.681 115.688 162.263 117.355 161.95 119.23C161.636 119.959 161.323 120.793 161.01 121.522C160.174 123.293 159.443 125.064 158.608 126.835C158.399 127.252 158.399 127.773 158.608 128.19C158.399 128.711 158.19 129.336 158.086 129.857C157.668 130.69 157.355 131.628 157.042 132.565C156.937 132.878 156.728 133.086 156.624 133.399C155.997 133.92 155.684 134.545 155.58 135.274C155.057 135.899 154.64 136.629 154.431 137.462C154.326 137.775 154.326 138.087 154.431 138.4C153.7 139.233 153.178 140.067 152.76 141.108C152.656 141.317 152.656 141.421 152.551 141.629C152.447 142.046 152.447 142.567 152.656 142.984L151.611 144.755C151.298 145.171 151.089 145.692 150.88 146.213C150.671 146.734 150.567 147.255 150.671 147.672C149.627 148.609 148.896 149.755 148.687 151.11C148.687 151.214 148.687 151.422 148.687 151.527C148.061 152.36 147.434 153.298 147.225 154.339C146.181 155.59 145.554 157.048 145.241 158.715C144.197 159.965 143.257 161.424 142.526 162.882C142.317 163.299 142.317 163.612 142.317 163.924C141.795 164.758 141.273 165.695 140.855 166.633C140.437 166.112 140.124 165.591 139.811 165.07C140.229 164.549 140.333 163.924 140.124 163.299L138.662 159.549C138.767 159.236 138.767 158.819 138.662 158.403C138.453 157.465 138.244 156.527 138.14 155.485C138.14 155.069 138.14 154.548 138.14 154.131V149.235V149.13C138.244 148.818 138.244 148.401 138.14 147.984C138.036 147.568 137.931 147.047 137.827 146.63C137.827 146.526 137.827 146.422 137.827 146.317C137.931 145.797 138.14 145.171 138.349 144.651C138.558 144.234 138.453 143.713 138.244 143.296C138.349 141.317 138.14 139.337 137.514 137.462C137.618 135.483 137.722 133.503 137.827 131.419C138.14 131.107 138.349 130.586 138.349 130.065C138.349 128.607 138.349 127.044 138.349 125.585C138.349 123.814 138.453 122.147 138.558 120.376C138.662 119.334 138.871 118.188 138.871 117.147C138.871 116.938 138.871 116.834 138.871 116.626C139.08 116.001 139.184 115.375 139.184 114.855C139.393 114.438 139.393 114.021 139.184 113.5C139.184 113.396 139.184 113.396 139.08 113.292C138.871 112.667 138.349 112.042 137.618 111.833C136.574 111.312 135.112 111.625 134.694 112.771C134.59 112.771 134.485 112.771 134.381 112.771C134.381 112.771 134.276 112.771 134.276 112.875C133.754 113.083 133.336 113.292 132.919 113.604C131.143 114.125 129.473 114.75 127.802 115.584C127.697 115.688 127.593 115.792 127.593 115.896C126.444 116.209 125.191 116.73 124.147 117.251C124.042 117.251 124.042 117.355 123.938 117.355C122.789 117.772 121.64 118.293 120.596 118.918H120.492C118.299 119.439 116.732 120.793 115.688 122.564C114.435 123.293 113.808 124.752 113.391 126.315C112.973 127.148 112.66 128.086 112.555 129.127C112.346 130.169 112.242 131.107 112.033 132.149C109.84 134.545 109.631 138.712 109.109 141.733C109.005 142.567 109.213 143.192 109.631 143.609C108.796 147.359 108.274 151.318 108.065 155.173C107.96 156.215 107.96 157.257 107.96 158.403C107.96 158.611 107.96 158.819 108.065 159.028C107.647 159.861 107.543 160.799 107.543 161.841C107.543 163.716 107.647 165.487 107.647 167.362C107.647 169.133 107.647 171.009 107.751 172.78C107.856 173.821 108.065 174.759 108.378 175.697C108.274 175.801 108.169 175.905 108.065 175.905C107.647 176.322 107.125 176.634 106.603 177.051C105.872 177.572 105.558 178.51 105.663 179.343C105.558 179.656 105.558 179.968 105.558 180.281C105.558 181.01 105.872 181.635 106.185 182.156C106.289 182.364 106.498 182.573 106.707 182.781C106.603 182.989 106.498 183.094 106.394 183.302C105.454 183.823 104.619 184.552 103.888 185.386C103.574 185.907 103.365 186.427 103.052 186.948C102.948 187.053 102.948 187.053 102.843 187.157C102.426 187.573 102.217 187.886 102.217 188.303C102.008 188.511 101.904 188.615 101.59 188.719C99.7105 189.553 102.739 191.428 104.827 191.22C107.751 191.011 110.467 192.678 113.391 192.47C115.061 192.366 112.346 190.907 113.182 188.824C113.495 188.615 113.704 188.407 113.913 188.094C114.435 187.782 114.957 187.365 115.479 187.053C115.688 186.948 115.897 186.74 116.001 186.532C116.628 186.219 117.254 185.907 117.881 185.594C118.194 185.386 118.508 185.177 118.612 184.865C119.03 184.761 119.447 184.552 119.865 184.448C120.283 184.24 120.701 184.031 120.909 183.615C121.223 183.51 121.432 183.406 121.745 183.302C122.058 183.198 122.267 183.094 122.476 182.885C123.625 182.677 124.878 182.364 126.026 181.948C126.34 181.843 126.549 181.739 126.653 181.531C128.219 181.218 129.681 180.906 131.248 180.697C131.666 180.697 132.083 180.593 132.605 180.593C133.336 180.802 134.067 181.114 134.798 181.323C135.112 181.427 135.425 181.531 135.738 181.739C136.783 182.677 137.827 183.51 138.975 184.24C139.08 184.448 139.184 184.656 139.393 184.865C139.915 185.49 140.542 186.011 141.273 186.532C141.482 187.157 141.795 187.678 142.108 188.199C143.048 189.449 144.719 189.553 145.763 188.199C145.868 188.199 145.868 188.199 145.972 188.199C147.33 188.303 148.687 188.303 150.149 188.303C150.254 188.407 150.358 188.511 150.463 188.719C150.463 189.657 150.776 190.595 151.194 191.428C151.194 191.741 151.194 192.053 151.298 192.262C152.238 194.241 152.969 196.325 153.491 198.513C153.491 199.034 153.491 199.659 153.491 200.179C153.491 201.013 153.595 201.742 153.595 202.576C153.178 204.034 153.178 205.493 153.491 206.951C153.178 207.472 152.969 207.993 152.76 208.514C152.76 208.618 152.76 208.618 152.76 208.722C152.551 208.827 152.447 208.931 152.238 208.931C151.611 209.139 151.82 210.181 152.551 209.973C152.76 209.868 152.864 209.868 153.073 209.868C154.744 210.077 156.519 209.868 158.19 209.452C158.295 209.452 158.399 209.348 158.504 209.243C159.339 209.243 160.279 209.139 161.114 208.827C161.428 208.931 161.741 209.035 162.054 208.931C162.263 208.931 162.472 208.931 162.576 208.827C168.007 208.097 173.437 207.368 178.763 206.43C179.18 206.743 179.807 206.951 180.433 206.743C183.253 206.222 186.073 205.597 188.892 205.076C189.31 205.284 189.832 205.389 190.459 205.284C193.069 204.659 195.68 204.138 198.291 203.513C198.604 203.618 198.917 203.618 199.335 203.513C202.05 202.992 204.87 202.055 206.958 200.284C208.942 198.513 209.673 195.908 209.778 193.303C210.196 191.637 209.987 189.761 209.465 187.886ZM147.016 176.426C147.016 176.53 147.016 176.53 147.016 176.634C146.703 176.947 146.39 177.259 146.181 177.676C145.554 177.676 144.928 177.78 144.301 177.989C144.197 177.989 144.092 178.093 143.988 178.093C143.466 177.676 142.944 177.155 142.526 176.634C142.63 175.801 142.63 175.072 142.526 174.238C142.63 174.134 142.735 174.134 142.839 174.03H142.944C143.57 173.821 144.197 173.613 144.719 173.196C144.719 173.196 144.823 173.092 144.928 173.092C145.241 173.301 145.554 173.405 145.868 173.405C145.868 173.509 145.868 173.613 145.868 173.613C145.972 173.926 146.077 174.238 146.285 174.551C146.494 174.863 147.121 175.176 147.121 175.593C147.121 175.905 147.016 176.218 147.016 176.426Z" fill="#B7B7B7"/>
<path d="M142.5 81C143.3 81 144 80.3 144 79.5C144 78.7 143.3 78 142.5 78C141.7 78 141 78.7 141 79.5C141 80.3 141.7 81 142.5 81Z" fill="#0A1931"/>
<path d="M127.5 81C128.3 81 129 80.3 129 79.5C129 78.7 128.3 78 127.5 78C126.7 78 126 78.7 126 79.5C126.1 80.3 126.7 81 127.5 81Z" fill="#0A1931"/>
<path d="M99.4245 190.486L114.634 193.09" stroke="#0A1931" stroke-linecap="round" stroke-linejoin="round"/>
<path d="M119.843 79.3303C119.843 79.3303 120.781 90.5813 122.447 95.165C124.114 99.7488 129.635 107.979 133.803 109.75C138.074 111.521 148.491 109.75 153.492 103.082" stroke="#0A1931" stroke-linecap="round" stroke-linejoin="round"/>
<path d="M141.407 120.167C142.345 118.5 140.782 111 140.782 111C140.782 111 130.052 114.75 126.51 116.417C122.968 118.083 116.197 119.854 113.697 125.376C111.196 131.001 104.738 163.712 108.488 176.422C108.488 176.422 103.8 176.526 106.404 182.777C106.404 182.777 102.55 187.152 101.508 190.277" stroke="#0A1931" stroke-linecap="round" stroke-linejoin="round"/>
<path d="M128.073 70.4753L121.614 72.3505" stroke="#0A1931" stroke-linecap="round" stroke-linejoin="round"/>
<path d="M140.991 69.4336L147.45 71.4129" stroke="#0A1931" stroke-linecap="round" stroke-linejoin="round"/>
<path d="M131.719 84.6431L130.156 90.6853L131.406 92.9771" stroke="#0A1931" stroke-linecap="round" stroke-linejoin="round"/>
<path d="M136.928 97.665C139.22 97.5609 140.886 96.1024 142.241 97.8734C143.595 99.6444 143.387 103.811 141.824 103.916C140.366 104.02 134.74 104.332 133.803 103.082C132.865 101.832 131.302 97.9776 132.552 97.2483C133.803 96.5191 134.532 97.7692 136.928 97.665Z" stroke="#0A1931" stroke-linecap="round" stroke-linejoin="round"/>
<path d="M154.638 82.5596V90.7895" stroke="#0A1931" stroke-linecap="round" stroke-linejoin="round"/>
<path d="M151.408 84.1223V88.706" stroke="#0A1931" stroke-linecap="round" stroke-linejoin="round"/>
<path d="M148.179 85.1641V87.5601" stroke="#0A1931" stroke-linecap="round" stroke-linejoin="round"/>
<path d="M147.658 202.674C147.658 202.674 143.491 206.633 138.699 203.82C133.907 200.903 133.594 197.153 125.156 198.507C116.718 199.862 119.739 197.049 119.739 197.049C119.739 197.049 116.718 197.674 117.759 194.965C117.759 194.965 113.592 196.528 114.634 192.778C114.634 192.778 111.926 191.528 114.217 188.923C116.718 185.798 127.448 181.527 132.552 181.423C137.657 181.318 145.783 193.403 145.783 193.403" stroke="#0A1931" stroke-linecap="round" stroke-linejoin="round"/>
<path d="M116.614 191.215C116.614 191.215 124.739 185.485 132.761 184.756" stroke="#0A1931" stroke-linecap="round" stroke-linejoin="round"/>
<path d="M118.697 193.09C118.697 193.09 126.823 187.985 134.115 187.985" stroke="#0A1931" stroke-linecap="round" stroke-linejoin="round"/>
<path d="M121.926 195.59C121.926 195.59 128.49 191.111 134.948 193.298" stroke="#0A1931" stroke-linecap="round" stroke-linejoin="round"/>
<path d="M185.37 125.168C182.557 127.564 180.369 130.481 178.806 133.814C177.244 137.148 176.515 140.794 176.619 144.44" stroke="#0A1931" stroke-linecap="round" stroke-linejoin="round"/>
<path d="M177.035 148.399L184.015 178.401C184.015 178.401 181.827 179.964 184.432 184.652" stroke="#0A1931" stroke-linecap="round" stroke-linejoin="round"/>
<path d="M186.411 179.756C190.162 178.089 194.329 177.881 198.183 179.235" stroke="#0A1931" stroke-linecap="round" stroke-linejoin="round"/>
<path d="M186.828 183.193C186.828 183.193 197.766 188.194 199.746 191.319" stroke="#0A1931" stroke-linecap="round" stroke-linejoin="round"/>
<path d="M92.6531 207.362L24.418 194.444C20.876 193.403 17.6466 191.423 17.6466 187.673L8.99997 137.773C8.99997 136.002 9.7292 134.231 10.9793 132.981C12.2294 131.73 14.0004 131.001 15.7714 131.001L90.3612 138.502C92.1322 138.502 93.9032 139.231 95.1533 140.481C96.4034 141.731 97.1327 143.502 97.1327 145.273L99.3203 200.486C99.3203 201.424 99.112 202.257 98.7995 203.091C98.4869 203.924 97.9661 204.653 97.341 205.279C96.716 205.904 95.9867 206.424 95.1533 206.737C94.4241 207.154 93.4865 207.362 92.6531 207.362Z" fill="white" stroke="#0A1931" stroke-linecap="round" stroke-linejoin="round"/>
<path d="M95.0491 206.841L134.844 200.799" stroke="#0A1931" stroke-linecap="round" stroke-linejoin="round"/>
<path d="M149.95 187.986C155.054 188.402 179.119 183.506 184.119 184.444" stroke="#0A1931" stroke-linecap="round" stroke-linejoin="round"/>
<path d="M149.533 187.881C149.533 187.881 156.304 197.257 152.45 210.8C152.45 210.8 202.142 205.487 205.684 202.674C212.247 197.361 210.268 192.361 204.85 162.15C199.433 131.939 190.891 120.167 188.078 119.334C185.265 118.5 165.055 109.541 165.055 109.541" stroke="#0A1931" stroke-linecap="round" stroke-linejoin="round"/>
<path d="M144.22 189.756C144.22 189.756 144.949 188.402 150.262 189.131" stroke="#0A1931" stroke-linecap="round" stroke-linejoin="round"/>
<path d="M143.803 204.966C143.803 204.966 143.595 207.883 146.095 209.029" stroke="#0A1931" stroke-linecap="round" stroke-linejoin="round"/>
<path d="M144.22 189.757C144.22 189.757 150.679 198.82 145.991 209.029L152.658 209.342" stroke="#0A1931" stroke-linecap="round" stroke-linejoin="round"/>
<path d="M152.45 210.8L151.2 209.341" stroke="#0A1931" stroke-linecap="round" stroke-linejoin="round"/>
<path d="M164.013 110.479C159.013 133.606 140.991 167.88 140.991 167.88C136.199 155.274 139.324 111.625 139.324 111.625L131.823 117.563L135.053 122.355L130.261 128.189C130.261 128.189 132.865 158.712 137.657 165.796" stroke="#0A1931" stroke-linecap="round" stroke-linejoin="round"/>
<path d="M146.72 165.379L170.368 134.127L166.097 126.626L175.056 119.229L163.909 108.291L161.305 106.833" stroke="#0A1931" stroke-linecap="round" stroke-linejoin="round"/>
<path d="M139.22 117.979C139.22 117.979 138.386 123.605 145.262 125.063C152.137 126.522 162.972 116.833 162.868 111.521" stroke="#0A1931" stroke-linecap="round" stroke-linejoin="round"/>
<path d="M121.614 136.106C121.614 136.106 120.885 167.463 123.072 176.11L121.614 184.34" stroke="#0A1931" stroke-linecap="round" stroke-linejoin="round"/>
<path d="M140.886 167.88L137.553 176.526L141.72 188.09" stroke="#0A1931" stroke-linecap="round" stroke-linejoin="round"/>
<path d="M144.637 178.297C145.783 178.297 146.824 177.359 146.824 176.109C146.824 174.963 145.887 173.922 144.637 173.922C143.387 173.922 142.449 174.859 142.449 176.109C142.449 177.359 143.387 178.297 144.637 178.297Z" stroke="#0A1931" stroke-linecap="round" stroke-linejoin="round"/>
<path d="M175.16 163.296L168.597 176.11" stroke="#0A1931" stroke-linecap="round" stroke-linejoin="round"/>
<path d="M162.868 111.521C160.888 108.708 159.534 94.9567 159.534 94.9567C162.659 93.4982 170.368 88.9145 167.451 83.0806C164.639 77.5593 161.097 83.9141 161.097 83.9141C161.409 73.4965 144.012 55.0574 144.012 55.0574C144.012 55.0574 126.406 55.5783 119.947 79.2261" stroke="#0A1931" stroke-linecap="round" stroke-linejoin="round"/>
<path d="M131.719 108.291C131.719 108.291 129.01 112.041 120.989 109.333C112.967 106.624 113.592 98.3944 115.572 95.3733C117.551 92.3522 114.53 89.8519 114.53 69.5377C114.53 49.2234 131.511 38.8058 142.553 37.2432C153.492 35.6806 162.451 42.1395 162.972 42.6603C162.972 42.6603 168.389 44.848 172.66 53.3904C176.931 62.037 178.077 72.0379 180.994 75.8924C183.911 79.7469 194.12 93.1856 182.869 102.353C181.307 103.707 179.327 104.541 177.348 104.645C175.264 104.749 173.285 104.124 171.618 102.978C171.618 102.978 169.431 109.437 161.93 107.249" stroke="#0A1931" stroke-linecap="round" stroke-linejoin="round"/>
<path d="M172.4 46C173.5 46.4 174.7 46.6 175.8 46.5C176.8 46.4 178.1 45.8 178.2 44.7C178.3 43.6 177.4 42.7 176.6 42.1C175.7 41.4 174.7 41 173.6 40.9C173.3 40.9 173.1 41.3 173.1 41.5C173.3 42.5 174.5 42.8 175.3 43C176.6 43.3 177.9 43.5 179.2 43.5C180.9 43.5 184 43.3 184.4 41.2C184.4 40.7 184.4 40.3 184.1 39.8C183.9 39.4 183.6 39 183.1 38.8C182.1 38.1 181.2 37.3 180.2 36.6C178.2 35.2 176.1 33.9 173.8 33C172.7 32.5 171.6 32.2 170.4 32.1C170.2 32.1 170 32.1 169.8 32.2C169.6 32.3 169.4 32.4 169.3 32.6C169.2 32.8 169.1 33 169 33.2C169 33.4 169 33.6 169 33.9C169.2 34.9 170.4 35.5 171.2 35.9C172.3 36.5 173.4 37 174.5 37.3C176.8 38.1 179.3 38.5 181.7 38.5C183.7 38.4 186.7 37.9 187.5 35.8C187.7 35.3 187.7 34.7 187.5 34.2C187.3 33.7 187 33.2 186.5 32.9C185.4 32.1 184.3 31.4 183 30.9C180.4 29.8 177.7 29.1 174.9 29C174.8 29 174.6 29.1 174.5 29.1C174.4 29.2 174.4 29.3 174.4 29.5C174.4 29.7 174.4 29.9 174.5 30C174.6 30.2 174.7 30.3 174.8 30.5C174.9 30.7 175.1 30.7 175.2 30.8C175.4 30.9 175.5 30.9 175.7 30.9C176.3 30.9 176.3 29.9 175.7 29.9H175.6C175.6 29.9 175.5 29.9 175.5 29.8L175.4 29.7V29.6L175.3 30.1C177.3 30.2 179.2 30.5 181.1 31.1C182.9 31.7 184.7 32.5 186.2 33.7C187 34.3 187.4 35.2 186.6 36.1C185.9 36.7 185.1 37.2 184.1 37.3C182.1 37.7 180.1 37.6 178.1 37.2C176.2 36.9 174.4 36.3 172.7 35.5C172.3 35.3 171.9 35.1 171.5 34.8C171.1 34.6 170.5 34.3 170.4 33.8C170.2 33.3 170.6 33 171.1 33.1C171.6 33.2 172.1 33.3 172.5 33.5C176.1 34.6 179.3 36.9 182.3 39.2C183 39.7 184.2 40.5 183.3 41.4C182.5 42 181.6 42.3 180.7 42.3C179.5 42.4 178.4 42.4 177.2 42.2C176.7 42.1 176.1 42 175.6 41.9C175.2 41.8 174.4 41.7 174.3 41.1L173.8 41.7C174.6 41.8 175.3 42.1 175.9 42.5C176.4 42.9 177.4 43.7 177.3 44.4C177.2 45.1 175.8 45.4 175.1 45.4C174.3 45.4 173.4 45.2 172.6 44.9C172 44.8 171.8 45.8 172.4 46Z" fill="#0A1931"/>
<path d="M84.3434 28.8715C84.3434 28.8715 81.3928 13.434 63.1463 10.441C44.8997 7.44789 35.7326 20.5248 33.7889 24.5868C33.7889 24.5868 22.0127 23.5445 13.2484 36.2829C7.49595 44.6475 5.84116 64.8418 19.6136 69.1621C19.6136 69.1621 12.0926 85.339 26.8457 92.7949C41.5988 100.251 51.0461 95.6454 51.0461 95.6454C51.0461 95.6454 60.467 105.302 76.0957 98.594C91.7244 91.8863 95.2091 80.2792 90.9801 73.1262C90.9801 73.1262 102.695 70.7923 104.595 60.0226C106.495 49.2529 101.093 46.9813 101.093 46.9813C101.093 46.9813 101.609 29.3971 84.3434 28.8715Z" fill="white" stroke="black" stroke-linejoin="round"/>
<path d="M61.8854 112.954C59.9511 112.954 58.3831 111.358 58.3831 109.391C58.3831 107.423 59.9511 105.827 61.8854 105.827C63.8196 105.827 65.3876 107.423 65.3876 109.391C65.3876 111.358 63.8196 112.954 61.8854 112.954Z" fill="white"/>
<path d="M61.8854 106.273C61.2793 106.273 60.6869 106.455 60.1829 106.798C59.679 107.141 59.2862 107.628 59.0542 108.197C58.8223 108.767 58.7616 109.394 58.8798 109.999C58.9981 110.603 59.29 111.159 59.7185 111.595C60.1471 112.031 60.6931 112.328 61.2876 112.448C61.882 112.569 62.4982 112.507 63.0581 112.271C63.6181 112.035 64.0967 111.635 64.4334 111.123C64.7701 110.61 64.9499 110.007 64.9499 109.39C64.9499 108.564 64.627 107.771 64.0523 107.186C63.4776 106.601 62.6982 106.273 61.8854 106.273ZM61.8854 105.382C62.6647 105.382 63.4264 105.617 64.0744 106.057C64.7223 106.498 65.2273 107.124 65.5255 107.856C65.8237 108.589 65.9017 109.395 65.7497 110.172C65.5977 110.95 65.2224 111.664 64.6714 112.225C64.1204 112.786 63.4183 113.167 62.6541 113.322C61.8898 113.477 61.0976 113.397 60.3776 113.094C59.6577 112.79 59.0424 112.277 58.6094 111.617C58.1765 110.958 57.9454 110.183 57.9454 109.39C57.9443 108.864 58.0454 108.342 58.243 107.855C58.4406 107.368 58.7307 106.926 59.0968 106.553C59.4629 106.181 59.8977 105.886 60.3763 105.685C60.8548 105.484 61.3677 105.381 61.8854 105.382Z" fill="black"/>
<path d="M68.8898 116.517C67.9227 116.517 67.1387 115.719 67.1387 114.735C67.1387 113.751 67.9227 112.953 68.8898 112.953C69.8569 112.953 70.6409 113.751 70.6409 114.735C70.6409 115.719 69.8569 116.517 68.8898 116.517Z" fill="white"/>
<path d="M68.8898 113.399C68.6301 113.399 68.3762 113.477 68.1602 113.624C67.9442 113.771 67.7759 113.98 67.6765 114.224C67.5771 114.468 67.5511 114.737 67.6018 114.996C67.6524 115.255 67.7775 115.493 67.9612 115.68C68.1449 115.867 68.3789 115.994 68.6336 116.046C68.8884 116.097 69.1525 116.071 69.3924 115.97C69.6324 115.868 69.8375 115.697 69.9818 115.477C70.1262 115.258 70.2032 114.999 70.2032 114.735C70.2032 114.381 70.0648 114.041 69.8185 113.79C69.5722 113.54 69.2382 113.399 68.8898 113.399ZM68.8898 112.508C69.3228 112.508 69.746 112.639 70.1059 112.883C70.4659 113.128 70.7464 113.476 70.9121 113.883C71.0778 114.29 71.1211 114.738 71.0367 115.17C70.9522 115.602 70.7437 115.998 70.4376 116.31C70.1315 116.621 69.7415 116.833 69.3169 116.919C68.8923 117.005 68.4522 116.961 68.0522 116.793C67.6522 116.624 67.3104 116.339 67.0699 115.972C66.8293 115.606 66.701 115.175 66.701 114.735C66.701 114.144 66.9316 113.578 67.3421 113.16C67.7526 112.743 68.3093 112.508 68.8898 112.508Z" fill="black"/>
<path d="M71.7363 36.9246H40.5412V78.2344H71.7363V36.9246Z" fill="#C5D8FF" stroke="#0A1931" stroke-linejoin="round"/>
<path d="M45.5513 41.8404H35.5311L45.5513 32.1038V41.8404Z" fill="#0A1931" stroke="#0A1931" stroke-miterlimit="10" stroke-linecap="round" stroke-linejoin="round"/>
<path d="M45.5513 32.1038V41.8404H35.5311V73.4136H66.7262V32.1038H45.5513Z" fill="white" stroke="#0A1931" stroke-linejoin="round"/>
<path d="M60.8653 40.895H52.5466V49.0247H60.8653V40.895Z" fill="#C5D8FF" stroke="#0A1931" stroke-linejoin="round"/>
<path d="M41.3919 54.8855H60.9598" stroke="#0A1931" stroke-linecap="round" stroke-linejoin="round"/>
<path d="M41.3919 59.7068H60.9598" stroke="#0A1931" stroke-linecap="round" stroke-linejoin="round"/>
<path d="M41.3919 64.5276H60.9598" stroke="#0A1931" stroke-linecap="round" stroke-linejoin="round"/>
<path d="M72.1144 86.8367C78.2589 86.8367 83.1745 82.0156 83.1745 76.0602C83.1745 70.1048 78.1644 65.2837 72.1144 65.2837C66.0645 65.2837 61.0544 70.1048 61.0544 76.0602C61.0544 82.0156 65.9699 86.8367 72.1144 86.8367Z" fill="#0A1931"/>
<path d="M76.5573 70.2939L66.0644 80.4087L67.5769 81.8267L78.0698 71.8064L76.5573 70.2939Z" fill="white"/>
<path d="M67.5769 70.2939L66.0644 71.7119L76.5573 81.8267L78.0698 80.4087L67.5769 70.2939Z" fill="white"/>
</svg>
