<svg width="220" height="220" viewBox="0 0 220 220" fill="none" xmlns="http://www.w3.org/2000/svg">
<path d="M133.161 34.3003C133.161 34.3003 136.184 18.7561 154.877 15.7423C173.569 12.7286 182.96 25.8959 184.951 29.986C184.951 29.986 197.015 28.9365 205.994 41.763C211.887 50.1853 213.582 70.5193 199.473 74.8695C199.473 74.8695 207.178 91.1581 192.064 98.6656C176.951 106.173 167.273 101.536 167.273 101.536C167.273 101.536 157.621 111.259 141.611 104.505C125.6 97.7507 122.03 86.0635 126.362 78.8609C126.362 78.8609 114.361 76.5109 112.415 65.6667C110.468 54.8226 116.003 52.5354 116.003 52.5354C116.003 52.5354 115.473 34.8295 133.161 34.3003Z" fill="white" stroke="black" stroke-linejoin="round"/>
<path d="M156.168 118.964C158.15 118.964 159.756 117.357 159.756 115.376C159.756 113.394 158.15 111.788 156.168 111.788C154.187 111.788 152.58 113.394 152.58 115.376C152.58 117.357 154.187 118.964 156.168 118.964Z" fill="white"/>
<path d="M156.168 112.237C156.789 112.237 157.396 112.421 157.912 112.766C158.429 113.111 158.831 113.601 159.069 114.175C159.306 114.748 159.368 115.379 159.247 115.988C159.126 116.597 158.827 117.157 158.388 117.596C157.949 118.035 157.39 118.334 156.781 118.455C156.172 118.576 155.54 118.514 154.967 118.276C154.393 118.039 153.903 117.636 153.558 117.12C153.213 116.604 153.029 115.997 153.029 115.376C153.029 114.543 153.36 113.745 153.948 113.156C154.537 112.567 155.336 112.237 156.168 112.237ZM156.168 111.34C155.37 111.34 154.59 111.576 153.926 112.02C153.262 112.463 152.745 113.094 152.439 113.831C152.134 114.569 152.054 115.38 152.209 116.163C152.365 116.946 152.75 117.665 153.314 118.23C153.879 118.794 154.598 119.179 155.381 119.335C156.164 119.49 156.975 119.41 157.713 119.105C158.45 118.799 159.081 118.282 159.524 117.618C159.968 116.955 160.205 116.174 160.205 115.376C160.206 114.846 160.102 114.32 159.9 113.83C159.697 113.34 159.4 112.894 159.025 112.519C158.65 112.144 158.204 111.847 157.714 111.644C157.224 111.442 156.699 111.338 156.168 111.34Z" fill="black"/>
<path d="M148.993 122.552C149.983 122.552 150.787 121.749 150.787 120.758C150.787 119.767 149.983 118.964 148.993 118.964C148.002 118.964 147.199 119.767 147.199 120.758C147.199 121.749 148.002 122.552 148.993 122.552Z" fill="white"/>
<path d="M148.993 119.412C149.259 119.412 149.519 119.491 149.74 119.639C149.961 119.787 150.134 119.997 150.236 120.243C150.337 120.488 150.364 120.759 150.312 121.02C150.26 121.281 150.132 121.521 149.944 121.709C149.756 121.897 149.516 122.025 149.255 122.077C148.994 122.129 148.724 122.102 148.478 122.001C148.232 121.899 148.022 121.726 147.874 121.505C147.726 121.284 147.647 121.024 147.647 120.758C147.647 120.401 147.789 120.058 148.041 119.806C148.294 119.554 148.636 119.412 148.993 119.412ZM148.993 118.515C148.549 118.515 148.116 118.647 147.747 118.893C147.378 119.139 147.091 119.49 146.921 119.899C146.751 120.309 146.707 120.76 146.793 121.195C146.88 121.63 147.093 122.03 147.407 122.343C147.721 122.657 148.12 122.87 148.555 122.957C148.99 123.043 149.441 122.999 149.851 122.829C150.26 122.659 150.611 122.372 150.857 122.003C151.103 121.635 151.235 121.201 151.235 120.758C151.235 120.163 150.999 119.592 150.578 119.172C150.158 118.751 149.587 118.515 148.993 118.515Z" fill="black"/>
<path d="M187.63 59.7693H168.351C167.462 59.7693 166.609 60.1218 165.98 60.7496C165.35 61.3773 164.995 62.2292 164.992 63.1184V72.4661C164.99 72.9082 165.076 73.3462 165.245 73.7551C165.413 74.1639 165.66 74.5355 165.972 74.8486C166.284 75.1617 166.655 75.4101 167.063 75.5796C167.472 75.7492 167.909 75.8364 168.351 75.8364H187.63C188.521 75.8364 189.375 75.4824 190.006 74.8524C190.636 74.2223 190.99 73.3678 190.99 72.4767V63.1184C190.987 62.2292 190.632 61.3773 190.002 60.7496C189.372 60.1218 188.519 59.7693 187.63 59.7693Z" fill="#0A1931"/>
<path d="M177.911 63.9661C177.659 63.966 177.41 64.0156 177.177 64.112C176.944 64.2084 176.733 64.3497 176.555 64.5278C176.204 64.8886 176.007 65.3708 176.004 65.8738V67.4741C176.005 67.77 176.075 68.0615 176.207 68.3262C176.339 68.5908 176.531 68.8215 176.767 69.0003V70.537C176.767 70.8406 176.887 71.1318 177.102 71.3464C177.317 71.5611 177.608 71.6817 177.911 71.6817C178.214 71.6789 178.503 71.5574 178.718 71.3434C178.932 71.1293 179.053 70.8398 179.056 70.537V69.0003C179.293 68.8205 179.485 68.5884 179.618 68.322C179.753 68.06 179.822 67.7689 179.819 67.4741V65.9374C179.83 65.6838 179.787 65.4308 179.692 65.1955C179.601 64.9556 179.464 64.7359 179.289 64.549C179.109 64.365 178.892 64.2207 178.653 64.125C178.42 64.0197 178.167 63.9655 177.911 63.9661Z" fill="white"/>
<path d="M185.383 60.246V56.8122C185.425 55.833 185.267 54.8555 184.917 53.94C184.581 53.0139 184.054 52.1689 183.369 51.46C182.693 50.7495 181.879 50.184 180.977 49.7977C180.075 49.4115 179.104 49.2126 178.123 49.2131C177.143 49.2139 176.174 49.4122 175.272 49.796C174.372 50.1867 173.557 50.7523 172.877 51.46C172.201 52.1622 171.674 52.9933 171.326 53.9037C170.978 54.8141 170.817 55.7852 170.853 56.7592V60.193" stroke="#0A1931" stroke-width="2" stroke-linecap="round" stroke-linejoin="round"/>
<path d="M145.385 76.7689C153.287 76.7689 159.693 70.3631 159.693 62.4611C159.693 54.5591 153.287 48.1533 145.385 48.1533C137.483 48.1533 131.077 54.5591 131.077 62.4611C131.077 70.3631 137.483 76.7689 145.385 76.7689Z" fill="#C5D8FF" stroke="#0A1931" stroke-linecap="round" stroke-linejoin="round"/>
<path d="M145.385 65.1106C148.604 65.1106 151.214 62.5008 151.214 59.2815C151.214 56.0622 148.604 53.4524 145.385 53.4524C142.166 53.4524 139.556 56.0622 139.556 59.2815C139.556 62.5008 142.166 65.1106 145.385 65.1106Z" fill="#0A1931" stroke="#0A1931" stroke-linecap="round" stroke-linejoin="round"/>
<path d="M136.113 73.3493C136.507 72.0397 137.312 70.8918 138.409 70.0759C139.507 69.2601 140.838 68.8197 142.205 68.8201H148.564C149.933 68.8196 151.266 69.2611 152.364 70.0788C153.463 70.8966 154.267 72.0469 154.659 73.3588" fill="#0A1931"/>
<path d="M136.113 73.3493C136.507 72.0397 137.312 70.8918 138.409 70.0759C139.507 69.2601 140.838 68.8197 142.205 68.8201H148.564C149.933 68.8196 151.266 69.2611 152.364 70.0788C153.463 70.8966 154.267 72.0469 154.659 73.3588" stroke="#0A1931" stroke-linecap="round" stroke-linejoin="round"/>
<path d="M138.231 73.1256C139.111 73.3772 140.024 73.4879 140.895 73.7844C141.03 73.8302 141.442 73.9205 141.3 73.9205C140.962 73.9205 140.601 73.829 140.27 73.7733C139.46 73.6375 139.03 73.5388 138.231 73.3612C137.76 73.2565 138.746 73.7152 139.217 73.8212C139.698 73.9294 140.17 73.9564 140.652 74.0383C141.003 74.0979 141.302 74.2561 141.642 74.3474C142.553 74.5918 143.468 74.55 144.391 74.3989C145.492 74.2188 146.656 74.318 147.769 74.318C148.883 74.318 149.964 73.8187 151.048 73.6519C151.375 73.6016 151.841 73.4953 152.108 73.2876C152.409 73.0539 152.594 72.9787 152.075 72.9932C151.591 73.0066 151.112 73.2424 150.647 73.3612C150.156 73.4868 149.615 73.663 149.175 73.9205C148.787 74.1482 148.321 74.2028 147.935 74.4173C147.211 74.8199 146.476 74.6853 145.665 74.7154C144.852 74.7455 144.288 75.0097 143.663 74.3842" stroke="#0A1931" stroke-width="3" stroke-linecap="round"/>
<path d="M138.5 177.601C138.603 177.322 138.688 177.037 138.753 176.747C138.838 176.45 138.838 176.136 138.753 175.84C138.753 175.502 138.753 175.165 138.753 174.785C138.778 172.766 138.676 170.747 138.447 168.741C138.543 168.537 138.59 168.313 138.584 168.087C138.495 165.248 138.142 162.423 137.529 159.649C137.529 157.761 137.371 155.884 137.223 153.996C137.205 153.752 137.136 153.515 137.023 153.299V152.888C137.091 152.709 137.13 152.52 137.139 152.329C137.204 149.667 136.884 147.01 136.19 144.44C136 143.079 135.732 141.73 135.388 140.4C135.396 137.785 135.001 135.184 134.217 132.69V132.563C134.217 132.078 134.175 131.603 134.091 131.139C133.658 128.049 133.036 124.99 132.667 121.91C132.709 121.603 132.669 121.29 132.551 121.003C132.488 120.528 132.424 120.064 132.371 119.579C132.351 119.446 132.319 119.316 132.277 119.189C132.324 118.966 132.324 118.736 132.277 118.514L130.315 109.991C129.977 108.145 129.524 106.321 129.06 104.506C128.992 104.228 128.84 103.978 128.625 103.789C128.41 103.6 128.142 103.483 127.857 103.452C126.876 101.88 125.437 100.647 123.733 99.9183C121.418 98.835 118.905 98.2425 116.35 98.178L111.888 96.9017C111.737 96.8606 111.581 96.8394 111.424 96.8384C109.729 96.0227 108.035 95.3161 106.34 94.7184C105.487 93.9048 104.355 93.4482 103.176 93.4421C102.279 93.0308 101.383 92.6299 100.465 92.2397C99.0232 90.701 97.3806 89.3635 95.5816 88.2633C95.2865 87.9832 94.9767 87.7192 94.6534 87.4722C94.1155 87.0714 93.5987 87.989 94.1261 88.3898C94.2188 88.4615 94.3069 88.539 94.3897 88.6219C94.313 88.6589 94.2456 88.7126 94.1924 88.7792C94.1392 88.8457 94.1016 88.9233 94.0823 89.0063C94.0631 89.0893 94.0627 89.1756 94.0813 89.2587C94.0998 89.3419 94.1367 89.4198 94.1893 89.4868C94.337 89.6661 94.5058 89.8243 94.6534 90.0036L94.7378 92.8198C94.7338 92.9357 94.7724 93.049 94.8463 93.1384C94.9201 93.2278 95.0241 93.287 95.1386 93.305C95.1386 94.5602 95.1386 95.8258 95.1386 97.081C95.0155 97.3089 94.9435 97.5608 94.9277 97.8193L94.5796 103.452C94.5574 103.731 94.6199 104.01 94.7589 104.253C94.7589 104.612 94.7589 104.981 94.7589 105.308C94.3379 106.699 94.1003 108.138 94.0522 109.59C93.8096 111.89 93.5354 114.179 93.2084 116.467C92.8815 118.756 92.565 120.813 92.1537 122.986C91.7739 124.534 91.5548 126.118 91.4997 127.711C90.7108 129.876 90.0591 132.088 89.5484 134.335C89.4961 134.545 89.4887 134.763 89.5269 134.976C89.5651 135.188 89.6479 135.391 89.7699 135.569C89.4281 136.656 89.1638 137.767 88.9789 138.891C88.8945 139.208 88.8101 139.524 88.7152 139.841C88.6599 139.91 88.6105 139.985 88.5675 140.062C87.7122 141.571 87.0462 143.179 86.5846 144.851C86.2506 145.561 85.9686 146.294 85.7408 147.045C85.2767 147.841 84.9018 148.687 84.6227 149.566C84.0334 149.849 83.4808 150.203 82.9773 150.62H82.8718L82.5238 150.557L81.7116 149.26L77.598 141.191C77.7668 140.611 77.9567 140.041 78.1254 139.461C78.5684 137.984 78.9376 136.677 78.2731 135.369C78.5262 134.377 78.7794 133.375 78.9481 132.384C79.0143 132.113 79.0234 131.832 78.975 131.558C78.9265 131.284 78.8216 131.024 78.6668 130.792C78.512 130.561 78.3108 130.365 78.0759 130.216C77.8411 130.067 77.5778 129.968 77.3027 129.926C75.9948 129.567 74.6658 129.283 73.3579 128.871C70.8195 128.168 68.3127 127.349 65.8375 126.414C64.5824 125.939 63.3589 125.359 62.0826 124.99C61.1017 124.694 59.9731 124.779 58.9183 124.526C58.5075 124.249 58.0775 124.003 57.6315 123.787C57.8538 123.653 58.0416 123.469 58.18 123.249L58.6547 122.522C58.7736 122.321 58.8442 122.096 58.8607 121.863C58.8771 121.631 58.8391 121.397 58.7496 121.182C58.7496 121.087 58.7496 121.013 58.7496 120.918C58.6001 120.516 58.5817 120.077 58.6968 119.663L58.8762 119.695C59.2949 119.49 59.6571 119.186 59.9309 118.809L60.8907 119.178C61.1228 119.273 61.5552 119.589 61.6923 119.568C61.8122 119.699 61.9427 119.819 62.0826 119.927C62.388 120.115 62.7478 120.194 63.1039 120.152C63.4599 120.11 63.7913 119.949 64.0444 119.695L64.1499 119.589C64.3655 119.363 64.5102 119.079 64.5665 118.772C64.6227 118.465 64.5879 118.147 64.4664 117.86C64.4664 117.575 64.5296 117.29 64.5824 117.005L65.2258 115.392C65.2938 115.243 65.3263 115.08 65.3207 114.917C65.4895 114.411 65.6582 113.915 65.8059 113.409C65.8661 113.203 65.8794 112.986 65.8447 112.774C65.81 112.562 65.7283 112.361 65.6055 112.185V111.943C66.0379 110.888 66.4387 109.833 66.8079 108.778C66.9339 108.483 66.9477 108.151 66.8467 107.847C66.7457 107.542 66.5369 107.284 66.2594 107.122C66.4423 106.489 66.6321 105.857 66.829 105.224C66.9257 104.976 66.9482 104.706 66.8939 104.445C66.8396 104.185 66.7108 103.946 66.5231 103.758C67.1684 102.341 67.4407 100.784 67.3142 99.2327C67.2853 99.0438 67.2321 98.8595 67.156 98.6842C67.7866 97.3022 68.1721 95.8211 68.2951 94.307C68.3121 94.2377 68.3121 94.1653 68.2951 94.0961V93.8007C68.2951 93.7058 68.2951 93.6214 68.2951 93.5265C68.301 93.4774 68.301 93.4279 68.2951 93.3788V91.1427C68.2951 90.4571 68.2951 89.7716 68.2951 89.0332C68.2957 88.9153 68.2503 88.8018 68.1685 88.7168L68.3162 88.4848C68.6326 87.989 67.8838 87.43 67.4829 87.8519L67.1138 88.2844C66.9914 88.2382 66.8564 88.2382 66.7341 88.2844C65.5283 88.8664 64.4956 89.7536 63.7386 90.858C63.2893 91.2856 62.8863 91.7594 62.5361 92.2713L62.4096 92.3241C62.051 92.5878 61.7029 92.862 61.3548 93.1468C60.7554 93.0286 60.1358 93.0633 59.5534 93.2477C58.9709 93.432 58.4441 93.7601 58.0218 94.2015C56.4483 94.6009 54.954 95.2642 53.6024 96.1634C53.307 96.2689 53.0012 96.3849 52.7058 96.5114H52.6215H52.5265C52.1995 96.6486 51.8937 96.8068 51.5878 96.9544L51.4612 97.0177C50.6091 96.9894 49.7799 97.2961 49.1513 97.8721C48.9591 97.8461 48.7635 97.8678 48.5817 97.9354C47.3541 98.4214 46.2031 99.0821 45.1643 99.8972C44.3548 100.334 43.5792 100.831 42.8439 101.384C42.0882 101.518 41.3942 101.887 40.8609 102.439C40.683 102.527 40.5104 102.626 40.3441 102.734C39.5386 102.662 38.728 102.8 37.992 103.135C36.3068 103.864 34.8962 105.109 33.9628 106.69C33.0876 108.288 32.5795 110.06 32.4756 111.879C32.0938 112.612 31.8948 113.426 31.8955 114.252C31.6418 114.543 31.513 114.922 31.5369 115.307C31.5369 118.703 31.4174 122.096 31.1783 125.486C31.1615 125.658 31.1799 125.832 31.2325 125.997C31.2851 126.162 31.3707 126.315 31.4842 126.445C31.4842 126.938 31.4842 127.433 31.4842 127.933C31.1865 130.157 31.2435 132.414 31.6529 134.62C31.5541 134.765 31.4793 134.925 31.4314 135.094C30.5665 138.617 31.1466 142.14 31.9061 145.642C32.6233 148.954 33.3616 152.255 34.0894 155.557C34.2652 157.961 34.3531 160.37 34.3531 162.782V162.834C34.2582 163.889 34.1738 164.944 34.0789 166.062C33.5954 167.223 33.3308 168.464 33.2983 169.722L33.2351 169.859C32.4545 172.053 33.7519 174.015 35.218 175.586C35.1518 175.849 35.155 176.124 35.2271 176.384C35.2992 176.645 35.4378 176.883 35.6293 177.074C36.4947 178.036 37.4175 178.944 38.3928 179.795C38.4772 180.85 39.5425 181.651 40.3863 182.263L40.6816 182.463C43.0411 184.913 46.0013 186.703 49.2673 187.653C50.2581 187.895 51.2872 187.936 52.2943 187.775C53.3013 187.614 54.266 187.253 55.1318 186.714C57.9263 185.804 60.3383 183.989 61.9877 181.556C62.5033 181.021 62.9892 180.457 63.4432 179.869C63.5834 179.884 63.7249 179.884 63.8651 179.869C64.6952 179.846 65.5183 179.711 66.3122 179.468C68.0919 179.237 69.8889 179.17 71.6809 179.268C72.8371 179.493 74.0178 179.568 75.1932 179.489C76.248 179.246 76.6171 178.318 77.4504 177.749C78.7477 176.852 80.7412 176.799 82.5027 176.768C83.4588 177.668 84.2354 178.742 84.7915 179.932C85.1765 180.825 85.4698 181.754 85.6669 182.706C85.7935 183.265 85.9623 183.887 86.0466 184.51C85.8686 184.695 85.751 184.931 85.7091 185.185C85.6002 185.552 85.6044 185.944 85.721 186.309C85.8376 186.673 86.0613 186.995 86.3631 187.231C86.4539 187.415 86.5314 187.605 86.5951 187.801C86.4635 188.403 86.4963 189.029 86.69 189.615C86.541 189.775 86.4293 189.965 86.3631 190.174C86.1709 190.788 86.1709 191.447 86.3631 192.062C86.4015 192.172 86.451 192.278 86.5107 192.378C86.5366 193.351 86.3829 194.32 86.0572 195.237C85.9773 195.467 85.952 195.712 85.9834 195.954L85.6247 196.312H84.3485C84.0691 196.288 83.7888 196.349 83.5455 196.489C83.3022 196.628 83.1076 196.839 82.9879 197.093L81.9331 197.219C81.0347 197.229 80.1477 197.019 79.3489 196.608C78.1149 195.964 77.693 194.92 76.7437 194.024C75.7944 193.127 74.1701 193.707 72.936 194.024L67.9154 195.511C67.6533 195.589 67.4143 195.73 67.2193 195.922C65.9325 195.922 64.6351 195.774 63.3483 195.637L54.9103 194.72C54.6322 194.722 54.3594 194.796 54.1191 194.936C53.8789 195.077 53.6795 195.277 53.5408 195.518C53.4022 195.759 53.329 196.032 53.3287 196.311C53.3284 196.589 53.4009 196.862 53.5391 197.103C53.7289 197.42 53.9504 197.715 54.1508 198.021C54.0197 198.243 53.9578 198.499 53.9728 198.756C53.9878 199.014 54.0792 199.261 54.2352 199.466C54.4251 199.74 54.5938 200.036 54.7732 200.32C54.4477 200.977 54.2712 201.697 54.2563 202.43C54.1614 203.084 54.0243 203.01 53.402 203.485C53.1383 203.664 52.3472 204.466 51.9781 204.434C52.0441 204.178 52.0441 203.909 51.9781 203.653C51.4823 202.145 51.0921 200.489 50.4698 199.076C49.8474 197.662 48.4763 197.051 47.2 196.291C46.9597 196.156 46.6884 196.086 46.4127 196.087C46.137 196.088 45.8663 196.161 45.6271 196.298C45.3879 196.435 45.1884 196.632 45.0481 196.869C44.9078 197.107 44.8316 197.376 44.8268 197.652C44.7953 197.971 44.7953 198.293 44.8268 198.612C44.5185 199.046 44.2998 199.537 44.1834 200.057C44.0252 200.69 43.8986 201.322 43.7615 201.966C43.4612 203.212 43.0627 204.432 42.5696 205.615C42.2954 206.048 42.0212 206.48 41.7364 206.892C41.5533 207.157 41.471 207.478 41.5043 207.799C41.3659 207.97 41.262 208.167 41.1985 208.379H109.199C109.199 208.315 109.199 208.252 109.199 208.189C109.203 208.252 109.203 208.316 109.199 208.379H126.581C126.246 206.894 125.766 205.445 125.146 204.054C124.914 202.778 124.725 201.491 124.461 200.236C124.151 198.796 123.721 197.385 123.174 196.017C123.152 195.741 123.058 195.475 122.9 195.247L122.531 191.545C123.045 191.328 123.549 191.085 124.039 190.817C124.501 190.553 124.929 190.234 125.315 189.868C126.701 189.658 127.997 189.054 129.049 188.127C130.325 187.252 131.591 186.345 132.804 185.375C133.431 185.057 134.041 184.705 134.629 184.32C134.806 184.198 134.957 184.042 135.073 183.861C135.189 183.679 135.267 183.477 135.304 183.265C135.69 182.998 136.044 182.686 136.358 182.337C136.431 182.263 136.494 182.182 136.548 182.094L136.728 181.968C136.912 181.84 137.069 181.675 137.189 181.485C137.309 181.295 137.388 181.082 137.424 180.86C137.782 180.544 138.162 180.238 138.479 179.911C138.641 179.766 138.771 179.589 138.861 179.391C138.951 179.193 138.998 178.978 139 178.761C139.002 178.543 138.958 178.328 138.872 178.128C138.786 177.928 138.659 177.749 138.5 177.601Z" fill="#B7B7B7"/>
<path d="M68.5693 92.5352V87.0927L70.4784 84.498L71.5332 87.4302V79.4668" stroke="#0A1931" stroke-linecap="round" stroke-linejoin="round"/>
<path d="M59.0343 121.478L55.638 113.43L61.9033 107.101L55.7119 98.4841C55.7119 98.4841 65.7004 87.5569 68.5482 87.0928" stroke="#0A1931" stroke-linecap="round" stroke-linejoin="round"/>
<path d="M60.2684 92.5352C60.2684 92.5352 44.4471 99.6969 41.536 101.606C38.6248 103.515 34.5219 101.269 32.117 112.312C29.7122 123.355 31.7478 148.796 33.1718 153.447C34.5957 158.099 33.1718 167.444 32.8975 170.228C32.6233 173.013 36.3571 178.245 39.4687 181.588C42.5802 184.932 46.7359 188.465 50.6069 188.191C54.4778 187.917 60.1946 185.691 65.2891 177.865C70.3835 170.039 80.4775 137.025 78.9165 130.243L57.294 123.703C57.294 123.703 42.6857 165.218 42.6435 171.61" stroke="#0A1931" stroke-linecap="round" stroke-linejoin="round"/>
<path d="M39.0679 168.045C39.0679 168.045 41.4411 163.826 44.5104 162.982" stroke="#0A1931" stroke-linecap="round" stroke-linejoin="round"/>
<path d="M38.3084 104.57C38.3084 104.57 39.2682 121.731 42.4325 128.513" stroke="#0A1931" stroke-linecap="round" stroke-linejoin="round"/>
<path d="M42.422 120.813C42.422 120.813 42.6013 145.568 45.5862 157.318" stroke="#0A1931" stroke-linecap="round" stroke-linejoin="round"/>
<path d="M90.3606 78.6545V85.289L91.7845 84.5823L94.5479 89.856C94.5479 89.856 96.6575 121.13 84.5067 150.051" stroke="#0A1931" stroke-linecap="round" stroke-linejoin="round"/>
<path d="M91.7845 84.5823C91.7845 84.5823 91.0462 91.9656 86.2049 94.7607" stroke="#0A1931" stroke-linecap="round" stroke-linejoin="round"/>
<path d="M85.3189 102.524C86.1416 102.893 89.232 109.907 89.2636 110.709C89.2953 111.51 94.5374 103.146 94.5374 103.146" stroke="#0A1931" stroke-linecap="round" stroke-linejoin="round"/>
<path d="M93.5776 88.0525C93.5776 88.0525 93.2612 86.0801 96.7419 88.8541C99.9205 91.6811 102.902 94.7224 105.665 97.9566L99.7796 108.093L106.182 112.512C106.182 112.512 97.8177 145.421 85.0868 155.283" stroke="#0A1931" stroke-linecap="round" stroke-linejoin="round"/>
<path d="M78.041 141.434C78.368 141.254 80.5302 147.984 81.9331 150.083" stroke="#0A1931" stroke-linecap="round" stroke-linejoin="round"/>
<path d="M81.9331 154.502C81.9331 154.502 78.02 150.747 76.6594 146.992" stroke="#0A1931" stroke-linecap="round" stroke-linejoin="round"/>
<path d="M58.6441 124.114L59.5301 119.389C59.5301 119.389 75.8683 123.039 78.6106 125.201L77.6614 129.821" stroke="#0A1931" stroke-linecap="round" stroke-linejoin="round"/>
<path d="M99.9061 91.7229C99.9061 91.7229 111.73 97.3026 116.888 97.9249C122.045 98.5472 127.52 101.089 129.26 105.308C131 109.527 137.487 146.37 137.698 158.215C137.909 170.06 139.808 176.673 137.888 180.365C135.968 184.056 126.286 192.568 108.745 195.247C91.2044 197.926 86.1205 201.017 84.1903 199.962C83.6439 199.656 83.1835 199.217 82.8517 198.686C82.5198 198.155 82.3272 197.549 82.2917 196.924" stroke="#0A1931" stroke-linecap="round" stroke-linejoin="round"/>
<path d="M79.3173 176.652C79.3173 176.652 77.3765 175.08 82.3444 174.542C87.3123 174.004 114.124 167.053 119.092 167.053C124.06 167.053 130.758 169.163 132.371 171.568" stroke="#0A1931" stroke-linecap="round" stroke-linejoin="round"/>
<path d="M130.599 161.527C130.599 161.527 123.026 163.109 121.033 165.092" stroke="#0A1931" stroke-linecap="round" stroke-linejoin="round"/>
<path d="M118.649 119.6C118.649 119.6 121.107 134.303 120.052 142.246C118.997 150.188 118.069 160.177 119.06 167.085" stroke="#0A1931" stroke-linecap="round" stroke-linejoin="round"/>
<path d="M123.332 103.146C123.992 112.177 122.83 121.248 119.915 129.821" stroke="#0A1931" stroke-linecap="round" stroke-linejoin="round"/>
<path d="M85.1606 198.496C88.9683 185.227 82.3444 176.019 82.3444 176.019" stroke="#0A1931" stroke-linecap="round" stroke-linejoin="round"/>
<path d="M75.6678 179.721L77.1656 177.886C77.1656 177.886 77.925 176.546 83.1144 177.274" stroke="#0A1931" stroke-linecap="round" stroke-linejoin="round"/>
<path d="M76.7015 192.8C76.6616 193.603 76.8482 194.4 77.2398 195.101C77.6315 195.802 78.2125 196.379 78.9165 196.766C81.1742 196.819 83.4324 196.681 85.6669 196.355" stroke="#0A1931" stroke-linecap="round" stroke-linejoin="round"/>
<path d="M77.1656 177.886C77.1656 177.886 83.4941 186.725 78.9482 196.766" stroke="#0A1931" stroke-linecap="round" stroke-linejoin="round"/>
<path d="M79.9712 193.243C77.9649 192.853 75.9022 192.853 73.8959 193.243C70.4046 193.897 68.3584 196.102 61.9349 195.005C55.5115 193.908 52.5265 195.237 52.5265 195.237C52.5265 195.237 55.8595 200.51 53.6973 203.147C51.535 205.784 50.6069 200.468 50.6069 200.468C50.6069 200.468 46.757 194.678 46.6621 192.8C46.5671 190.923 50.6491 188.254 50.6491 188.254" stroke="#0A1931" stroke-linecap="round" stroke-linejoin="round"/>
<path d="M46.5144 187.263C45.7735 187.557 45.1019 188.003 44.542 188.571C43.983 189.137 43.5515 189.817 43.2763 190.564C42.6118 192.906 45.0589 194.783 47.5797 196.893" stroke="#0A1931" stroke-linecap="round" stroke-linejoin="round"/>
<path d="M62.9159 181.145C62.9159 181.145 66.0801 178.382 78.7372 180.681" stroke="#0A1931" stroke-linecap="round" stroke-linejoin="round"/>
<path d="M45.3753 195.195L41.6098 207.546" stroke="#0A1931" stroke-linecap="round" stroke-linejoin="round"/>
<path d="M122.499 191.418C122.499 191.418 125.378 207.113 125.21 207.44" stroke="#0A1931" stroke-linecap="round" stroke-linejoin="round"/>
<path d="M64.1499 120.486C64.1499 120.486 65.6688 114.02 66.0485 110.751C66.4282 107.481 67.4829 91.5858 69.9405 89.6555C72.3981 87.7253 73.2419 85.5737 74.8029 84.6349C76.364 83.6962 80.3404 79.3611 82.3233 79.5194C84.3063 79.6776 86.5424 83.0106 87.2912 83.7384C88.2827 84.7298 90.7192 88.5059 90.9934 88.1051C91.2677 87.7043 88.4093 89.8981 86.2998 88.7063C84.9097 87.8921 83.587 86.968 82.3444 85.9428L79.9712 88.0523" stroke="#0A1931" stroke-linecap="round" stroke-linejoin="round"/>
<path d="M72.588 90.1619C72.588 90.1619 82.6292 84.2236 87.4495 93.8746" stroke="#0A1931" stroke-linecap="round" stroke-linejoin="round"/>
<path d="M75.1721 94.0116C75.3936 93.5791 82.2179 92.1341 83.7684 92.8619C85.3189 93.5897 87.0803 96.427 86.2049 99.971C85.3294 103.515 83.8 102.239 83.8 102.239" stroke="#0A1931" stroke-linecap="round" stroke-linejoin="round"/>
<path d="M76.2585 98.199C77.3766 98.5471 81.7433 96.9755 83.0406 97.7665C84.338 98.5576 83.8 106.637 83.8 106.637L81.026 107.924" stroke="#0A1931" stroke-linecap="round" stroke-linejoin="round"/>
<path d="M80.8045 100.794C80.8045 100.794 81.6061 108.979 79.9924 111.711C78.3786 114.442 73.4001 115.476 73.4001 115.476" stroke="#0A1931" stroke-linecap="round" stroke-linejoin="round"/>
<path d="M77.2078 114.421L74.592 123.471" stroke="#0A1931" stroke-linecap="round" stroke-linejoin="round"/>
<path d="M59.5618 59.4578C59.5618 59.4578 60.2895 70.3956 65.4578 74.7095C70.6261 79.0235 73.0204 79.9833 78.1782 81.7975" stroke="#0A1931" stroke-linecap="round" stroke-linejoin="round"/>
<path d="M99.3577 57.0637C99.3577 57.0637 98.1763 66.9573 97.2481 69.7208C95.2652 75.6801 92.2908 77.6631 85.3294 81.3231" stroke="#0A1931" stroke-linecap="round" stroke-linejoin="round"/>
<path d="M58.507 49.8809C58.507 49.8809 54.1614 50.461 53.8555 54.6484C53.5496 58.8357 55.0685 63.4661 60.2684 64.1411" stroke="#0A1931" stroke-linecap="round" stroke-linejoin="round"/>
<path d="M99.9062 48.0876C99.9062 48.0876 103.809 47.8344 104.494 52.834C105.18 57.8335 103.092 61.5252 98.6721 62.158" stroke="#0A1931" stroke-linecap="round" stroke-linejoin="round"/>
<path d="M58.5281 63.7192C58.5281 63.7192 55.7857 65.544 55.6591 70.6279C55.5326 75.7118 60.0153 84.3397 56.524 89.6135C54.5305 92.5879 49.5732 95.5728 44.7002 92.6617" stroke="#0A1931" stroke-linecap="round" stroke-linejoin="round"/>
<path d="M65.2575 77.7051C65.2575 77.7051 66.5021 88.0522 58.5281 93.326" stroke="#0A1931" stroke-linecap="round" stroke-linejoin="round"/>
<path d="M79.6021 59.4578L79.9185 63.0967" stroke="#0A1931" stroke-linecap="round" stroke-linejoin="round"/>
<path d="M79.7603 68.1491C80.7174 67.9186 81.7257 68.0426 82.5983 68.4984C83.471 68.9541 84.149 69.7106 84.5067 70.6278C85.3189 72.7373 84.3274 75.7117 81.3425 75.7117C78.3575 75.7117 77.5348 73.6022 77.4504 71.672C77.366 69.7418 78.1782 68.5394 79.7603 68.1491Z" stroke="#0A1931" stroke-linecap="round" stroke-linejoin="round"/>
<path d="M65.3313 25.938C65.4578 26.0435 65.9747 52.3069 56.5241 49.8809" stroke="#0A1931" stroke-linecap="round" stroke-linejoin="round"/>
<path d="M75.1721 32.699C75.1814 35.5524 74.497 38.3653 73.1777 40.8954C71.8584 43.4256 69.9439 45.5971 67.599 47.223" stroke="#0A1931" stroke-linecap="round" stroke-linejoin="round"/>
<path d="M86.7533 22.5415C86.7533 22.5415 90.2867 35.7259 85.3188 40.8204C80.3509 45.9149 76.0264 45.8621 75.2143 45.8621" stroke="#0A1931" stroke-linecap="round" stroke-linejoin="round"/>
<path d="M93.3139 22.5415C93.3139 22.5415 96.2461 30.0197 94.2632 36.9706C92.2802 43.9214 88.3038 45.9149 86.2998 45.9149" stroke="#0A1931" stroke-linecap="round" stroke-linejoin="round"/>
<path d="M94.8961 33.2578C94.8961 33.2578 100.296 46.7165 101.225 48.2986" stroke="#0A1931" stroke-linecap="round" stroke-linejoin="round"/>
<path d="M54.5516 52.4016C54.5516 52.4016 47.5797 34.9876 55.5326 22.0774C63.4854 9.16718 71.9024 9.51525 81.5956 10.338C85.111 9.99605 88.6558 10.5477 91.9011 11.9417C95.1464 13.3357 97.987 15.5269 100.159 18.3119C108.165 28.0367 107.775 48.826 104.494 52.834" stroke="#0A1931" stroke-linecap="round" stroke-linejoin="round"/>
<path d="M72.8833 43.9846C72.8833 43.9846 68.8119 46.9801 64.8671 47.2227" stroke="#0A1931" stroke-linecap="round" stroke-linejoin="round"/>
<path d="M71.4172 55.355C71.7114 55.355 71.9989 55.2678 72.2435 55.1044C72.488 54.941 72.6787 54.7087 72.7912 54.437C72.9038 54.1652 72.9332 53.8662 72.8758 53.5777C72.8185 53.2892 72.6768 53.0242 72.4688 52.8162C72.2608 52.6082 71.9958 52.4666 71.7074 52.4092C71.4189 52.3518 71.1198 52.3813 70.8481 52.4938C70.5763 52.6064 70.3441 52.797 70.1807 53.0416C70.0172 53.2861 69.93 53.5737 69.93 53.8678C69.93 54.2623 70.0867 54.6405 70.3656 54.9194C70.6445 55.1983 71.0228 55.355 71.4172 55.355Z" fill="#0A1931"/>
<path d="M85.245 43.489C85.245 43.489 89.3164 46.4845 93.2611 46.7271" stroke="#0A1931" stroke-linecap="round" stroke-linejoin="round"/>
<path d="M88.3038 54.3528C88.5979 54.3528 88.8855 54.2656 89.13 54.1022C89.3746 53.9388 89.5652 53.7065 89.6778 53.4348C89.7904 53.163 89.8198 52.864 89.7624 52.5755C89.705 52.287 89.5634 52.022 89.3554 51.814C89.1474 51.606 88.8824 51.4644 88.5939 51.407C88.3054 51.3496 88.0064 51.3791 87.7347 51.4916C87.4629 51.6042 87.2306 51.7948 87.0672 52.0394C86.9038 52.2839 86.8166 52.5715 86.8166 52.8656C86.8166 53.2601 86.9733 53.6383 87.2522 53.9172C87.5311 54.1961 87.9094 54.3528 88.3038 54.3528Z" fill="#0A1931"/>
</svg>
